<?xml version="1.0" encoding="utf-8"?>
<!-- Generator: Adobe Illustrator 17.0.0, SVG Export Plug-In . SVG Version: 6.00 Build 0)  -->
<!DOCTYPE svg PUBLIC "-//W3C//DTD SVG 1.1//EN" "http://www.w3.org/Graphics/SVG/1.1/DTD/svg11.dtd">
<svg version="1.1" id="Layer_1" xmlns="http://www.w3.org/2000/svg" xmlns:xlink="http://www.w3.org/1999/xlink" x="0px" y="0px"
	 width="200px" height="200px" viewBox="0 0 200 200" enable-background="new 0 0 200 200" xml:space="preserve">
<g>
	<path fill="#090805" d="M86.271,17.116c-2.917-0.742-5.286-1.47-4.554-4.23c1.253-4.722,5.289-1.596,8.013-2.495
		c-0.318-1.165-1.716-1.7-1.768-3.042c-0.048-1.244,0.412-2.19,1.365-2.919c1.275-0.975,2.528-0.756,3.826,0.034
		c2.941,1.791,5.12,4.32,6.848,7.249c0.933-0.455,0.634-1.14,0.739-1.663c0.403-1.997,1.587-3.272,3.628-2.979
		c2.242,0.322,2.771,2.033,2.858,4.171c0.081,1.997-2.527,4.108-0.581,5.608c1.37,1.056,3.859,0.619,5.833,0.94
		c26.353,4.288,44.03,19.013,52.944,44.176c0.716,2.021,1.484,3.118,3.885,2.843c2.761-0.315,5.5,0.322,8.058,1.43
		c5.793,2.509,8.111,8.122,5.737,13.932c-1.975,4.832-4.815,9.163-9.064,12.207c-2.4,1.719-2.841,3.608-2.775,6.296
		c0.291,11.737-1.2,23.253-5.304,34.305c-7.557,20.352-22.167,33.433-42.308,40.809c-1.085,0.397-3.616-0.144-3.03,2.218
		c0.535,2.153,1.008,4.749,4.492,4.284c2.338-0.312,4.752-0.056,7.132-0.053c2.181,0.002,3.765,0.875,3.718,3.237
		c-0.048,2.361-1.698,3.125-3.847,3.117c-3.382-0.013-6.775-0.176-10.142,0.049c-3.163,0.211-4.712-1.086-5.777-4.022
		c-2.161-5.962-2.308-5.858-8.449-4.7c-7.646,1.442-15.376,2.095-23.148,2.335c-1.325,0.041-3.416-0.658-2.997,1.925
		c0.329,2.03-1.585,4.994,2.248,5.742c2.453,0.479,4.872,1.141,7.293,1.773c2.006,0.524,3.574,1.614,3.047,3.94
		c-0.559,2.47-2.409,2.944-4.676,2.36c-3.634-0.937-7.26-1.909-10.915-2.757c-2.449-0.568-3.543-1.908-3.548-4.484
		c-0.006-2.831,1.264-6.52-0.585-8.254c-1.603-1.503-5.212-0.847-7.929-1.188c-12.961-1.628-25.283-5.08-35.844-13.166
		c-7.569-5.795-13.331-12.844-14.542-22.752c-0.389-3.184-0.216-6.428,1.432-9.132c8.047-13.196,9.071-27.856,9.329-42.723
		c0.13-7.503-0.441-15.061,1.15-22.474c5.449-25.396,22.003-40.444,45.724-48.659C77.53,19.106,81.466,18.364,86.271,17.116z
		 M127.793,29.169c-25.488-10.297-49.822-8.282-72.237,7.869C41.195,47.385,33.867,61.943,33.487,79.803
		c-0.154,7.263-0.289,14.528-0.532,21.789c-0.394,11.782-2.538,23.137-8.63,33.449c-2.364,4.003-2.248,8.077-0.674,12.275
		c1.81,4.828,4.985,8.643,8.838,11.946c6.698,5.742,14.477,9.501,23.004,11.37c24.65,5.405,48.87,4.436,72.319-5.744
		c15.71-6.705,26.285-18.274,32.193-34.185c3.299-8.885,4.638-18.144,4.807-27.589c0.306-17.094-1.705-33.748-10.039-49.04
		C148.614,42.773,139.96,34.032,127.793,29.169z M170.909,86.605c2.349-2.103,3.914-4.271,5.173-6.686
		c2.718-5.216,0.908-8.249-5.025-8.606c-2.032-0.122-2.905,0.078-2.313,2.564C169.691,77.853,170.146,81.946,170.909,86.605z"/>
	<path fill="#FDDA00" d="M127.812,164.887c-23.449,10.181-47.669,11.149-72.319,5.744c-8.527-1.87-16.306-5.628-23.004-11.37
		c-3.853-3.303-7.028-7.118-8.838-11.946c-1.574-4.198-1.69-8.272,0.674-12.275c6.091-10.313,8.235-21.668,8.63-33.449
		c0.243-7.261,0.377-14.525,0.532-21.789c0.38-17.86,7.708-32.417,22.069-42.765c22.416-16.151,46.75-18.166,72.237-7.869
		c-0.153,1.255,0.807,1.747,1.633,2.263c8.6,5.372,14.363,13.258,19.23,21.886c0.739,1.31,2.582,2.725,0.863,4.62
		c-7.451-6.14-14.837-1.3-16.297,4.128c-0.594,2.21-1.003,4.753,1.94,5.608c2.663,0.773,3.799-0.943,4.22-3.408
		c0.281-1.646,1.364-2.66,3.128-2.642c1.77,0.018,2.821,1.083,3.071,2.716c0.356,2.333,1.399,3.837,3.91,3.42
		c2.667-0.443,2.56-2.649,2.551-4.685c2.815,3.213,3.157,7.195,3.478,11.184c-1.122,0.041-2.246,0.065-3.367,0.128
		c-1.884,0.107-3.146,1.107-3.227,2.976c-0.09,2.085,1.209,3.23,3.266,3.288c1.616,0.046,3.237-0.12,4.856-0.191
		c1.722,11.979,1.98,23.9,0.137,35.957c-2.931,19.169-11.292,34.838-27.492,45.955C128.818,162.972,127.601,163.428,127.812,164.887
		z M48.603,97.958c0.356-2.785-0.321-5.812,2.749-7.086c3.23-1.341,5.514,0.755,7.471,2.887c1.417,1.544,2.475,3.42,3.663,5.169
		c1.114,1.638,2.548,2.495,4.445,1.502c1.902-0.996,2.177-2.771,1.262-4.501c-2.557-4.833-5.833-9.053-11.141-11.122
		c-6.379-2.487-12.572,0.763-14.265,7.349c-1.023,3.978-0.644,7.936,0.13,11.879c0.404,2.061,1.582,3.577,3.862,3.129
		c2.185-0.429,2.941-2.07,2.549-4.267C49.024,101.182,48.819,99.45,48.603,97.958z M118.3,64.716c-1.498,0-2.996-0.016-4.494,0.005
		c-1.527,0.021-2.647,0.748-3.205,2.158c-1.812,4.579,2.831,12.834,7.662,13.686c2.156,0.38,4.204,0.192,4.808-2.282
		c0.541-2.216-0.747-3.493-2.936-3.935c-1.319-0.266-2.542-1-2.225-2.457c0.277-1.275,1.686-0.52,2.583-0.662
		c0.732-0.116,1.497,0.008,2.243-0.046c2.115-0.154,3.688-1.021,3.582-3.406c-0.094-2.133-1.521-3.015-3.523-3.062
		C121.297,64.678,119.798,64.707,118.3,64.716z M91.149,58.326c-4.975-0.006-9.306,3.965-9.579,8.746
		c-0.113,1.98,0.482,3.559,2.586,3.936c2.068,0.371,3.396-0.73,3.719-2.754c0.314-1.968,1.162-3.408,3.254-3.439
		c2.144-0.032,2.954,1.52,3.286,3.421c0.361,2.066,1.674,3.144,3.706,2.772c2.302-0.421,2.785-2.201,2.571-4.298
		C100.218,62.077,95.971,58.331,91.149,58.326z M82.915,87.213c2.381,0.085,4.828-0.085,4.909-3.158
		c0.08-3.065-2.322-3.372-4.723-3.413c-2.473-0.042-4.772,0.486-4.744,3.429C78.384,86.814,80.577,87.343,82.915,87.213z"/>
	<path fill="#F8BD07" d="M127.812,164.887c-0.211-1.459,1.006-1.915,1.879-2.515c16.201-11.117,24.562-26.785,27.492-45.955
		c1.843-12.058,1.585-23.978-0.137-35.957c2.243-3.463,2.043-4.275-1.528-6.201c-0.321-3.989-0.663-7.971-3.478-11.184
		c-0.459-1.9-1.503-3.513-2.522-5.138c1.72-1.895-0.124-3.31-0.863-4.62c-4.867-8.628-10.629-16.514-19.23-21.886
		c-0.826-0.516-1.785-1.008-1.633-2.263c12.167,4.863,20.821,13.604,26.98,24.905c8.334,15.292,10.345,31.945,10.039,49.04
		c-0.169,9.445-1.508,18.704-4.807,27.589C154.097,146.613,143.522,158.182,127.812,164.887z"/>
	<path fill="#F8BD07" d="M170.909,86.605c-0.764-4.659-1.219-8.752-2.166-12.727c-0.592-2.486,0.281-2.687,2.313-2.564
		c5.933,0.357,7.744,3.39,5.025,8.606C174.824,82.334,173.259,84.501,170.909,86.605z"/>
	<path fill="#090800" d="M48.603,97.958c0.216,1.492,0.421,3.224,0.726,4.937c0.391,2.197-0.364,3.838-2.549,4.267
		c-2.28,0.448-3.458-1.068-3.862-3.129c-0.774-3.944-1.153-7.901-0.13-11.879c1.693-6.586,7.887-9.836,14.265-7.349
		c5.308,2.069,8.584,6.289,11.141,11.122c0.915,1.73,0.64,3.505-1.262,4.501c-1.897,0.994-3.331,0.137-4.445-1.502
		c-1.188-1.748-2.247-3.625-3.663-5.169c-1.957-2.132-4.241-4.228-7.471-2.887C48.282,92.146,48.96,95.173,48.603,97.958z"/>
	<path fill="#090800" d="M118.3,64.711c1.498-0.004,2.997-0.033,4.494,0.003c2.003,0.047,3.429,0.929,3.523,3.062
		c0.105,2.385-1.467,3.252-3.582,3.406c-0.745,0.054-1.511-0.069-2.243,0.046c-0.896,0.142-2.305-0.613-2.583,0.662
		c-0.317,1.457,0.906,2.191,2.225,2.457c2.19,0.441,3.477,1.719,2.936,3.935c-0.604,2.475-2.652,2.662-4.808,2.282
		c-4.831-0.852-9.474-9.106-7.662-13.686c0.558-1.41,1.678-2.137,3.205-2.158C115.304,64.699,116.802,64.716,118.3,64.711z"/>
	<path fill="#090800" d="M91.149,58.326c4.822,0.005,9.069,3.751,9.541,8.383c0.214,2.097-0.269,3.876-2.571,4.298
		c-2.032,0.372-3.345-0.705-3.706-2.772c-0.332-1.901-1.142-3.452-3.286-3.421c-2.092,0.031-2.94,1.47-3.254,3.439
		c-0.323,2.024-1.65,3.125-3.719,2.754c-2.104-0.377-2.699-1.955-2.586-3.936C81.843,62.291,86.174,58.32,91.149,58.326z"/>
	<path fill="#090800" d="M149.518,57.938c1.019,1.625,2.063,3.238,2.522,5.138c0.009,2.036,0.115,4.242-2.551,4.685
		c-2.511,0.417-3.554-1.088-3.91-3.42c-0.249-1.633-1.3-2.698-3.071-2.716c-1.764-0.018-2.847,0.996-3.128,2.642
		c-0.421,2.465-1.557,4.181-4.22,3.408c-2.943-0.855-2.534-3.398-1.94-5.608C134.68,56.638,142.067,51.799,149.518,57.938z"/>
	<path fill="#E9285C" d="M82.92,87.212c-2.343,0.131-4.536-0.397-4.562-3.14c-0.028-2.944,2.271-3.471,4.744-3.429
		c2.401,0.041,4.803,0.348,4.723,3.413C87.744,87.128,85.297,87.298,82.92,87.212z"/>
	<path fill="#E9285C" d="M155.519,74.26c3.571,1.926,3.771,2.738,1.528,6.201c-1.619,0.072-3.241,0.237-4.856,0.191
		c-2.057-0.058-3.356-1.203-3.266-3.288c0.081-1.869,1.343-2.868,3.227-2.976C153.273,74.324,154.396,74.301,155.519,74.26z"/>
</g>
</svg>
