<?xml version="1.0" encoding="utf-8"?>
<!-- Generator: Adobe Illustrator 17.0.0, SVG Export Plug-In . SVG Version: 6.00 Build 0)  -->
<!DOCTYPE svg PUBLIC "-//W3C//DTD SVG 1.1//EN" "http://www.w3.org/Graphics/SVG/1.1/DTD/svg11.dtd">
<svg version="1.1" id="Layer_1" xmlns="http://www.w3.org/2000/svg" xmlns:xlink="http://www.w3.org/1999/xlink" x="0px" y="0px"
	 width="200px" height="200px" viewBox="0 0 200 200" enable-background="new 0 0 200 200" xml:space="preserve">
<g>
	<path fill="#0D0D0D" d="M97.682,91.423c-4.327-4.968-2.854-10.331-1.044-15.758c3.695-11.078,8.204-21.846,12.611-32.642
		c1.435-3.515,1.43-5.098-2.74-5.644c-3.097-0.405-5.773-1.864-6.964-5.172c-0.813-2.259-0.502-4.311,0.992-6.065
		c1.444-1.695,3.355-1.496,5.266-0.773c0.591,0.224,1.21,0.388,1.828,0.524c2.279,0.501,4.528,3.096,6.452,2.012
		c1.643-0.925,2.076-3.899,3.187-5.887c2.041-3.651,4.245-7.212,6.276-10.868c2.618-4.712,6.761-6.758,11.938-6.849
		c11.141-0.195,21.216,2.98,30.351,9.45c7.215,5.11,8.022,12.226,6.757,20.004c-0.399,2.455,0.104,3.546,2.574,3.662
		c2.221,0.104,3.76,1.203,4.831,3.166c0.925,1.694,2.064,3.274,0.893,5.29c-1.195,2.056-3.188,2.263-5.279,2.349
		c-1.849,0.076-4.282-1.942-5.418,0.456c-1.157,2.442,1.899,3.21,3.123,4.61c6.212,7.108,5.813,15.416-1.096,19.73
		c-1.544,0.964-3.252,1.871-4.992,1.602c-3.75-0.578-3.924,1.567-4.05,4.336c-0.331,7.238-0.902,14.468-2.614,21.535
		c-0.436,1.798-2.402,3.99-1.85,5.092c0.957,1.91,3.745,2.466,5.879,2.974c6.744,1.606,8.974,5.312,8.637,12.432
		c-0.49,10.378,0.67,20.825,2.931,31.042c0.656,2.965-0.257,4.57-3.038,5.502c-5.472,1.834-11.142,2.652-16.841,2.949
		c-3.219,0.168-4.4,0.901-4.042,4.407c0.837,8.214,1.232,16.474,1.785,24.716c0.4,5.973-0.335,6.721-6.365,5.751
		c-18.81-3.027-37.606-6.147-56.407-9.229c-9.778-1.603-19.552-3.225-29.335-4.796c-4.603-0.739-4.956-1.109-3.288-5.641
		c5.007-13.608,11.87-26.347,18.573-39.156c2-3.821,3.985-7.657,6.192-11.358c1.402-2.352,1.864-3.401-1.696-3.903
		c-17.217-2.425-33.259-8.058-47.411-18.439c-2.228-1.634-4.903-0.92-7.334-1.553c-5.354-1.394-4.255-2.334-6.481-6.882
		c-2.162-4.418-2.125-7.755-1.444-12.143c0.435-2.798,0.162-5.553,2.541-7.486c0.909-0.739,1.139-1.422,1.236-2.508
		c0.516-5.77,4.433-9.065,10.077-7.949c3.067,0.607,3.367-0.532,3.359-2.958c-0.014-4.012,0.494-7.915,3.847-10.739
		c1.913-1.612,4.011-2.799,6.619-1.862c2.707,0.973,3.87,3.194,4.219,5.854c0.661,5.025-0.643,9.856-1.718,14.685
		c-0.466,2.093-1.31,4.047,2.234,3.725c0.762-0.069,1.675,0.538,2.386,1.027c12.168,8.373,25.617,13.842,39.818,17.604
		C94.834,91.963,96.086,92.352,97.682,91.423z M162.663,150.587c-1.106,0.242-1.347,0.887-0.993,1.926
		c1.233,3.618,3.672,3.822,6.704,2.425c4.526-0.982,5.02-3.507,1.902-10.196c-0.896,0.695-1.766,1.37-2.635,2.045
		C165.788,147.8,164.056,148.971,162.663,150.587z M105.662,29.01c-1.004-0.474-2.177-1.293-2.76,0.35
		c-0.454,1.277,0.028,2.566,1.186,3.322c1.925,1.258,4.128,1.747,6.402,1.922c1.943,1.058,2.255-0.44,2.782-1.724
		c0.659-1.604-0.4-1.921-1.544-2.23C109.705,30.107,107.684,29.558,105.662,29.01z M27.952,92.118
		c1.492,0.999,3.175,0.51,4.761,0.508c1.266-0.001,2.091-0.922,2.137-2.221c0.052-1.464-1.113-1.365-2.127-1.503
		c-1.996-0.271-3.981-0.631-5.97-0.954c-0.872-0.466-1.705-1.035-2.624-1.37c-1.126-0.41-2.482-1.969-3.419,0.11
		c-0.731,1.624,0.097,2.94,1.542,3.749C24.01,91.421,25.96,91.87,27.952,92.118z M160.816,38.531
		c-2.469,2.191-2.01,3.757,1.011,4.802c2.988,1.033,6.102,1.311,9.22,1.553c1.238,0.096,2.341-0.07,1.95-1.797
		c0.282-1.156,1.651-1.884,1.374-3.422c-2.636-0.524-5.217-1.101-7.822-1.534C164.628,37.814,162.609,36.767,160.816,38.531z
		 M25.11,77.365c-0.939-1.518-1.811-1.087-2.503,0.167c-1.02,1.85-1.04,3.768,0.636,5.181c2.947,2.483,6.483,3.3,10.291,3.054
		c1.007-0.065,1.735-0.608,1.952-1.517c0.22-0.926-0.484-1.315-1.331-1.412C30.847,81.498,27.907,79.55,25.11,77.365z
		 M171.624,68.308l0.019,0.16c3.395-2.546,2.526-5.797,1.198-8.871c-1.492-3.451-3.759-6.428-7.809-6.978
		c-1.648-0.224-3.223,0.63-3.629,2.618c-0.859,0.584-0.53,2.681-2.16,2.081c-1.337-0.493-0.88-2.024-0.653-3.055
		c0.554-2.524,2.128-4.27,4.612-5.129c0.577-0.2,1.429-0.162,1.512-0.911c0.09-0.805-0.578-1.388-1.236-1.713
		c-0.787-0.388-1.672-0.58-2.518-0.844c-2.124-0.663-4.607-1.099-4.369-4.092c0.266-3.352,2.257-5.228,5.643-5.43
		c1.694-0.101,3.399-0.018,5.542-0.018c-3.582-3.361-5.121-7.632-8.34-11.202c-1.408,1.52-2.616,3.002-4.004,4.288
		c-3.307,3.064-5.725,2.366-6.703-1.933c-0.486-2.138-0.738-4.33-1.146-6.801c-2.42,1.981-4.368,3.803-6.539,5.303
		c-3.566,2.464-5.813,1.844-7.584-1.818c0.517-1.234,1.067-2.469-0.047-3.766c-4.087,2.201-7.966,4.599-12.095,6.432
		c-4.655,2.066-6.581,6.948-3.975,11.241c-1.676-0.757-2.917-0.869-3.349,1.5c-0.288,1.58-0.941,3.142-1.682,4.582
		c-1.601,3.11-0.314,4.029,2.679,3.849c1.352,0.879,2.839,0.494,4.294,0.482c1.899-0.015,3.606-1.742,5.625-0.616
		c-0.322,1.293-1.569,1.331-2.479,1.825c-3.149,0.615-6.279,0.808-9.426-0.11c-1.03-0.3-2.38-0.829-2.925,0.73
		c-2.042,5.841-5.03,11.345-6.249,17.48c-2.899,5.01-4.243,10.525-5.119,16.166c-0.147,0.945,0.066,2.113,0.527,2.951
		c1.071,1.948,1.159-0.431,2.05-0.587c-0.501,2.612,0.311,4.519,2.917,5.35c1.7,1.101,3.314,2.395,5.48,2.458
		c0.96,1.272,2.389,1.554,3.83,1.812c1.678,0.705,3.351,1.426,5.037,2.111c1.224,0.497,1.869,0.066,1.88-1.27
		c0.951,1.358,1.554,3.174,3.769,2.875c2.146,0.708,4.298,1.397,6.435,2.13c1.256,0.431,1.959,0.13,1.948-1.296
		c1.216,1.715,8.665,4.369,10.843,3.935c1.175-0.234,1.062-1.168,1.357-1.966c0.878-2.376,0.269-5.221,2.282-7.232
		c0.45,2.329-0.404,4.515-0.702,6.765c-0.144,1.087-0.954,2.79,1.459,2.433c6.231,0.58,8.346-0.464,9.149-5.251
		c1.364-8.129,2.538-16.296,2.957-24.546c0.043-2.381,1.033-3.364,3.624-3.367c2.359-0.002,5.057,0.391,6.961-1.778
		C171.061,69.163,171.529,68.948,171.624,68.308z M38.049,80.73c0.227-0.336,0.455-0.672,0.682-1.009
		c0.059-0.5,0.117-0.999,0.176-1.499c0.619-1.722-0.722-2.998-1.027-4.51c0.164-0.196,0.328-0.392,0.492-0.587
		c3.599,2.075,4.868,5.488,2.593,8.425c-4.144,5.349-3.074,11.753-4.388,17.707c4.313-4.149,7.791-8.751,10.482-13.945
		c1.542-2.976,4.504-5.904-0.35-8.674c-0.633-0.361-0.802-1.533-1.186-2.329c0.025-2.134,0.268-4.23,0.698-6.334
		c0.827-4.049,1.668-8.134,1.157-12.298c-0.221-1.798-0.288-4.063-3.247-3.346c-0.235,0.072-0.505,0.093-0.701,0.225
		c-3.625,2.438-3.313,6.214-3.504,9.909c-0.126,2.448,0.986,5.32-1.829,7.113c-2.798-2.472-5.762-3.806-9.28-1.358
		c-1.756,0.953-3.174,2.213-2.723,4.419C26.767,75.928,34.315,80.952,38.049,80.73z M118.617,182.732
		c-1.14,2.972-0.179,4.461,3.064,4.549c1.619,0.044,3.231,0.359,4.846,0.551c2.213,0.418,4.41,1.038,6.641,1.207
		c3.58,0.27,7.387,3.129,10.7-0.713c0.144,0.205,0.288,0.41,0.431,0.618c0.521,3.739,3.698,1.733,6.023,3.094
		c-0.772-9.884-1.501-19.217-2.23-28.55c0.272-1.432-0.192-2.255-1.778-2.151c-3.101-0.801-6.259-0.783-9.432-0.74
		c-4.067,0.054-8.135-0.046-12.202,0.01c-2.511,0.034-4.292-0.984-4.749-3.463c-1.822-9.886-2.557-19.674,3.481-28.618
		c2.656-2.286,6.256-2.538,9.199-4.542c3.763-2.561,7.917-0.761,9.789,3.36c1.217,2.678,3.537,1.272,5.307,1.644
		c1.602,0.337,1.432-1.425,1.571-2.447c0.461-3.385,1.239-6.647,3.122-9.559c1.397,1.076,0.85,2.51,0.556,3.78
		c-0.424,1.834-1.05,3.624-1.652,5.412c-0.86,2.553-0.019,3.586,2.645,3.09c4.057,0.535,8.113,1.07,12.17,1.605
		c0.095,2.566-1.893,1.519-2.977,1.539c-5.763,0.106-11.53,0.05-17.297,0.05c0.239,1.076,1.547,1.952,2.432,3.113
		c1.162,2.986,2.324,5.973,3.487,8.959c0.008,2.289,0.017,4.579,0.025,6.868c-0.544,1.905-1.088,3.81-1.743,6.104
		c2.717-0.278,4.963-0.483,7.203-0.744c1.459-0.17,3.479,0.537,4.192-0.963c0.756-1.588-2.446-1.121-2.255-2.89
		c0.415-1.634,0.121-3.211,2.3-4.464c1.253-0.721,4.178-1.091,4.052-3.81c0.909,0.226,1.737,0.225,2.2-0.79
		c2.914-1.06,2.947-3.202,2.59-5.868c-0.535-3.998-0.684-8.051-0.895-12.087c-0.191-3.655,0.884-7.923-0.668-10.81
		c-1.646-3.063-6.411-3.484-9.713-5.267c-1.788-0.965-3.409-2.849-5.859-1.828c-6.698,0.519-13.289-0.21-19.752-1.94
		c-2.374-0.636-4.429-0.356-6.412,0.982c-7.7,1.888-7.696,1.887-10.035-3.372c-0.07-0.157-0.414-0.191-0.776-0.345
		c-1.144,2.312-3.114,3.867-5.161,5.345c-0.215-0.27-0.431-0.539-0.646-0.809c0.143-1.804-0.39-3.5-0.838-5.209
		c0.08-0.49,0.011-1.257-0.51-1.019c-0.874,0.399-1.545,1.225-2.333,1.83c-0.765,0.587-1.45,1.681-2.53,1.248
		c-1.107-0.444-0.674-1.752-0.841-2.662c-0.337-1.834-0.454-3.709-0.662-5.567c-0.4-1.174-1.53-0.948-2.24-0.847
		c-4.15,0.59-7.972-0.908-11.826-1.865c-11.504-2.857-22.192-7.754-32.438-13.648c-1.532-0.881-3.024-2.021-3.081,1.092
		c-2.728,5.521-5.513,11.011-8.985,16.117c-0.769,0.816-1.481,1.697-2.319,2.434c-2.066,1.817-1.919,3.064,0.679,4.24
		c2.74,1.241,5.335,2.8,8.004,4.2c0.741,0.389,1.556,1.214,2.354,0.364c0.604-0.644,1.43-1.429,0.266-2.512
		c-0.57-0.53,0.283-0.737,0.712-0.919l0.015-0.016c0.466,0.633,0.786,0.514,0.992-0.193c0.674-0.453,0.815-1.219,1.174-1.874
		c2.022-3.688,5.233-5.5,7.584-3.885c3.677,2.524,7.548,4.496,11.831,5.608c3.075,0.798,6.194,1.358,5.119,5.762
		c-0.025,0.104,0.075,0.238,0.117,0.358c-3.376,0.084-1.977,3.89-3.951,5.067c0.211,0.274,0.394,0.758,0.638,0.791
		c3.109,0.422,6.299,1.342,9.317,0.955c1.999-0.256,2.452-3.2,3.268-5.141c2.901-4.46,5.254-9.323,9.431-12.847
		c1.678,0.685,0.417,1.729,0.131,2.393c-1.679,3.908-3.501,7.755-5.274,11.623c-4.673,8.497-9.353,16.991-14.016,25.494
		c-1.719,3.134,0.46,4.313,2.766,5.408c1.429,1.848,2.206,3.326,1.51,6.218c-0.536,2.231-3.053,2.849-2.715,5.091
		c0.392,2.596-1.669,4.194-2.581,6.26c-1.335,0.083-1.377-0.39-0.893-1.539c1.416-3.366,2.531-6.864,4.052-10.179
		c0.986-2.15,0.445-3.305-1.582-4.09c-0.718-1.073-1.656-1.875-3.108-2.489c-2.227,4.433-4.45,8.836-6.654,13.248
		c-2.692,5.391-2.686,5.394,3.529,6.614c1.046,0.828,2.245,0.605,3.427,0.498c-0.166,0.95-0.332,1.9-0.558,3.194
		c-1.561-2.268-2.99-1.992-4.302-0.044c0.186-1.798-0.434-2.332-2.4-2.76c-3.361-0.732-4.069,0.964-4.54,3.471
		c-0.613,1.209-1.275,2.395-1.831,3.63c-2.761,6.126-2.751,6.13,4.167,6.376c4.083,0.715,8.165,1.429,12.248,2.144
		c0.747,0.105,1.494,0.211,2.241,0.316c10.656,1.86,21.312,3.72,31.969,5.577c0.711,0.124,1.531,0.551,2.017-0.339
		c0.511-0.937,0.17-1.549-0.758-2.147c-0.709-0.457-0.584-0.651,0.994-1.041C117.672,182.664,118.144,182.698,118.617,182.732z
		 M57.024,105.64c-3.492,4.121-3.533,4.243,1.273,5.878c4.387,1.493,8.884,2.658,13.318,4.017c2.273,0.697,3.658,0.064,4.004-2.391
		c0.35-0.52,0.678-1.056,1.053-1.557c1.949-2.598,1.738-4.158-1.782-5.114c-3.248-0.882-6.335-2.39-9.448-3.725
		C59.986,100.411,60.001,100.378,57.024,105.64z M143.276,134.617c-0.385-1.58-1.245-2.639-2.94-2.985
		c-3.327-0.681-6.638-1.441-9.955-2.168c-3.992-0.457-5.365,2.486-6.281,5.352c-2.078,6.502-2.055,13.185-0.852,19.876
		c0.187,1.04,0.402,2.082,1.769,2.008c7.086-0.384,14.809,2.437,20.683-4.092c0.866-0.963,2.758-0.732,2.848-2.655
		c0.242-5.207-0.757-9.981-4.472-13.899C143.809,135.575,143.542,135.096,143.276,134.617z M168.712,32.773
		c1.929-8.002-0.641-13.232-6.652-17.278c-6.952-4.68-14.762-6.888-22.866-7.106c-3.043-0.082-7.075-0.915-9.789,1.75
		c-3.87,3.799-6.166,8.683-8.665,13.48c3.34-1.537,6.335-3.372,9.325-5.217c6.273-3.869,6.332-3.877,7.124,3.449
		c0.21,1.942,0.829,2.268,2.274,1.114c1.882-1.504,3.677-3.115,5.547-4.633c3.791-3.077,5.233-2.467,6.206,2.349
		c0.417,2.065-0.487,5.41,1.27,5.922c2.043,0.596,3.308-2.558,4.867-4.113c2.721-2.714,3.565-2.659,5.664,0.78
		C164.826,26.236,166.589,29.228,168.712,32.773z M31.047,98.82c0.999,0.183,2.65-0.246,2.819-2.012
		c0.182-1.904-1.773-1.19-2.832-1.414c-1.959-0.415-3.951-0.676-5.934-0.977c-0.72-0.109-1.564-0.36-1.851,0.66
		c-0.265,0.942,0.027,1.722,0.928,2.214C26.105,98.343,28.244,98.477,31.047,98.82z M118.999,101.847
		c1.15,5.302,1.365,5.375,6.23,2.009C123.011,103.141,121.105,102.526,118.999,101.847z M179.157,43.746
		c-0.216-1.119-0.72-2.554-1.785-2.564c-1.361-0.014-1.901,1.47-1.915,2.764c-0.012,1.075,0.61,2.079,1.742,2.11
		C178.543,46.093,179.102,45.073,179.157,43.746z M105.189,96.401c-0.002,1.971-0.436,3.423,0.54,4.801
		c1.46-0.703,2.534-1.501,3.344-2.955C107.912,97.696,106.805,97.17,105.189,96.401z M112.765,103.8
		c0.69-1.113,2.555-1.629,1.869-3.23c-0.227-0.53-2.047-1.048-2.303-0.778C111.225,100.955,112.225,102.32,112.765,103.8z"/>
	<path fill="#9CBCB2" d="M133.458,23.963c1.771,3.662,4.018,4.281,7.584,1.818c2.171-1.5,4.12-3.322,6.539-5.303
		c0.408,2.471,0.659,4.663,1.146,6.801c0.978,4.298,3.397,4.996,6.703,1.933c1.389-1.287,2.597-2.768,4.004-4.288
		c3.219,3.57,4.758,7.841,8.34,11.202c-2.143,0-3.848-0.083-5.542,0.018c-3.386,0.202-5.377,2.078-5.643,5.43
		c-0.238,2.993,2.246,3.429,4.369,4.092c0.846,0.264,1.731,0.457,2.518,0.844c0.658,0.325,1.326,0.907,1.236,1.713
		c-0.084,0.749-0.936,0.711-1.512,0.911c-2.483,0.86-4.057,2.605-4.612,5.129c-0.226,1.031-0.684,2.562,0.653,3.055
		c1.629,0.6,1.301-1.496,2.16-2.081c7.16,0.122,9.546,1.975,10.066,7.925c0.154,1.76,0.121,3.537,0.174,5.307
		c0,0-0.019-0.16-0.018-0.159c-0.37,0.326-0.741,0.652-1.113,0.977c-1.904,2.169-4.603,1.775-6.961,1.778
		c-2.591,0.003-3.581,0.986-3.624,3.367c-1.484,0.841-1.881,2.311-2.154,3.82c-0.537,2.97-0.876,5.983-1.567,8.915
		c-1.486,6.31-1.988,13.149-8.385,17.062c-2.413,0.357-1.603-1.346-1.459-2.433c0.298-2.25,1.152-4.437,0.702-6.765
		c0.516-1.032-1.462-2.08,0.02-3.105c2.835-1.753,1.843-4.842,2.413-7.321c1.129-4.908,0.967-5.041-4.061-5.318
		c-10.343-0.57-20.258-2.928-29.825-6.842c0.422-1.158-0.437-2.869,1.462-3.39c-0.18,1.627,0.863,2.191,2.177,2.609
		c2.295,0.73,4.594,1.459,6.843,2.317c2.023,0.772,2.794,0.175,2.782-1.962c-0.024-4.439,0.055-8.879,0.12-13.318
		c0.07-4.736-1.515-5.98-6.345-4.932c-1.279-1.363,0.668-2.892-0.221-4.275c0.911-0.494,2.157-0.532,2.479-1.822
		c-0.01-0.058,0.099-0.094,0.326-0.106c0.915,0.558,1.452-0.085,2.018-0.635c1.756-1.081,2.884-1.159,3.948,1.178
		c1.729,3.797,4.853,6.411,8.675,8.149c7.116,3.236,15.554-1.63,16.472-9.391c0.204-1.728-0.255-2.142-1.876-2.304
		c-6.525-0.654-13.044-1.612-19.604-1.406c-3.701,0.117-6.95-0.548-9.858-2.816c1.73-0.086,2.21-1.38,2.681-2.724
		c1.12-3.198,2.213-6.408,3.434-9.568C131.687,26.589,131.613,24.708,133.458,23.963z M165.163,64.555
		c0.419,0.939,0.86,1.929,1.334,2.992c2.642-3.164,2.018-4.798-2.198-6.404c-0.243-1.227,1.629-1.946,0.821-3.4
		c-2.861,0.943-3.757,2.981-3.689,5.639c0.03,1.166,0.07,2.527,1.19,3.029C164.197,67.12,163.862,64.775,165.163,64.555z"/>
	<path fill="#C1B79D" d="M166.122,130.868c-4.057-0.535-8.113-1.07-12.17-1.605c0.721-3.841,1.514-7.671,2.119-11.53
		c0.195-1.243,0.899-3.079-1.055-3.529c-2.036-0.468-2.613,1.02-2.614,2.777c-1.883,2.912-2.661,6.175-3.122,9.559
		c-0.139,1.022,0.031,2.784-1.571,2.447c-1.77-0.372-4.09,1.034-5.307-1.644c-1.872-4.121-6.026-5.921-9.789-3.36
		c-2.943,2.004-6.543,2.256-9.199,4.542c-2.556-0.203-3.65,1.816-5.043,3.351c-1.889,2.081-2.1,4.947-3.352,7.33
		c-0.343-0.069-0.685-0.138-1.028-0.207c0.116-1.495-0.845-2.831-0.391-4.445c0.847-3.01,1.426-6.096,2.107-9.153
		c0.577-2.587,1.249-5.227,1.887-7.714c1.002-3.907-2.641-3.703-3.264-3.832c-4.839-0.999-4.879-0.809-3.269-5.204
		c2.047-1.478,4.017-3.034,5.161-5.345c0.362,0.153,0.707,0.188,0.776,0.345c2.339,5.259,2.335,5.261,10.035,3.373
		c3.947,1.63,8.021,2.864,12.118,4.063c5.099,1.492,9.638,0.368,13.958-2.374c2.392,1.823,4.609,3.97,7.222,5.387
		c3.249,1.762,4.628,4.349,4.953,7.785C165.568,124.877,165.843,127.873,166.122,130.868z"/>
	<path fill="#C2B89E" d="M44.129,97.311c3.473-5.106,6.257-10.596,8.985-16.117c5.699,2.379,10.705,6.084,16.433,8.445
		c9.259,3.817,18.923,5.994,28.739,7.658c-0.007,0.965-0.034,1.938,1.073,2.405c-4.178,3.523-6.53,8.386-9.431,12.847
		c-1.508-0.929-2.985-0.546-4.634-0.272c-1.544,0.257-3.844,1.442-4.638-1.399c-0.042-0.12-0.142-0.254-0.117-0.358
		c1.075-4.405-2.043-4.964-5.119-5.762c-4.283-1.112-8.154-3.083-11.831-5.608c-2.351-1.614-5.562,0.197-7.584,3.885
		c-0.359,0.656-0.5,1.421-1.174,1.874c-0.331,0.064-0.661,0.128-0.992,0.193l-0.015,0.016c0.307-1.329-0.712-1.698-1.561-2.264
		C49.533,101.035,46.838,99.163,44.129,97.311z"/>
	<path fill="#AFA486" d="M99.36,99.702c-1.107-0.467-1.081-1.44-1.074-2.405c1.471-0.279,2.943-0.557,4.414-0.835
		c0.208,1.858,0.325,3.733,0.662,5.567c0.167,0.91-0.266,2.218,0.841,2.662c1.08,0.433,1.765-0.661,2.53-1.248
		c0.788-0.605,1.46-1.431,2.333-1.83c0.521-0.238,0.59,0.529,0.51,1.019c-2.164,1.886-3.375,4.386-4.384,6.983
		c-2.383,6.131-4.553,12.35-7.089,18.417c-5.673,13.572-9.984,27.614-14.629,41.542c-0.499,1.495-1.423,3.253,1.063,4.026
		c0.013,2.446-0.725,4.724-1.561,6.981c-0.747-0.105-1.494-0.211-2.241-0.316c-0.084-1.525-0.126-3.047,0.727-4.413
		c1.212-1.942,0.579-3.008-1.556-3.47c-1.227-0.265-2.417-0.855-3.647-0.93c-2.701-0.165-3.446-1.656-3.168-4.048
		c1.312-1.947,2.741-2.224,4.302,0.044c0.226-1.294,0.392-2.244,0.557-3.194c0.837-0.433,1.223-1.135,1.229-2.064
		c0.913-2.066,2.973-3.664,2.581-6.26c-0.338-2.242,2.179-2.86,2.715-5.091c0.696-2.893-0.081-4.37-1.51-6.218
		c1.842-8.826,5.735-16.81,10.377-24.422c1.346-2.208,2.534-4.045,0.873-6.48c1.774-3.868,3.595-7.715,5.274-11.623
		C99.776,101.431,101.038,100.387,99.36,99.702z"/>
	<path fill="#9C582B" d="M168.712,32.773c-2.122-3.546-3.886-6.538-5.695-9.501c-2.099-3.439-2.943-3.495-5.664-0.78
		c-1.559,1.555-2.824,4.709-4.867,4.113c-1.757-0.513-0.853-3.857-1.27-5.922c-0.973-4.816-2.416-5.426-6.206-2.349
		c-1.87,1.518-3.666,3.129-5.547,4.633c-1.444,1.154-2.064,0.828-2.274-1.114c-0.792-7.327-0.85-7.318-7.124-3.449
		c-2.99,1.844-5.985,3.68-9.325,5.217c2.499-4.797,4.795-9.682,8.665-13.48c2.715-2.665,6.746-1.832,9.789-1.75
		c8.104,0.218,15.914,2.427,22.866,7.106C168.071,19.542,170.641,24.771,168.712,32.773z"/>
	<path fill="#84AB9C" d="M144.076,136.055c3.715,3.918,4.714,8.692,4.472,13.899c-0.09,1.924-1.981,1.692-2.848,2.655
		c-5.874,6.529-13.597,3.708-20.683,4.092c-1.367,0.074-1.582-0.968-1.769-2.008c-1.203-6.691-1.226-13.374,0.852-19.876
		c0.916-2.867,2.289-5.81,6.281-5.352c-0.023,1.084,1.029,1.327,1.552,1.984c0.009,4.807,1.238,9.434,2.092,14.116
		c1.559,8.552,0.979,6.644,8.608,5.458c2.359-0.367,2.97-1.483,3.006-3.789C145.699,143.392,143.955,139.863,144.076,136.055z"/>
	<path fill="#A79A93" d="M144.301,188.94c-0.144-0.205-0.288-0.41-0.432-0.615c-3.313,3.842-7.121,0.983-10.7,0.713
		c-2.231-0.168-4.429-0.789-6.641-1.207c-6.154-3.469-3.882-8.815-3.081-13.833c0.02-0.123,0.01-0.252,0.014-0.378
		c3.272-0.111,6.392,0.77,9.538,1.474c0.23-0.007,0.46-0.013,0.69-0.02c0.67,0.169,1.342,0.42,2.001-0.034l-0.048-0.03
		c1.936,1.922,4.733,1.709,6.995,2.821l0.225,0.073c2.72,2.348-0.139,4.948,0.346,7.381c0.238,1.193-1.769,3.002,0.922,3.55
		L144.301,188.94z"/>
	<path fill="#84AB9C" d="M122.428,49.492c0.889,1.383-1.058,2.912,0.221,4.275c-1.859,5.095-3.718,10.191-5.576,15.286
		c-1.899,0.521-1.04,2.232-1.462,3.39c-3.147-0.607-5.691-3.3-9.199-2.659c-1.073-0.481-1.207-2.069-2.584-2.193
		c1.219-6.135,4.206-11.639,6.249-17.48c0.545-1.559,1.896-1.03,2.925-0.73C116.149,50.3,119.279,50.108,122.428,49.492z"/>
	<path fill="#F2F3F3" d="M147.084,91.925c-1.482,1.026,0.496,2.074-0.02,3.105c-2.013,2.011-1.403,4.856-2.282,7.231
		c-0.295,0.799-0.181,1.732-1.357,1.966c-2.178,0.434-9.627-2.22-10.843-3.935c-0.316-2.146,1.489-3.545,1.983-5.508
		c0.98-3.895,1.609-7.988,3.573-11.612c1.88-3.617,5.161-1.881,7.938-2.083c1.94-0.141,2.681,0.452,2.198,2.596
		C147.665,86.385,147.462,89.174,147.084,91.925z"/>
	<path fill="#C1B79D" d="M84.539,173.6c-2.487-0.774-1.562-2.532-1.064-4.026c4.645-13.928,8.956-27.97,14.629-41.542
		c2.536-6.067,4.705-12.286,7.089-18.417c1.009-2.597,2.221-5.097,4.384-6.983c0.448,1.709,0.981,3.405,0.838,5.209
		c-1.233,2.34-2.659,4.599-3.667,7.032c-7.324,17.673-13.747,35.674-19.357,53.963c-0.406,1.323-1.357,2.618-0.648,4.138
		C86.155,173.703,85.307,173.51,84.539,173.6z"/>
	<path fill="#9CBCB2" d="M28.816,68.219c3.518-2.448,6.482-1.114,9.28,1.358c0.617,3.988,3.051,2.479,5.233,1.729
		c1.088,0.74,0.71,2.55,2.192,3.002c0.384,0.796,0.554,1.968,1.187,2.329c4.854,2.771,1.891,5.698,0.35,8.674
		c-2.691,5.194-6.169,9.796-10.482,13.945c1.314-5.954,0.244-12.358,4.388-17.707c2.276-2.937,1.006-6.35-2.593-8.423
		c-0.315,0.031-0.63,0.061-0.945,0.09c0.151,0.165,0.302,0.33,0.453,0.495c0.305,1.512,1.646,2.788,1.027,4.51
		C33.073,77.091,28.965,73.019,28.816,68.219z"/>
	<path fill="#1A1C1C" d="M86.742,172.975c-0.709-1.52,0.242-2.815,0.648-4.138c5.61-18.289,12.034-36.29,19.357-53.963
		c1.008-2.433,2.435-4.692,3.667-7.032c0.215,0.27,0.431,0.539,0.646,0.809c-1.61,4.395-1.57,4.205,3.269,5.204
		c0.624,0.129,4.266-0.075,3.264,3.832c-0.638,2.486-1.31,5.126-1.887,7.714c-0.681,3.057-1.26,6.143-2.107,9.153
		c-0.454,1.614,0.507,2.949,0.391,4.445c-1.346-3.139-4.402-3.827-7.15-4.851c-3.312-1.233-5.184-0.268-6.344,2.958
		c-4.283,11.911-8.044,24.01-12.903,35.713C87.31,172.87,87.026,172.923,86.742,172.975z M111.243,115.631
		c-1.587-1.045-2.667-1.012-3.382,1.102c-1.338,3.96-2.732,7.917-4.406,11.741c-1.244,2.842-0.135,3.678,2.451,3.808
		c0.931,0.375,1.917,0.653,2.784,1.143c3.034,1.716,4.06,0.528,4.414-2.596c0.367-3.239,0.964-6.494,1.887-9.615
		C116.065,117.582,115.164,115.703,111.243,115.631z"/>
	<path fill="#AFA486" d="M115.019,139.205c1.252-2.383,1.463-5.248,3.352-7.33c1.393-1.534,2.486-3.554,5.043-3.351
		c-6.039,8.944-5.304,18.732-3.481,28.618c0.457,2.479,2.238,3.498,4.749,3.463c4.067-0.056,8.135,0.045,12.202-0.01
		c3.173-0.042,6.331-0.061,9.432,0.74c0.014,0.773,0.027,1.547,0.041,2.32l-0.003,0.001c-7.662,1.433-15.413,1.018-23.062,0.404
		c-6.102-0.489-6.574-1.975-7.602-7.832C114.692,150.541,115.315,144.873,115.019,139.205z"/>
	<path fill="#D8D3C7" d="M166.122,130.868c-0.279-2.995-0.554-5.991-0.838-8.986c-0.326-3.435-1.704-6.022-4.953-7.785
		c-2.613-1.417-4.829-3.564-7.221-5.387c0.025-0.244,0.054-0.487,0.087-0.73c2.45-1.021,4.071,0.862,5.859,1.828
		c3.302,1.783,8.067,2.204,9.713,5.267c1.551,2.887,0.477,7.155,0.668,10.81c0.211,4.035,0.36,8.089,0.895,12.087
		c0.357,2.666,0.324,4.808-2.59,5.868c-1.576-1.727-0.501-3.845-0.852-5.752c-0.255-1.386,0.1-2.985-2.414-2.841
		c-5.387,0.309-10.795,0.24-16.195,0.325c-0.885-1.161-2.194-2.037-2.432-3.113c5.767,0,11.534,0.056,17.297-0.05
		C164.229,132.387,166.217,133.434,166.122,130.868z"/>
	<path fill="#9CBCB2" d="M144.076,136.055c-0.121,3.808,1.623,7.338,1.563,11.179c-0.036,2.306-0.647,3.422-3.006,3.789
		c-7.629,1.186-7.048,3.093-8.608-5.458c-0.854-4.682-2.083-9.309-2.093-14.115c3.92,0.556,7.085,3.823,11.344,3.167
		C143.542,135.096,143.809,135.575,144.076,136.055z"/>
	<path fill="#AB9F84" d="M86.742,172.975c0.284-0.052,0.568-0.104,0.852-0.157c0.073,0.949,0.377,1.832,1.387,2.053
		c9.487,2.074,18.723,5.277,28.438,6.324c-0.073,0.478-0.146,0.956-0.219,1.434c-1.578,0.39-1.703,0.584-0.994,1.041
		c0.928,0.598,1.27,1.21,0.758,2.147c-0.486,0.89-1.306,0.463-2.017,0.339c-10.657-1.857-21.313-3.717-31.969-5.577
		c0.836-2.256,1.574-4.535,1.561-6.981C85.307,173.51,86.155,173.703,86.742,172.975z"/>
	<path fill="#84AB9C" d="M133.458,23.963c-1.845,0.745-1.771,2.626-2.334,4.084c-1.221,3.16-2.315,6.369-3.434,9.568
		c-0.471,1.344-0.951,2.638-2.68,2.724c-1.068-0.104-2.138-0.207-3.207-0.31c-0.427-0.025-0.855-0.05-1.282-0.074
		c-0.293-0.209-0.586-0.418-0.879-0.627c-0.777-0.272-1.553-0.543-2.33-0.815c-0.113-0.22-0.103-0.434,0.031-0.642
		c-2.607-4.293-0.68-9.175,3.975-11.241c4.129-1.833,8.008-4.231,12.095-6.432C134.525,21.495,133.975,22.729,133.458,23.963z"/>
	<path fill="#F7F9FA" d="M138.138,83.173c-1.963,3.624-2.592,7.716-3.573,11.612c-0.494,1.963-2.299,3.362-1.983,5.508
		c0.011,1.426-0.692,1.726-1.948,1.296c-2.137-0.733-4.289-1.422-6.435-2.13c0.311-1.338,0.492-2.723,0.954-4.006
		c1.916-5.312,3.917-10.592,5.887-15.884c1.843,0.235,3.704,0.378,5.524,0.734C138.122,80.607,138.349,81.174,138.138,83.173z"/>
	<path fill="#F2F3F3" d="M120.43,96.584c-0.01,1.335-0.656,1.767-1.88,1.27c-1.687-0.685-3.359-1.406-5.037-2.111
		c0.655-4.564,1.44-9.091,3.041-13.448c0.771-2.096,1.722-4.178,1.573-6.509c1.764,0.507,3.501,1.162,5.299,1.481
		c2.014,0.358,3.052,1.349,3.048,3.398c-0.575,0.576-1.125,0.958-1.417,1.969C123.702,87.338,122.005,91.943,120.43,96.584z"/>
	<path fill="#D8E6EF" d="M103.828,67.592c1.377,0.124,1.511,1.712,2.584,2.193c1.098,0.781,2.196,1.561,3.294,2.342
		c-1.46,6.555-2.834,13.134-5.504,19.345c-2.607-0.831-3.418-2.738-2.917-5.35c-0.891,0.156-0.979,2.535-2.05,0.587
		c-0.46-0.838-0.674-2.006-0.527-2.951C99.584,78.117,100.929,72.602,103.828,67.592z"/>
	<path fill="#C2B89E" d="M148.28,135.571c5.4-0.085,10.808-0.016,16.195-0.325c2.514-0.144,2.159,1.455,2.414,2.841
		c0.351,1.907-0.724,4.025,0.852,5.752c-0.463,1.015-1.291,1.016-2.2,0.79c-4.592-0.033-9.183-0.066-13.775-0.099
		C150.605,141.543,149.443,138.557,148.28,135.571z"/>
	<path fill="#9A8E70" d="M73.092,167.403c-0.277,2.392,0.467,3.883,3.168,4.048c1.229,0.075,2.419,0.665,3.647,0.93
		c2.135,0.462,2.768,1.528,1.556,3.47c-0.852,1.365-0.811,2.888-0.727,4.413c-4.083-0.715-8.166-1.429-12.248-2.144
		c2.789-1.224,3.536-4.02,3.517-6.379c-0.017-2.107-2.744-2.373-4.647-2.855c-0.439-0.111-0.806-0.507-1.207-0.772
		c0.471-2.508,1.18-4.204,4.54-3.471C72.658,165.071,73.278,165.605,73.092,167.403z"/>
	<path fill="#A79A93" d="M57.024,105.64c2.977-5.263,2.963-5.23,8.418-2.89c3.114,1.335,6.201,2.843,9.448,3.725
		c3.519,0.956,3.731,2.516,1.782,5.114c-0.376,0.501-0.703,1.037-1.054,1.555c-0.331-1.102-1.227-1.68-2.204-1.89
		C67.723,110.032,62.359,107.883,57.024,105.64z"/>
	<path fill="#F7F9FA" d="M104.202,91.472c2.67-6.211,4.043-12.79,5.504-19.345c2.002,0.9,4.005,1.801,6.007,2.701
		c-0.45,0.421-1.141,0.761-1.313,1.275c-1.955,5.839-4.089,11.636-4.718,17.827C107.517,93.868,105.903,92.574,104.202,91.472z"/>
	<path fill="#8C8078" d="M74.525,163.755c-6.215-1.22-6.222-1.223-3.529-6.614c2.204-4.412,4.426-8.815,6.654-13.248
		c1.452,0.614,2.389,1.417,3.108,2.49C80.03,152.658,76.764,158.022,74.525,163.755z"/>
	<path fill="#D8D3C7" d="M102.7,96.462c-1.471,0.278-2.943,0.556-4.414,0.835c-9.816-1.664-19.479-3.841-28.738-7.658
		c-5.728-2.361-10.734-6.066-16.433-8.445c0.057-3.113,1.549-1.973,3.081-1.092C66.441,85.995,77.13,90.892,88.634,93.75
		c3.854,0.957,7.677,2.455,11.826,1.865C101.17,95.514,102.301,95.288,102.7,96.462z"/>
	<path fill="#8C8078" d="M57.024,105.64c5.335,2.243,10.699,4.392,16.39,5.614c0.977,0.21,1.874,0.788,2.204,1.89
		c-0.345,2.456-1.73,3.088-4.003,2.392c-4.434-1.359-8.931-2.525-13.318-4.017C53.49,109.883,53.532,109.761,57.024,105.64z"/>
	<path fill="#D8D3C7" d="M148.093,163.488c0.729,9.333,1.458,18.667,2.23,28.55c-2.325-1.361-5.502,0.644-6.023-3.096
		c0.001-0.002-0.171-0.106-0.171-0.106c1.001,0.322,1.797,0.071,1.096-1.019c-0.817-1.27-0.929-2.192,0.306-3.13
		c0.474,0.281,1.191,0.309,1.268-0.138c0.125-0.732-0.588-0.984-1.256-1.058c-0.209-1.6-0.328-3.011,1.108-4.377
		c1.193-1.135-0.671-0.895-1.066-1.355c1.622-4.625,0.333-9.41,0.77-14.1l0.002-0.002
		C146.935,163.6,147.514,163.544,148.093,163.488z"/>
	<path fill="#9A8E70" d="M94.217,113.718c1.661,2.435,0.473,4.272-0.873,6.48c-4.642,7.612-8.535,15.596-10.377,24.422
		c-2.306-1.095-4.485-2.274-2.766-5.408C84.864,130.709,89.543,122.215,94.217,113.718z"/>
	<path fill="#F2F3F3" d="M120.52,39.955c0.427,0.025,0.855,0.05,1.282,0.074c1.316,1.596,3.302,2.122,5.033,2.994
		c1.768,0.891,0.992,1.607,0.18,2.496c-0.631,0.649-2.406,0.302-1.783,2.045c-0.226,0.011-0.335,0.047-0.326,0.105
		c-2.018-1.128-3.726,0.598-5.624,0.614c-1.455,0.012-2.942,0.397-4.294-0.482c0.04-3.28-0.103-6.605,2.322-9.289
		c0.777,0.272,1.553,0.543,2.329,0.814C119.933,39.536,120.226,39.745,120.52,39.955z"/>
	<path fill="#D8D3C7" d="M147.821,104.228c6.397-3.913,6.899-10.752,8.385-17.062c0.691-2.932,1.03-5.945,1.567-8.915
		c0.273-1.509,0.67-2.979,2.154-3.82c-0.419,8.25-1.592,16.417-2.957,24.546C156.166,103.764,154.051,104.808,147.821,104.228z"/>
	<path fill="#D8E6EF" d="M120.43,96.584c1.575-4.641,3.272-9.246,4.627-13.95c0.292-1.012,0.841-1.393,1.417-1.969
		c1.151-1.911,2.614-2.525,4.567-1.096c-1.97,5.292-3.971,10.573-5.887,15.884c-0.463,1.283-0.644,2.668-0.954,4.006
		C121.984,99.757,121.381,97.942,120.43,96.584z"/>
	<path fill="#D8E6EF" d="M109.683,93.93c0.629-6.191,2.763-11.988,4.718-17.827c0.172-0.514,0.863-0.854,1.313-1.275
		c0.903,0.07,1.764,0.245,2.413,0.956c0.149,2.331-0.802,4.413-1.573,6.509c-1.602,4.357-2.387,8.885-3.041,13.448
		C112.072,95.485,110.643,95.202,109.683,93.93z"/>
	<path fill="#84AB9C" d="M43.329,71.307c-2.183,0.749-4.616,2.259-5.233-1.729c2.815-1.792,1.703-4.665,1.829-7.113
		c0.191-3.695-0.121-7.471,3.504-9.909c0.196-0.132,0.466-0.153,0.701-0.225c1.765,3.186,0.964,6.463,0.371,9.745
		C43.949,65.131,43.201,68.164,43.329,71.307z"/>
	<path fill="#AB9F84" d="M153.197,107.98c-0.033,0.243-0.062,0.486-0.087,0.73c-4.321,2.743-8.859,3.867-13.959,2.375
		c-4.097-1.199-8.171-2.433-12.118-4.063c1.983-1.338,4.038-1.617,6.412-0.982C139.907,107.77,146.498,108.499,153.197,107.98z"/>
	<path fill="#AB9F84" d="M44.129,97.311c2.709,1.852,5.404,3.725,8.134,5.544c0.849,0.565,1.868,0.934,1.561,2.264
		c-0.429,0.182-1.282,0.389-0.712,0.919c1.164,1.083,0.338,1.868-0.266,2.512c-0.797,0.85-1.613,0.025-2.354-0.364
		c-2.669-1.4-5.264-2.959-8.004-4.2c-2.598-1.176-2.745-2.423-0.679-4.24C42.649,99.008,43.36,98.127,44.129,97.311z"/>
	<path fill="#AB9F84" d="M151.767,144.53c4.592,0.033,9.183,0.066,13.775,0.099c0.126,2.719-2.799,3.09-4.052,3.81
		c-2.179,1.253-1.885,2.83-2.3,4.464c-2.379-0.927-4.814-1.581-7.397-1.506C151.784,149.108,151.775,146.819,151.767,144.53z"/>
	<path fill="#8C8078" d="M66.152,168.114c0.4,0.265,0.767,0.661,1.207,0.772c1.903,0.482,4.63,0.748,4.647,2.855
		c0.019,2.359-0.728,5.155-3.517,6.379c-6.919-0.246-6.928-0.251-4.168-6.376C64.878,170.51,65.539,169.323,66.152,168.114z"/>
	<path fill="#AB9F84" d="M80.656,110.877c0.794,2.84,3.094,1.656,4.638,1.399c1.649-0.274,3.126-0.657,4.634,0.272
		c-0.816,1.941-1.27,4.885-3.268,5.141c-3.018,0.387-6.208-0.533-9.317-0.955c-0.244-0.033-0.427-0.517-0.638-0.791
		C78.679,114.767,77.28,110.961,80.656,110.877z"/>
	<path fill="#8C8078" d="M123.46,173.621c-0.004,0.126,0.006,0.254-0.014,0.378c-0.801,5.019-3.073,10.364,3.081,13.833
		c-1.615-0.192-3.227-0.507-4.846-0.551c-3.243-0.088-4.203-1.577-3.065-4.549c0.558-2.566,1.116-5.133,1.675-7.699
		C120.774,173.277,121.923,173.014,123.46,173.621z"/>
	<path fill="#84AB9C" d="M28.816,68.219c0.149,4.8,4.257,8.872,10.09,10.003c-0.059,0.5-0.117,0.999-0.176,1.499
		c-0.227,0.336-0.455,0.672-0.682,1.009c-3.734,0.222-11.282-4.802-11.955-8.091C25.642,70.433,27.06,69.173,28.816,68.219z"/>
	<path fill="#D8D3C7" d="M43.329,71.307c-0.128-3.143,0.62-6.176,1.172-9.231c0.593-3.282,1.394-6.558-0.371-9.745
		c2.959-0.717,3.026,1.548,3.247,3.346c0.511,4.164-0.33,8.249-1.157,12.298c-0.43,2.105-0.672,4.2-0.698,6.334
		C44.039,73.857,44.417,72.047,43.329,71.307z"/>
	<path fill="#9A8E70" d="M151.792,151.398c2.583-0.075,5.018,0.579,7.397,1.506c-0.192,1.769,3.01,1.302,2.255,2.89
		c-0.714,1.5-2.733,0.793-4.192,0.963c-2.24,0.261-4.486,0.467-7.203,0.744C150.705,155.208,151.248,153.303,151.792,151.398z"/>
	<path fill="#D8D3C7" d="M171.643,68.468c-0.053-1.769-0.02-3.546-0.174-5.307c-0.52-5.951-2.906-7.803-10.066-7.925
		c0.406-1.988,1.981-2.842,3.629-2.618c4.05,0.55,6.317,3.527,7.809,6.978C174.169,62.671,175.038,65.922,171.643,68.468z"/>
	<path fill="#AB9F84" d="M152.403,116.981c0.001-1.756,0.578-3.245,2.614-2.777c1.954,0.45,1.25,2.286,1.055,3.529
		c-0.605,3.859-1.399,7.689-2.119,11.53c-2.664,0.496-3.505-0.537-2.645-3.09c0.602-1.788,1.227-3.579,1.652-5.412
		C153.253,119.491,153.8,118.056,152.403,116.981z"/>
	<path fill="#A79A93" d="M74.525,163.755c2.238-5.733,5.505-11.097,6.232-17.373c2.026,0.784,2.568,1.939,1.582,4.089
		c-1.521,3.314-2.636,6.813-4.052,10.179c-0.483,1.149-0.442,1.622,0.893,1.539c-0.006,0.929-0.392,1.632-1.23,2.065
		C76.77,164.36,75.571,164.583,74.525,163.755z"/>
	<path fill="#84AB9C" d="M34.155,82.838c0.847,0.097,1.551,0.486,1.331,1.412c-0.217,0.909-0.945,1.452-1.952,1.517
		c-3.808,0.246-7.344-0.571-10.291-3.054c-1.676-1.413-1.657-3.331-0.636-5.181c0.692-1.255,1.565-1.685,2.503-0.167
		c-1.531,1.393-0.846,2.663,0.275,3.833C27.904,83.828,30.871,84.218,34.155,82.838z"/>
	<path fill="#A79A93" d="M172.996,43.09c0.391,1.726-0.712,1.893-1.95,1.797c-3.117-0.243-6.232-0.52-9.22-1.553
		c-3.021-1.045-3.48-2.61-1.011-4.802c0.25,0.701,0.857,0.792,1.475,0.865c2.805,2.725,6.638,2.592,10.053,3.621
		C172.564,43.016,172.782,43.04,172.996,43.09z"/>
	<path fill="#D8D3C7" d="M167.641,146.787c0.87-0.675,1.74-1.35,2.635-2.045c3.118,6.689,2.624,9.214-1.902,10.196
		c-0.177-0.455-0.354-0.909-0.531-1.364C167.776,151.312,167.708,149.049,167.641,146.787z"/>
	<path fill="#84AB9C" d="M31.047,98.82c-2.802-0.343-4.942-0.477-6.871-1.53c-0.901-0.492-1.193-1.271-0.928-2.214
		c0.287-1.02,1.132-0.769,1.851-0.66c1.982,0.301,3.975,0.562,5.934,0.977c1.059,0.224,3.015-0.489,2.832,1.414
		C33.697,98.574,32.046,99.003,31.047,98.82z"/>
	<path fill="#84AB9C" d="M27.952,92.118c-1.992-0.249-3.942-0.698-5.699-1.681c-1.445-0.809-2.273-2.125-1.542-3.749
		c0.936-2.08,2.293-0.52,3.419-0.11c0.919,0.335,1.753,0.904,2.624,1.37c-0.365,2.633,3.053,0.66,3.223,2.64
		C29.299,91.1,28.626,91.609,27.952,92.118z"/>
	<path fill="#D8D3C7" d="M143.276,134.617c-4.259,0.656-7.424-2.611-11.344-3.167c-0.522-0.658-1.574-0.902-1.551-1.985
		c3.318,0.727,6.628,1.487,9.955,2.168C142.03,131.978,142.891,133.037,143.276,134.617z"/>
	<path fill="#D8E6EF" d="M117.311,38.513c-2.425,2.684-2.281,6.009-2.322,9.289c-2.993,0.18-4.28-0.739-2.679-3.849
		c0.741-1.44,1.394-3.002,1.682-4.582c0.432-2.368,1.673-2.257,3.349-1.5C117.208,38.079,117.198,38.293,117.311,38.513z"/>
	<path fill="#9CBCB2" d="M34.155,82.838c-3.284,1.38-6.251,0.99-8.77-1.64c-1.121-1.17-1.806-2.44-0.275-3.833
		C27.907,79.55,30.847,81.498,34.155,82.838z"/>
	<path fill="#9CBCB2" d="M27.952,92.118c0.673-0.509,1.347-1.018,2.025-1.53c-0.17-1.98-3.588-0.007-3.223-2.64
		c1.989,0.323,3.973,0.683,5.97,0.954c1.014,0.138,2.179,0.039,2.127,1.503c-0.046,1.299-0.871,2.22-2.137,2.221
		C31.128,92.628,29.444,93.118,27.952,92.118z"/>
	<path fill="#D8D3C7" d="M162.291,39.396c-0.618-0.073-1.225-0.164-1.475-0.865c1.794-1.764,3.812-0.717,5.733-0.397
		c2.605,0.433,5.186,1.01,7.822,1.534c0.277,1.538-1.092,2.265-1.374,3.422c-0.215-0.05-0.432-0.074-0.653-0.072
		c0.14-1.615-0.858-2.205-2.217-2.547C167.551,39.823,165.017,38.925,162.291,39.396z"/>
	<path fill="#A79A93" d="M110.49,34.605c-2.274-0.176-4.477-0.664-6.402-1.922c-1.157-0.756-1.639-2.045-1.186-3.322
		c0.583-1.643,1.756-0.824,2.762-0.348C106.467,31.573,109.892,31.87,110.49,34.605z"/>
	<path fill="#9CBCB2" d="M110.49,34.605c-0.598-2.735-4.023-3.032-4.827-5.593c2.02,0.546,4.041,1.096,6.064,1.64
		c1.145,0.308,2.203,0.626,1.544,2.23C112.745,34.165,112.433,35.663,110.49,34.605z"/>
	<path fill="#8C8078" d="M167.843,153.574c0.177,0.455,0.354,0.909,0.531,1.364c-3.032,1.397-5.471,1.193-6.704-2.425
		c-0.354-1.039-0.113-1.683,0.994-1.926C164.773,150.92,165.354,153.902,167.843,153.574z"/>
	<path fill="#1A1C1C" d="M120.291,175.033c-0.559,2.567-1.118,5.133-1.675,7.699c-0.471-0.035-0.944-0.069-1.417-0.103
		c0.073-0.478,0.146-0.956,0.219-1.434c0.648-1.301-1.345-2.031-1.169-2.073c4.613-1.098,0.183-3.064,0.318-4.981
		c1.233,1.002,2.237,1.258,2.826-0.188C119.692,174.314,119.992,174.673,120.291,175.033z"/>
	<path fill="#A79A93" d="M167.843,153.574c-2.489,0.328-3.07-2.654-5.179-2.987c1.391-1.617,3.124-2.787,4.977-3.8
		C167.708,149.049,167.776,151.312,167.843,153.574z"/>
	<path fill="#9A8E70" d="M118.999,101.847c2.105,0.679,4.012,1.294,6.23,2.009C120.364,107.222,120.149,107.15,118.999,101.847z"/>
	<path fill="#9CBCB2" d="M179.157,43.746c-0.054,1.326-0.613,2.346-1.959,2.31c-1.132-0.031-1.754-1.035-1.742-2.11
		c0.015-1.293,0.554-2.777,1.915-2.764C178.436,41.193,178.94,42.627,179.157,43.746z"/>
	<path fill="#9A8E70" d="M105.189,96.401c1.616,0.768,2.723,1.295,3.883,1.846c-0.81,1.454-1.884,2.252-3.344,2.955
		C104.753,99.825,105.186,98.372,105.189,96.401z"/>
	<path fill="#84AB9C" d="M112.765,103.8c-0.54-1.48-1.539-2.845-0.435-4.008c0.256-0.27,2.076,0.248,2.303,0.778
		C115.32,102.17,113.454,102.687,112.765,103.8z"/>
	<path fill="#C2B89E" d="M148.093,163.488c-0.579,0.056-1.158,0.112-1.737,0.169c-0.013-0.773-0.027-1.547-0.041-2.32
		C147.901,161.233,148.366,162.056,148.093,163.488z"/>
	<path fill="#9CBCB2" d="M38.049,80.73c0.227-0.336,0.455-0.672,0.682-1.009C38.503,80.058,38.276,80.394,38.049,80.73z"/>
	<path fill="#AB9F84" d="M53.84,105.102c0.331-0.064,0.661-0.129,0.992-0.193C54.626,105.616,54.306,105.735,53.84,105.102z"/>
	<path fill="#D8D3C7" d="M170.512,69.287c0.371-0.325,0.742-0.651,1.113-0.977C171.529,68.948,171.061,69.163,170.512,69.287z"/>
	<path fill="#1A1C1C" d="M127.015,45.52c0.812-0.889,1.588-1.606-0.18-2.496c-1.732-0.872-3.717-1.398-5.033-2.994
		c1.07,0.103,2.139,0.206,3.207,0.31c2.907,2.269,6.156,2.933,9.857,2.817c6.56-0.207,13.079,0.752,19.604,1.406
		c1.621,0.163,2.081,0.577,1.876,2.304c-0.918,7.761-9.356,12.627-16.472,9.391c-3.822-1.738-6.946-4.352-8.675-8.149
		c-1.064-2.337-2.192-2.259-3.948-1.178C127.173,46.46,127.094,45.99,127.015,45.52z M135.645,44.738
		c-1.348-0.813-2.758-1.172-4.447-0.56c1.382,3.184,2.888,6.202,5.956,8.104c6.739,5.493,14.287,3.743,17.053-3.897
		c0.516-1.426,0.792-2.347-1.23-2.48C147.199,45.523,141.477,44.321,135.645,44.738z"/>
	<path fill="#1A1C1C" d="M118.127,75.785c-0.649-0.711-1.51-0.886-2.413-0.956c-2.002-0.901-4.005-1.801-6.007-2.701
		c-1.098-0.781-2.196-1.561-3.294-2.342c3.508-0.641,6.052,2.052,9.199,2.659c9.567,3.914,19.482,6.272,29.825,6.842
		c5.028,0.277,5.19,0.41,4.061,5.318c-0.57,2.478,0.422,5.568-2.413,7.321c0.378-2.75,0.582-5.54,1.19-8.238
		c0.483-2.144-0.258-2.737-2.198-2.596c-2.777,0.202-6.058-1.534-7.938,2.083c0.211-1.999-0.016-2.566-1.574-2.871
		c-1.819-0.356-3.681-0.499-5.524-0.734c-1.953-1.429-3.415-0.814-4.567,1.096c0.003-2.049-1.034-3.04-3.048-3.398
		C121.628,76.947,119.891,76.292,118.127,75.785z"/>
	<path fill="#1A1C1C" d="M117.073,69.054c1.859-5.095,3.718-10.191,5.576-15.286c4.83-1.049,6.415,0.196,6.345,4.932
		c-0.065,4.439-0.144,8.879-0.12,13.318c0.011,2.137-0.759,2.734-2.782,1.962c-2.248-0.858-4.548-1.586-6.843-2.317
		C117.936,71.245,116.893,70.681,117.073,69.054z M124.215,71.304c1.082,0.218,2.752,2.081,2.871-0.711
		c0.189-4.42,0.113-8.851,0.101-13.278c-0.002-0.679-0.206-0.659-1.46,0.35c-0.219-0.993,0.632-2.503-1.048-2.8
		c-1.492-0.264-1.341,1.274-1.647,2.073c-1.212,3.165-2.12,6.453-3.446,9.565c-1.051,2.464-0.631,3.746,2.1,4.123
		C122.544,70.745,123.373,71.072,124.215,71.304z"/>
	<path fill="#1A1C1C" d="M165.163,64.555c-1.301,0.219-0.966,2.564-2.543,1.856c-1.12-0.503-1.16-1.864-1.19-3.029
		c-0.068-2.657,0.828-4.696,3.689-5.639c0.808,1.453-1.064,2.172-0.821,3.4c4.216,1.606,4.84,3.24,2.198,6.404
		C166.023,66.484,165.582,65.494,165.163,64.555z"/>
	<path fill="#0D0D0D" d="M127.015,45.52c0.079,0.47,0.157,0.94,0.236,1.41c-0.566,0.55-1.103,1.193-2.018,0.635
		C124.61,45.822,126.384,46.169,127.015,45.52z"/>
	<path fill="#C2B89E" d="M119.393,173.954c-0.589,1.446-1.593,1.19-2.826,0.188c-0.135,1.917,4.295,3.883-0.318,4.981
		c-0.176,0.042,1.817,0.772,1.169,2.073c-9.715-1.047-18.951-4.25-28.438-6.324c-1.009-0.221-1.313-1.104-1.387-2.053
		c4.859-11.703,8.619-23.802,12.903-35.713c1.16-3.226,3.032-4.191,6.344-2.958c2.749,1.023,5.804,1.712,7.15,4.851
		c0.343,0.069,0.686,0.138,1.028,0.207c0.295,5.668-0.328,11.336,0.671,17.026c1.028,5.857,1.5,7.343,7.602,7.832
		c7.649,0.614,15.4,1.029,23.062-0.404c-0.436,4.69,0.852,9.475-0.769,14.1c-0.361-0.157-0.722-0.314-1.083-0.471
		c-0.516-0.337,0.812-1.288-0.457-1.375c-1.248,0.292-2.291-0.094-3.493-0.555c-1.484-0.57-3.195-1.587-4.911-0.347l0.048,0.03
		c0.83-0.284,0.489-0.892,0.397-1.432c0.328-0.428,0.467-1.095-0.031-1.211c-0.66-0.155-0.881,0.605-1.091,1.154
		c-0.572,0.385-1.912,0.127-1.276,1.523c-0.23,0.007-0.46,0.013-0.69,0.02c0.726-2.601-1.887-1.422-2.649-2.34
		c-0.134-0.335-0.269-0.67-0.403-1.005c-0.187,0.319-0.374,0.638-0.561,0.957c-1.301-0.334-2.736-1.186-3.874-0.89
		C123.446,172.352,120.249,170.027,119.393,173.954z"/>
	<path fill="#0D0D0D" d="M135.641,175.011c1.716-1.241,3.427-0.224,4.911,0.347c1.202,0.462,2.244,0.848,3.493,0.555
		c0.152,0.458,0.305,0.917,0.457,1.375c0.361,0.157,0.722,0.314,1.083,0.471c0.395,0.46,2.259,0.221,1.066,1.355
		c-1.436,1.366-1.317,2.778-1.108,4.377c-0.004,0.399-0.008,0.798-0.011,1.196c-1.236,0.938-1.124,1.86-0.306,3.13
		c0.701,1.09-0.096,1.341-1.096,1.019c-2.691-0.548-0.685-2.357-0.923-3.55c-0.485-2.434,2.374-5.034-0.344-7.383
		c0.012-0.23,0.022-0.458,0.031-0.686c-0.086,0.205-0.173,0.409-0.259,0.614C140.374,176.72,137.577,176.933,135.641,175.011z"/>
	<path fill="#0D0D0D" d="M119.393,173.954c0.856-3.926,4.053-1.601,6.119-2.137c1.138-0.295,2.573,0.556,3.874,0.89
		c0.321,0.016,0.642,0.032,0.964,0.048c0.762,0.918,3.375-0.261,2.649,2.34c-3.147-0.704-6.266-1.585-9.538-1.474
		c-1.537-0.608-2.685-0.344-3.168,1.412C119.992,174.673,119.692,174.314,119.393,173.954z"/>
	<path fill="#0D0D0D" d="M136.086,173.609c0.091,0.539,0.433,1.148-0.397,1.432c-0.659,0.455-1.331,0.203-2.001,0.034
		c-0.636-1.396,0.704-1.139,1.276-1.523C135.338,173.571,135.712,173.59,136.086,173.609z"/>
	<path fill="#1A1C1C" d="M142.636,177.832c0.086-0.205,0.172-0.409,0.259-0.614c-0.01,0.228-0.02,0.456-0.031,0.686
		C142.861,177.905,142.636,177.832,142.636,177.832z"/>
	<path fill="#0D0D0D" d="M37.88,73.713c-0.151-0.165-0.302-0.33-0.453-0.495c0.315-0.03,0.629-0.059,0.945-0.09
		C38.208,73.321,38.044,73.517,37.88,73.713z"/>
	<path fill="#A79A93" d="M111.243,115.631c3.921,0.071,4.822,1.95,3.747,5.582c-0.923,3.122-1.52,6.377-1.887,9.615
		c-0.354,3.124-1.38,4.312-4.414,2.596c-0.866-0.49-1.852-0.768-2.784-1.143c-0.159-1.567,0.628-2.91,1.068-4.325
		C108.265,123.804,110.41,119.945,111.243,115.631z"/>
	<path fill="#8C8078" d="M111.243,115.631c-0.833,4.314-2.979,8.173-4.269,12.326c-0.44,1.416-1.227,2.758-1.068,4.325
		c-2.586-0.129-3.695-0.966-2.451-3.808c1.675-3.825,3.068-7.782,4.406-11.741C108.576,114.619,109.656,114.586,111.243,115.631z"/>
	<path fill="#D8E6EF" d="M120.52,39.955c-0.293-0.209-0.587-0.419-0.879-0.628C119.934,39.537,120.227,39.746,120.52,39.955z"/>
	<path fill="#1A1C1C" d="M145.532,184.687c0.004-0.399,0.008-0.798,0.011-1.196c0.668,0.074,1.381,0.326,1.256,1.058
		C146.723,184.997,146.006,184.969,145.532,184.687z"/>
	<path fill="#9CBCB2" d="M162.291,39.396c2.726-0.471,5.261,0.427,7.836,1.075c1.359,0.342,2.357,0.932,2.217,2.547
		C168.929,41.988,165.095,42.121,162.291,39.396z"/>
	<path fill="#F2F3F3" d="M135.645,44.738c5.833-0.416,11.554,0.785,17.332,1.167c2.021,0.133,1.746,1.055,1.23,2.48
		c-2.766,7.64-10.314,9.389-17.053,3.897C137.241,49.649,135.271,47.428,135.645,44.738z"/>
	<path fill="#D8E6EF" d="M135.645,44.738c-0.374,2.69,1.597,4.911,1.509,7.544c-3.068-1.902-4.574-4.92-5.956-8.104
		C132.886,43.566,134.297,43.925,135.645,44.738z"/>
	<path fill="#84AB9C" d="M124.215,71.304c-0.842-0.232-1.671-0.559-2.529-0.678c-2.731-0.377-3.151-1.658-2.1-4.123
		c1.327-3.112,2.234-6.4,3.446-9.565c0.306-0.799,0.155-2.337,1.647-2.073c1.68,0.297,0.828,1.807,1.047,2.8
		C125.345,62.226,123.434,66.616,124.215,71.304z"/>
	<path fill="#D8D3C7" d="M124.215,71.304c-0.781-4.688,1.13-9.078,1.512-13.638c1.254-1.01,1.458-1.03,1.46-0.351
		c0.013,4.426,0.088,8.858-0.101,13.278C126.967,73.385,125.297,71.522,124.215,71.304z"/>
	<path fill="#1A1C1C" d="M136.086,173.609c-0.374-0.019-0.748-0.038-1.123-0.057c0.21-0.549,0.431-1.309,1.091-1.154
		C136.553,172.515,136.414,173.181,136.086,173.609z"/>
	<path fill="#1A1C1C" d="M144.502,177.287c-0.152-0.458-0.305-0.917-0.457-1.375C145.313,176,143.985,176.95,144.502,177.287z"/>
	<path fill="#1A1C1C" d="M130.349,172.755c-0.321-0.016-0.642-0.032-0.964-0.048c0.187-0.319,0.374-0.638,0.561-0.957
		C130.08,172.085,130.214,172.42,130.349,172.755z"/>
</g>
</svg>
