<?xml version="1.0" encoding="utf-8"?>
<!-- Generator: Adobe Illustrator 17.0.0, SVG Export Plug-In . SVG Version: 6.00 Build 0)  -->
<!DOCTYPE svg PUBLIC "-//W3C//DTD SVG 1.1//EN" "http://www.w3.org/Graphics/SVG/1.1/DTD/svg11.dtd">
<svg version="1.1" id="Layer_1" xmlns="http://www.w3.org/2000/svg" xmlns:xlink="http://www.w3.org/1999/xlink" x="0px" y="0px"
	 width="200px" height="200px" viewBox="0 0 200 200" enable-background="new 0 0 200 200" xml:space="preserve">
<g>
	<path fill="#090807" d="M104.827,198.068c-18.355,0-36.711,0.012-55.066-0.004c-10.754-0.01-16.878-7.21-13.896-17.486
		c1.908-6.575,2.995-12.116-2.056-17.901c-2.526-2.893-2.715-7.303-2.699-11.33c0.036-9.177-0.034-18.356,0.04-27.533
		c0.016-2.046-0.761-3.08-2.309-4.572c-4.965-4.787-10.542-8.36-16.579-11.637c-4.394-2.385-6.31-7.205-6.502-12.347
		c-0.105-2.8-0.135-5.613,0.016-8.409c0.425-7.88,6.352-14.625,14.182-15.737c4.017-0.57,5.744-3.28,6.381-6.449
		c1.672-8.311,4.238-16.243,8.42-23.613c0.845-1.489,0.856-2.719,0.276-4.276c-1.242-3.335-2.374-6.72-3.359-10.14
		c-1.729-6.006-0.449-11.412,3.955-15.845c4.389-4.417,10.033-6.495,15.727-4.008c8.844,3.863,16.588,2.975,25.603-0.449
		c18.811-7.143,37.804-5.291,56.015,3.319c2.13,1.007,3.942,1.179,6.133,0.311c3.189-1.263,6.48-2.288,9.774-3.26
		c6.017-1.775,11.413-0.462,15.854,3.917c4.429,4.367,6.508,9.977,4.061,15.712c-3.487,8.175-3.458,15.399,1.34,23.115
		c2.924,4.702,3.781,10.511,4.62,16.062c0.493,3.262,1.769,5.118,5.38,5.638c7.792,1.124,13.659,7.947,14.038,15.865
		c0.35,7.319,0.639,14.653-5.658,20.138c-1.365,1.189-0.077,2.394,0.259,3.492c4.712,15.408,4.486,30.646-1.652,45.626
		c-2.701,6.592-6.643,12.355-12.813,16.226c-1.446,0.908-1.696,1.959-1.666,3.456c0.073,3.568,0.073,7.139,0.009,10.707
		c-0.125,6.956-4.588,11.369-11.616,11.383c-18.738,0.037-37.475,0.013-56.213,0.013
		C104.827,198.059,104.827,198.063,104.827,198.068z M141.321,158.412c-3.435-0.054-6.874-0.238-10.303-0.127
		c-3.575,0.115-5.908,2.246-5.968,5.648c-0.137,7.767-0.115,15.539-0.016,23.307c0.041,3.227,1.991,4.843,5.174,4.85
		c3.435,0.008,6.869-0.094,10.304-0.147c6.999,0.076,13.999,0.202,20.998,0.205c3.378,0.001,5.231-1.878,5.264-5.234
		c0.075-7.514,0.112-15.031-0.01-22.544c-0.06-3.714-2.309-6.034-5.968-6.09C154.306,158.181,147.813,158.353,141.321,158.412z
		 M92.156,24.971l0.036-0.046c-22.73,1.568-44.68,21.306-50.581,45.212c-0.791,3.206,0.16,5.168,2.529,6.85
		c4.644,3.298,9.882,3.744,15.334,3.045c14.91-1.715,26.709-9.297,36.996-19.684c3.514-3.548,4.11-3.569,7.584-0.005
		c9.753,10.006,21.123,17.202,35.108,19.532c6,1,11.988,0.883,17.244-2.911c2.456-1.773,3.585-3.811,2.672-7.18
		c-2.796-10.312-7.66-19.396-15.108-27.028c-1.863-1.909-2.649-3.65-1.195-6.033c2.23-0.575,3.842,0.289,5.382,1.923
		c6.013,6.383,10.811,13.54,13.83,21.779c1.079,2.944,3.571,2.61,5.325,2.192c1.823-0.434,0.365-2.394,0.057-3.568
		c-7.646-29.223-35.003-50.477-65.502-50.954c-31.045-0.486-58.933,19.57-67.62,48.665c-0.556,1.863-1.34,3.723-1.225,5.702
		c3.492,0.749,5.094-0.49,6.446-3.66C46.879,41.416,59.495,29.13,77.24,22.59c20.411-7.522,40.026-5.297,58.608,6.024
		c2.118,1.29,3.854,2.675,2.229,5.463c-2.049,1.664-3.722,0.453-5.479-0.644c-11.655-7.279-24.307-10.345-38.009-8.899
		C93.737,24.451,92.879,24.334,92.156,24.971z M54.625,152.19c1.286,2.198,0.158,3.757-1.24,5.417
		c-6.085,7.222-10.135,15.491-12.195,24.694c-1.275,5.694,1.439,9.758,6.83,9.911c6.341,0.18,12.695-0.073,19.043-0.139
		c17.086,0.356,34.171,0.39,51.257-0.015c0.461,0.099,0.979,0.47,1.349-0.092c0.434-0.658-0.022-1.152-0.429-1.626
		c-0.07-8.405-0.207-16.811-0.192-25.216c0.014-7.776,4.812-12.559,12.628-12.756c2.096-0.053,4.194-0.008,7.183-0.008
		c-4.437-4.087-8.549-6.954-13.039-9.279c-3.235-1.675-4.845-0.844-5.488,2.694c-1.996,10.978-10.51,17.926-21.28,17.21
		c-8.177-0.544-13.525-5.231-17.21-12.193c-0.31-1.232-0.673-2.453-0.919-3.697c-1.052-5.315-4.154-6.761-9.118-4.252
		c-2.963,1.497-5.811,3.185-8.403,5.253c-1.783,1.423-3.429,1.454-5.137-0.017c-0.765-1.985-0.08-3.447,1.618-4.57
		c2.818-1.865,5.624-3.746,8.593-5.725c-2.012-1.486-3.997-2.842-5.854-4.356c-1.871-1.525-4.145-2.892-5.317-4.875
		c-4.137-7.001-10.411-7.808-17.579-7.068c-1.988,0.205-2.892,0.446-2.861,2.72c0.127,9.287,0.023,18.576,0.095,27.864
		c0.035,4.553,1.476,8.637,4.682,12.303c2.529-3.882,4.877-7.641,7.748-11.035C50.918,151.528,52.481,150.759,54.625,152.19z
		 M87.733,139.161c32.298,8.601,67.156-16.118,67.709-52.546c0.035-2.305-0.986-2.105-2.543-1.654
		c-3.837,1.112-7.748,1.393-11.725,0.973c-14.94-1.578-27.306-8.537-38.096-18.538c-2.225-2.062-3.197-2.225-5.563-0.081
		C84.38,79.215,69.575,87.252,51.079,85.889c-0.737-0.178-1.528-0.242-2.203-0.554c-3.417-1.581-3.64,0.217-3.488,2.986
		c0.316,5.756,1.259,11.386,3.425,16.713C56.072,122.884,68.678,134.722,87.733,139.161z M130.423,138.736
		c2.827,1.996,5.96,3.371,7.893,5.729c6.031,7.359,13.747,9.067,22.606,7.91c0.124-0.016,0.259-0.006,0.379,0.026
		c1.943,0.511,2.36-0.401,2.335-2.182c-0.082-5.849-0.027-11.7-0.027-17.55c0.001-12.397-0.283-12.632-12.656-11.136
		c-0.962,0.116-1.645,0.385-2.237,1.16C143.74,129.213,137.636,134.486,130.423,138.736z M172.752,166.673
		c4.225-3.592,6.783-7.33,8.626-11.551c5.778-13.234,6.263-26.836,2.509-40.65c-0.342-1.258-0.059-3.564-2.133-3.464
		c-1.864,0.09-3.973,0.214-4.961,2.676c-0.906,2.258-2.696,4.131-4.883,5.196c-2.25,1.095-2.508,2.68-2.497,4.882
		c0.049,10.176-0.052,20.352-0.144,30.528c-0.007,0.781-0.138,1.57,0.405,2.168C172.105,159.141,172.749,162.425,172.752,166.673z
		 M47.373,115.729c-5.777-10.773-8.323-21.638-7.735-33.191c0.055-1.074-0.116-1.969-0.954-2.736
		c-2.758-2.521-3.85-5.628-3.002-9.302c0.452-1.957-0.37-2.171-2-1.776c-3.691,0.894-6.841,4.645-6.916,9.079
		c-0.16,9.407-0.186,18.821-0.009,28.227c0.107,5.692,4.007,9.418,9.725,9.671C39.898,115.852,43.325,115.729,47.373,115.729z
		 M165.015,68.796c0.162,2.893,1.109,6.213-1.132,8.357c-3.02,2.889-2.757,6.241-2.73,9.774c0.016,2.027-0.189,4.063-0.401,6.084
		c-0.829,7.911-3.46,15.28-7.276,22.703c3.7,0,6.986,0.144,10.253-0.032c5.483-0.296,9.331-4.024,9.444-9.555
		c0.193-9.41,0.179-18.83,0-28.241C173.076,72.819,170.002,69.619,165.015,68.796z M114.524,145.147
		c-4.86,0.732-9.341,1.499-13.898,1.548c-4.671,0.049-9.254-0.87-13.94-1.359c1.238,7.065,6.608,11.802,13.404,12.037
		C107.012,157.612,112.628,153.026,114.524,145.147z M21.037,91.209c0-3.678,0.013-7.357-0.004-11.035
		c-0.016-3.557-0.726-3.968-3.845-2.106c-5.007,2.989-5.909,7.731-5.9,13.118c0.009,5.384,0.915,10.107,5.937,13.096
		c0.433,0.258,0.917,0.429,1.367,0.661c1.711,0.881,2.523,0.574,2.472-1.557C20.968,99.329,21.036,95.268,21.037,91.209z
		 M178.9,91.313c0,3.805,0.109,7.614-0.039,11.413c-0.097,2.488,0.513,3.297,2.94,2.051c4.993-2.564,6.746-6.763,6.829-12.17
		c0.094-6.097-0.359-11.755-6.648-14.936c-2.052-1.038-3.253-1.071-3.124,1.849C179.033,83.444,178.902,87.382,178.9,91.313z
		 M58.502,15.022c-6.786-2.087-12.83-6.124-18.747-0.204c-5.785,5.788-1.999,11.723,0.109,18.04
		C45.182,26.03,50.991,20.218,58.502,15.022z M160.813,32.456c2.368-6.62,5.538-12.649-0.596-18.181
		c-4.052-3.654-9.683-3.301-17.3,0.999C149.676,19.986,155.512,25.566,160.813,32.456z"/>
	<path fill="#FCEBE2" d="M51.079,85.889c18.496,1.363,33.301-6.673,46.436-18.574c2.366-2.144,3.338-1.981,5.563,0.081
		c10.791,10.001,23.156,16.96,38.096,18.538c3.977,0.42,7.888,0.139,11.725-0.973c1.557-0.451,2.578-0.65,2.543,1.654
		c-0.553,36.428-35.411,61.146-67.709,52.546c-0.002-1.352-1.011-1.86-1.945-2.57c-7.53-5.733-13.732-12.614-17.955-21.162
		c11.511-0.841,15.26-7.097,9.724-16.223c1.532-2.299,0.914-4.879,0.82-7.34c-0.058-1.517-1.154-2.492-2.786-2.514
		c-1.656-0.023-2.621,0.975-2.833,2.485c-0.243,1.732-0.206,3.503-0.291,5.258c-4.094-1.369-7.808,0.056-11.511,1.567
		c-0.585-2.922-1.648-5.779-1.51-8.805c0.1-2.197-0.925-2.69-2.926-2.799C54.695,86.96,52.452,88.223,51.079,85.889z
		 M123.705,99.398c-4.39,5.426-4.179,9.297,0.731,13.374c4.612,3.83,13.377,3.134,17.38-1.379c3.29-3.71,2.745-8.996-1.19-11.981
		c-3.683-2.795-7.735-3.553-12.179-2.374c-0.061-1.773,0.014-3.564-0.225-5.312c-0.213-1.553-1.293-2.446-2.939-2.368
		c-1.463,0.069-2.49,0.911-2.544,2.336C122.642,94.294,121.88,97.024,123.705,99.398z M100.579,102.596
		c3.229,0.054,5.935-1.179,8.189-3.42c1.187-1.18,1.754-2.587,0.543-4.056c-1.282-1.554-2.831-1.6-4.303-0.258
		c-3.083,2.809-6.058,2.679-9.099-0.084c-1.319-1.199-2.832-1.212-4.045,0.146c-1.376,1.539-0.854,3.035,0.492,4.337
		C94.646,101.477,97.364,102.658,100.579,102.596z"/>
	<path fill="#FAE19E" d="M94.588,24.534c13.703-1.446,26.354,1.62,38.009,8.899c1.757,1.097,3.43,2.308,5.479,0.644
		c1.92,0.252,2.689,2.55,4.698,2.645c-1.454,2.383-0.667,4.124,1.195,6.033c7.448,7.632,12.312,16.716,15.108,27.028
		c0.914,3.369-0.216,5.407-2.672,7.18c-5.256,3.794-11.243,3.911-17.244,2.911c-13.985-2.33-25.355-9.526-35.108-19.532
		c-3.474-3.564-4.07-3.543-7.584,0.005C86.182,70.735,74.383,78.318,59.473,80.033c-0.318-2.812,0.21-5.555,0.723-8.29
		c2.952-15.755,10.41-28.882,22.692-39.285c3.049-2.583,6.874-4.199,9.303-7.532l-0.035,0.046
		C93.048,25.272,93.892,25.313,94.588,24.534z"/>
	<path fill="#EDEDED" d="M81.842,150.792c3.685,6.962,9.033,11.649,17.21,12.193c10.77,0.716,19.283-6.232,21.28-17.21
		c0.643-3.538,2.254-4.369,5.488-2.694c4.49,2.326,8.602,5.193,13.039,9.279c-2.99,0-5.088-0.045-7.183,0.008
		c-7.816,0.197-12.614,4.98-12.628,12.756c-0.015,8.405,0.122,16.811,0.192,25.216c-0.717,0.352-0.905,0.989-0.92,1.717
		c-17.085,0.405-34.171,0.371-51.257,0.015c-0.827-2.863-2.868-5.512-2.1-8.668c2.141-8.799,5.247-17.155,10.816-24.508
		C77.811,156.214,80.625,154.084,81.842,150.792z"/>
	<path fill="#828283" d="M142.774,36.723c-2.009-0.095-2.777-2.393-4.698-2.645c1.625-2.788-0.111-4.173-2.228-5.463
		C117.266,17.293,97.651,15.068,77.24,22.59c-17.745,6.54-30.36,18.826-37.773,36.211c-1.352,3.17-2.954,4.409-6.446,3.66
		c-0.116-1.979,0.669-3.839,1.225-5.702c8.687-29.095,36.575-49.151,67.62-48.665c30.499,0.477,57.856,21.731,65.502,50.954
		c0.307,1.174,1.765,3.134-0.057,3.568c-1.755,0.418-4.247,0.753-5.325-2.192c-3.018-8.239-7.817-15.396-13.83-21.779
		C146.617,37.012,145.005,36.148,142.774,36.723z"/>
	<path fill="#E3E3E3" d="M81.842,150.792c-1.217,3.293-4.031,5.422-6.063,8.105c-5.569,7.353-8.675,15.709-10.816,24.508
		c-0.768,3.156,1.273,5.804,2.1,8.668c-6.348,0.065-12.702,0.318-19.043,0.139c-5.39-0.153-8.104-4.217-6.83-9.911
		c2.06-9.204,6.11-17.473,12.195-24.694c1.398-1.66,2.526-3.218,1.241-5.416c1.213-1.37,2.426-2.741,3.639-4.113
		c1.708,1.472,3.354,1.44,5.137,0.017c2.592-2.068,5.44-3.756,8.403-5.253c4.964-2.509,8.066-1.063,9.118,4.252
		C81.168,148.339,81.532,149.56,81.842,150.792z"/>
	<path fill="#F6CE6F" d="M92.192,24.925c-2.429,3.333-6.254,4.949-9.303,7.532c-12.282,10.403-19.74,23.53-22.692,39.285
		c-0.513,2.736-1.041,5.478-0.723,8.29c-5.452,0.698-10.69,0.253-15.334-3.045c-2.368-1.682-3.32-3.644-2.529-6.85
		C47.511,46.231,69.462,26.493,92.192,24.925z"/>
	<path fill="#F6CE6F" d="M58.265,148.078c-1.213,1.371-2.425,2.742-3.639,4.113c-2.145-1.432-3.708-0.663-5.237,1.145
		c-2.871,3.394-5.219,7.153-7.748,11.035c-3.206-3.665-4.646-7.75-4.682-12.303c-0.072-9.288,0.032-18.577-0.095-27.864
		c-0.031-2.274,0.874-2.515,2.861-2.72c7.169-0.74,13.442,0.068,17.579,7.068c1.172,1.983,3.446,3.35,5.317,4.875
		c1.857,1.513,3.842,2.869,5.854,4.356c-2.969,1.98-5.776,3.861-8.593,5.725C58.185,144.631,57.499,146.093,58.265,148.078z"/>
	<path fill="#F6CE6F" d="M130.423,138.736c7.212-4.25,13.317-9.523,18.294-16.044c0.592-0.775,1.275-1.044,2.237-1.16
		c12.374-1.496,12.657-1.261,12.656,11.136c0,5.85-0.055,11.701,0.027,17.55c0.025,1.781-0.392,2.693-2.335,2.182
		c-0.121-0.032-0.256-0.042-0.379-0.026c-8.859,1.157-16.575-0.55-22.606-7.91C136.383,142.107,133.25,140.732,130.423,138.736z"/>
	<path fill="#838384" d="M141.321,158.412c6.492-0.059,12.985-0.231,19.474-0.133c3.66,0.056,5.908,2.375,5.968,6.09
		c0.122,7.513,0.085,15.03,0.01,22.544c-0.033,3.356-1.886,5.235-5.264,5.234c-6.999-0.003-13.999-0.129-20.998-0.205
		c-1.516-8.059-0.417-16.202-0.79-24.297C139.573,164.428,139.861,161.329,141.321,158.412z M162.747,171.665
		c0.069-4.84-3.825-8.77-8.663-8.745c-4.582,0.024-8.499,3.918-8.575,8.524c-0.075,4.547,3.806,8.633,8.347,8.786
		C158.625,180.391,162.679,176.486,162.747,171.665z"/>
	<path fill="#F7AEA2" d="M47.373,115.729c-4.048,0-7.476,0.123-10.891-0.028c-5.718-0.253-9.618-3.979-9.725-9.671
		c-0.178-9.406-0.151-18.82,0.009-28.227c0.075-4.435,3.225-8.186,6.916-9.079c1.63-0.395,2.453-0.18,2,1.776
		c-0.849,3.674,0.244,6.781,3.002,9.302c0.839,0.767,1.009,1.662,0.954,2.736C39.05,94.091,41.596,104.956,47.373,115.729z"/>
	<path fill="#FADACB" d="M67.833,115.429c4.223,8.549,10.426,15.429,17.955,21.162c0.933,0.71,1.942,1.218,1.945,2.57
		c-19.055-4.439-31.661-16.277-38.919-34.127c-2.166-5.327-3.109-10.957-3.425-16.713c-0.152-2.769,0.071-4.567,3.488-2.986
		c0.675,0.312,1.465,0.376,2.203,0.554c1.373,2.334,3.616,1.071,5.44,1.17c2.001,0.108,3.026,0.602,2.926,2.799
		c-0.137,3.025,0.925,5.882,1.51,8.804c-5.26,6.272-5.1,10.355,0.52,14.581C63.375,114.67,65.688,114.778,67.833,115.429z"/>
	<path fill="#F7AEA2" d="M165.015,68.796c4.987,0.823,8.062,4.023,8.158,9.089c0.179,9.411,0.194,18.831,0,28.241
		c-0.114,5.531-3.961,9.259-9.444,9.555c-3.268,0.177-6.553,0.032-10.253,0.032c3.816-7.422,6.447-14.791,7.276-22.703
		c0.212-2.021,0.416-4.057,0.401-6.084c-0.027-3.533-0.29-6.885,2.73-9.774C166.123,75.009,165.177,71.689,165.015,68.796z"/>
	<path fill="#646465" d="M141.321,158.412c-1.461,2.917-1.748,6.015-1.6,9.233c0.373,8.095-0.726,16.238,0.79,24.297
		c-3.435,0.054-6.869,0.155-10.304,0.147c-3.182-0.007-5.133-1.623-5.174-4.85c-0.099-7.768-0.121-15.54,0.016-23.307
		c0.06-3.402,2.394-5.533,5.968-5.648C134.448,158.174,137.886,158.358,141.321,158.412z"/>
	<path fill="#F6C7B8" d="M114.524,145.147c-1.895,7.879-7.511,12.465-14.435,12.226c-6.795-0.235-12.165-4.972-13.404-12.037
		c4.686,0.489,9.269,1.408,13.94,1.359C105.183,146.646,109.663,145.878,114.524,145.147z"/>
	<path fill="#EF8373" d="M21.037,91.209c-0.001,4.059-0.069,8.12,0.028,12.176c0.051,2.131-0.761,2.438-2.472,1.557
		c-0.45-0.232-0.934-0.403-1.367-0.661c-5.021-2.989-5.927-7.712-5.937-13.096c-0.009-5.387,0.893-10.129,5.9-13.118
		c3.119-1.862,3.828-1.451,3.845,2.106C21.051,83.852,21.037,87.531,21.037,91.209z"/>
	<path fill="#EF8373" d="M178.901,91.313c0.001-3.932,0.132-7.869-0.042-11.793c-0.129-2.92,1.071-2.887,3.124-1.849
		c6.289,3.181,6.742,8.839,6.648,14.936c-0.084,5.407-1.837,9.605-6.829,12.17c-2.427,1.247-3.037,0.437-2.94-2.051
		C179.009,98.927,178.9,95.118,178.901,91.313z"/>
	<path fill="#EF8373" d="M58.502,15.022c-7.511,5.196-13.32,11.008-18.638,17.836c-2.108-6.317-5.893-12.252-0.109-18.04
		C45.672,8.898,51.716,12.935,58.502,15.022z"/>
	<path fill="#F7AEA2" d="M160.813,32.456c-5.301-6.89-11.137-12.469-17.895-17.183c7.617-4.299,13.248-4.653,17.3-0.999
		C166.352,19.806,163.181,25.836,160.813,32.456z"/>
	<path fill="#F7F9FA" d="M118.319,192.057c0.015-0.729,0.203-1.365,0.92-1.717c0.408,0.474,0.864,0.968,0.429,1.626
		C119.298,192.527,118.781,192.157,118.319,192.057z"/>
	<path fill="#F6CE6F" d="M94.588,24.534c-0.697,0.779-1.541,0.738-2.432,0.437C92.879,24.334,93.737,24.451,94.588,24.534z"/>
	<path fill="#FDA1AC" d="M128.448,97.038c4.444-1.179,8.496-0.421,12.179,2.374c3.934,2.985,4.48,8.271,1.19,11.981
		c-4.003,4.513-12.768,5.209-17.38,1.379c-4.91-4.077-5.121-7.947-0.731-13.374C126.076,100.2,127.74,99.578,128.448,97.038z"/>
	<path fill="#FDA1AC" d="M67.833,115.429c-2.145-0.65-4.458-0.758-6.358-2.186c-5.62-4.226-5.78-8.308-0.52-14.581
		c3.702-1.511,7.416-2.935,11.511-1.567c0.983,2.424,2.595,3.332,5.091,2.111C83.093,108.332,79.344,114.587,67.833,115.429z"/>
	<path fill="#090807" d="M100.58,102.597c-3.216,0.061-5.935-1.121-8.225-3.336c-1.347-1.303-1.868-2.799-0.492-4.337
		c1.214-1.358,2.726-1.345,4.045-0.146c3.041,2.763,6.016,2.893,9.099,0.084c1.472-1.342,3.022-1.296,4.303,0.258
		c1.211,1.469,0.644,2.876-0.543,4.056C106.514,101.417,103.808,102.65,100.58,102.597z"/>
	<path fill="#090807" d="M77.557,99.206c-2.495,1.221-4.107,0.313-5.091-2.111c0.085-1.754,0.048-3.526,0.291-5.258
		c0.212-1.51,1.177-2.508,2.833-2.485c1.632,0.022,2.728,0.997,2.786,2.514C78.471,94.327,79.088,96.907,77.557,99.206z"/>
	<path fill="#090807" d="M128.448,97.038c-0.708,2.541-2.372,3.162-4.743,2.36c-1.825-2.374-1.063-5.104-0.965-7.705
		c0.054-1.425,1.081-2.266,2.544-2.336c1.645-0.078,2.726,0.815,2.939,2.368C128.462,93.474,128.387,95.265,128.448,97.038z"/>
	<path fill="#090807" d="M162.747,171.665c-0.068,4.82-4.122,8.726-8.891,8.565c-4.541-0.153-8.422-4.239-8.347-8.786
		c0.076-4.606,3.994-8.5,8.575-8.524C158.922,162.895,162.816,166.826,162.747,171.665z M154.27,168.753
		c-1.741,0.072-2.891,0.986-2.918,2.749c-0.027,1.742,1.035,2.821,2.838,2.847c1.65,0.024,2.619-1.002,2.745-2.542
		C157.079,170.048,156.088,169.004,154.27,168.753z"/>
	<path fill="#E3E3E3" d="M154.27,168.753c1.818,0.251,2.809,1.295,2.665,3.054c-0.126,1.54-1.094,2.566-2.745,2.542
		c-1.804-0.026-2.866-1.105-2.838-2.847C151.379,169.739,152.529,168.824,154.27,168.753z"/>
</g>
</svg>
