<?xml version="1.0" encoding="utf-8"?>
<!-- Generator: Adobe Illustrator 17.0.0, SVG Export Plug-In . SVG Version: 6.00 Build 0)  -->
<!DOCTYPE svg PUBLIC "-//W3C//DTD SVG 1.1//EN" "http://www.w3.org/Graphics/SVG/1.1/DTD/svg11.dtd">
<svg version="1.1" id="Layer_1" xmlns="http://www.w3.org/2000/svg" xmlns:xlink="http://www.w3.org/1999/xlink" x="0px" y="0px"
	 width="200px" height="200px" viewBox="0 0 200 200" enable-background="new 0 0 200 200" xml:space="preserve">
<g>
	<path d="M90.699,100.447c-1.682-1.763-2.705-2.878-3.773-3.947C61.531,71.088,36.13,45.681,10.734,20.269
		c-0.987-0.988-2.075-1.914-2.881-3.037c-2.156-3.005-2.108-6.126,0.495-8.757c2.6-2.628,5.722-2.727,8.753-0.602
		c1.131,0.793,2.062,1.879,3.05,2.866c25.413,25.395,50.828,50.788,76.211,76.214c1.072,1.074,1.832,2.459,2.924,3.955
		c1.834-1.713,2.956-2.701,4.01-3.755c25.601-25.602,51.194-51.213,76.795-76.815c1.085-1.085,2.119-2.285,3.387-3.109
		c2.948-1.917,5.918-1.663,8.401,0.829c2.481,2.49,2.733,5.459,0.807,8.403c-0.828,1.266-2.021,2.306-3.105,3.392
		c-25.491,25.515-50.985,51.027-76.505,76.512c-1.079,1.078-2.417,1.897-3.985,3.106c1.615,1.688,2.621,2.781,3.67,3.83
		c25.602,25.602,51.209,51.198,76.811,76.799c0.988,0.988,2.07,1.917,2.88,3.038c2.176,3.009,2.087,6.1-0.509,8.75
		c-2.597,2.652-5.683,2.816-8.727,0.668c-1.129-0.797-2.068-1.873-3.055-2.86c-25.512-25.494-51.023-50.989-76.513-76.505
		c-1.083-1.084-1.966-2.367-3.236-3.915c-1.547,1.458-2.648,2.445-3.692,3.488c-25.606,25.595-51.205,51.196-76.809,76.793
		c-0.988,0.987-1.927,2.053-3.038,2.881c-2.986,2.225-6.005,2.111-8.763-0.389c-2.637-2.39-2.796-6.122-0.471-9.081
		c0.773-0.984,1.72-1.832,2.609-2.721c25.495-25.51,50.99-51.022,76.504-76.513C87.835,102.649,89.112,101.759,90.699,100.447z"/>
</g>
</svg>
