<?xml version="1.0" encoding="utf-8"?>
<!-- Generator: Adobe Illustrator 17.0.0, SVG Export Plug-In . SVG Version: 6.00 Build 0)  -->
<!DOCTYPE svg PUBLIC "-//W3C//DTD SVG 1.1//EN" "http://www.w3.org/Graphics/SVG/1.1/DTD/svg11.dtd">
<svg version="1.1" id="Layer_1" xmlns="http://www.w3.org/2000/svg" xmlns:xlink="http://www.w3.org/1999/xlink" x="0px" y="0px"
	 width="900px" height="900px" viewBox="0 0 900 900" enable-background="new 0 0 900 900" xml:space="preserve">
<g>
	<path fill="#82CD47" d="M882.073,456.569c-23.73,105.689-115.059,181.152-223.175,187.068c-16.481,0.889-33.031,0.103-49.546,0.103
		v0.684c-16.514,0-33.064-0.445-49.544,0.068c-29.954,0.958-52.726,14.669-65.308,41.886c-12.173,26.328-9.814,52.657,8.582,75.565
		c16.344,20.311,24.687,42.228,19.421,68.078c-7.01,34.295-37.304,58.059-75.018,57.101
		c-144.806-3.59-264.138-61.376-348.115-179.237C-8.986,555.83-19.449,391.843,74.205,230.624
		C167.892,69.406,315.501-1.92,501.407,15.382c140.155,13.062,254.461,76.25,331.874,196.471
		C881.183,286.187,901.904,368.386,882.073,456.569z"/>
	<path fill="#F1F2F2" d="M270.983,212.364c1.658,52.989,45.963,97.451,98.959,99.309s94.614-39.592,92.956-92.58
		s-45.963-97.451-98.959-99.309C310.943,117.926,269.325,159.375,270.983,212.364z"/>
	<path fill="#F1F2F2" d="M486.165,212.364c1.658,52.989,45.963,97.451,98.959,99.309s94.614-39.592,92.956-92.58
		s-45.963-97.451-98.959-99.309C526.125,117.926,484.507,159.375,486.165,212.364z"/>
	<path d="M367.857,224.273c-1.091,3.084-3.804,5-5.625,7.586c-1.225,1.74-2.713,4.702,0.349,5.522
		c3.197,0.856,6.775-2.052,10.018-0.251c1.558,0.865,2.219,2.775,3.676,3.642c2.099,1.25,3.449-2.295,3.817-3.702
		c0.557-2.13,1.284-5.974,0.295-8.045c2.942,1.864,11.539,4.827,10.079-1.815c-0.936-4.258-7.299-6.182-9.046-10.43
		c1.07-0.983,2.955-2.888,1.42-4.284c-2.534-2.304-6.081,1.341-8.622,1.732c-3.353,0.516-7.931-3.047-10.771,0.151
		c-1.389,1.564-0.905,3.982-0.008,5.632c0.484,0.89,1.144,1.698,1.93,2.338c0.77,0.624,1.737,1.085,2.629,1.482
		C367.956,223.981,367.908,224.128,367.857,224.273z"/>
	<path d="M591.952,218.274c-3.243-0.429-5.679-2.687-8.585-3.934c-1.956-0.839-5.161-1.682-5.33,1.484
		c-0.176,3.305,3.409,6.204,2.318,9.75c-0.524,1.703-2.256,2.745-2.803,4.35c-0.789,2.312,2.958,2.9,4.411,2.969
		c2.199,0.104,6.111,0.02,7.932-1.376c-1.215,3.264-2.336,12.288,3.861,9.486c3.972-1.796,4.538-8.42,8.333-11.008
		c1.183,0.844,3.437,2.294,4.485,0.504c1.73-2.956-2.57-5.672-3.478-8.077c-1.199-3.174,1.34-8.389-2.376-10.506
		c-1.817-1.035-4.083-0.062-5.511,1.157c-0.77,0.657-1.425,1.47-1.888,2.372c-0.451,0.882-0.703,1.924-0.906,2.878
		C592.258,218.31,592.104,218.294,591.952,218.274z"/>
	<circle fill="#231F20" cx="450" cy="407.419" r="8.215"/>
	<circle fill="#231F20" cx="529.305" cy="399.204" r="8.215"/>
	<g>
		<g>
			<path fill="#EDEDED" d="M264.57,460.799c-4.789,17.305-9.568,36.109,0.569,52.495c3.819,6.174,13.584,0.512,9.744-5.695
				c-8.403-13.584-3.368-29.575,0.569-43.799C277.396,456.773,266.508,453.795,264.57,460.799L264.57,460.799z"/>
		</g>
	</g>
	<g>
		<g>
			<path fill="#EDEDED" d="M289.571,492.767c64.273,6.861,129.063,7.657,193.52,2.963c63.872-4.651,128.374-13.81,190.236-30.635
				c8.05-2.189,16.042-4.587,23.985-7.136c6.9-2.214,3.949-13.111-3-10.881c-61.282,19.663-126.03,29.623-189.973,35.601
				c-64.322,6.013-129.176,6.384-193.544,0.866c-7.082-0.607-14.156-1.308-21.224-2.062
				C282.338,480.71,282.413,492.003,289.571,492.767L289.571,492.767z"/>
		</g>
	</g>
	<g>
		<g>
			<path fill="#EDEDED" d="M693.716,436.326c13.531,6.026,13.668,22.98,13.756,35.752c0.05,7.274,11.335,7.279,11.284,0
				c-0.116-16.696-1.897-37.726-19.345-45.496C692.826,423.649,687.08,433.371,693.716,436.326L693.716,436.326z"/>
		</g>
	</g>
</g>
</svg>
