<?xml version="1.0" encoding="utf-8"?>
<!-- Generator: Adobe Illustrator 17.0.0, SVG Export Plug-In . SVG Version: 6.00 Build 0)  -->
<!DOCTYPE svg PUBLIC "-//W3C//DTD SVG 1.1//EN" "http://www.w3.org/Graphics/SVG/1.1/DTD/svg11.dtd">
<svg version="1.1" id="Layer_1" xmlns="http://www.w3.org/2000/svg" xmlns:xlink="http://www.w3.org/1999/xlink" x="0px" y="0px"
	 width="200px" height="200px" viewBox="0 0 200 200" enable-background="new 0 0 200 200" xml:space="preserve">
<path fill="#82CD47" d="M193.89,101.278c-0.779,15.978-0.601,33.38-2.703,50.502c-3.117,25.392-13.777,36.478-39.036,39.27
	c-34.607,3.825-69.497,3.884-104.094-0.013c-25.383-2.859-36.164-13.618-39.004-38.747C5.126,117.545,5.135,82.512,9.04,47.767
	c2.839-25.262,13.892-36.17,39.362-38.915C82.868,5.139,117.608,5.104,152.073,8.9c25.748,2.836,37.395,15.905,39.539,41.792
	C192.968,67.052,193.133,83.51,193.89,101.278z M107.043,101.992c0-2.835,0-4.22,0-5.604c-0.001-13.825,0.021-27.65-0.013-41.475
	c-0.013-5.243-2.55-8.288-6.806-8.378c-4.447-0.094-7.116,3.016-7.128,8.483c-0.031,13.97-0.007,27.941-0.021,41.911
	c-0.001,1.224-0.119,2.448-0.258,5.138c-5.804-6.002-10.626-11.189-15.679-16.142c-3.06-2.999-7.002-2.923-9.797-0.263
	c-2.901,2.76-3.036,6.928,0.078,10.098c9.074,9.24,18.234,18.399,27.466,27.481c3.188,3.136,6.997,3.255,10.117,0.204
	c9.363-9.156,18.621-18.423,27.797-27.766c2.962-3.015,2.86-7.043,0.214-9.797c-2.893-3.01-7.005-2.951-10.44,0.413
	C117.638,91.128,112.849,96.107,107.043,101.992z M99.797,153.487c11.911,0,23.822,0.021,35.733-0.009
	c5.503-0.014,8.751-2.607,8.776-6.874c0.024-4.262-3.291-7.042-8.685-7.05c-23.677-0.034-47.354-0.032-71.031-0.002
	c-5.461,0.007-8.733,2.683-8.767,6.955c-0.035,4.282,3.225,6.954,8.677,6.97C76.265,153.51,88.031,153.487,99.797,153.487z"/>
</svg>
