<?xml version="1.0" encoding="utf-8"?>
<!-- Generator: Adobe Illustrator 17.0.0, SVG Export Plug-In . SVG Version: 6.00 Build 0)  -->
<!DOCTYPE svg PUBLIC "-//W3C//DTD SVG 1.1//EN" "http://www.w3.org/Graphics/SVG/1.1/DTD/svg11.dtd">
<svg version="1.1" id="Layer_1" xmlns="http://www.w3.org/2000/svg" xmlns:xlink="http://www.w3.org/1999/xlink" x="0px" y="0px"
	 width="200px" height="200px" viewBox="0 0 200 200" enable-background="new 0 0 200 200" xml:space="preserve">
<g>
	<path fill="#CFCCCC" d="M70.2,67.097c0.096-1.738,0.193-3.476,0.289-5.214c2.392-0.195,2.975-1.803,3.484-3.879
		c5.694-23.206,20.17-37.821,43.261-43.932c3.864-1.023,7.828-0.517,11.705-0.855c11.552-1.008,21.779,2.052,31.17,8.544
		c1.702,3.658,5.086,5.977,7.294,9.273c10.366,15.475,13.469,32.479,10.704,50.645c-1.635,10.74-5.734,20.559-12.234,29.358
		c-2.21,2.992-5.772,4.79-7.216,8.412c-5.292,3.263-11.036,5.388-17.114,6.573c-2.038,0.397-3.329,1.266-3.513,3.422
		c-1.731,0.095-3.462,0.189-5.193,0.284c-0.422-13.9-4.369-26.631-12.958-37.678C107.306,75.881,90.588,67.792,70.2,67.097z
		 M119.071,72.923c1.579-0.25,2.719-1.007,2.684-2.766c-0.035-1.724-1.115-2.687-2.761-2.645c-1.469,0.038-2.454,0.97-2.528,2.522
		C116.38,71.791,117.441,72.618,119.071,72.923z M132.682,69.882c-0.261-1.365-1.15-2.462-2.826-2.368
		c-1.65,0.093-2.616,1.164-2.513,2.89c0.093,1.567,1.136,2.45,2.592,2.451C131.571,72.858,132.563,71.871,132.682,69.882z
		 M141.005,67.44c-1.608,0.175-2.715,0.923-2.796,2.668c-0.073,1.576,0.859,2.556,2.306,2.725c1.638,0.192,2.803-0.691,2.98-2.394
		C143.676,68.705,142.6,67.832,141.005,67.44z"/>
	<path fill="#0A0A0A" d="M70.2,67.097c20.388,0.695,37.106,8.784,49.678,24.953c8.589,11.047,12.535,23.778,12.958,37.678
		c-0.318,12.961-3.723,24.962-11.129,35.713c-17.332,25.162-49.719,34.262-77.581,21.691c-2.323-1.048-3.876-1.048-6.108,0.421
		c-8.46,5.57-17.68,6.659-27.338,3.576c-1.563-0.499-3.415-0.942-3.492-3.126c-0.069-1.979,1.539-2.539,2.96-3.202
		c4.841-2.261,8.542-5.765,11.417-10.24c1.16-1.806,1.273-3.103-0.244-4.997C-8.411,132.46,11.114,78.183,57.625,68.433
		C61.778,67.563,65.992,67.389,70.2,67.097z M126.862,125.312c-1.481-18.014-9.771-32.085-24.549-42.399
		c-2.613-1.563-5.123-3.343-7.857-4.655c-24.404-11.712-53.651-4.536-70.161,17.133c-16.399,21.525-15.447,51.552,2.454,72.134
		c2.077,2.388,2.373,4.275,0.997,7.055c-2.363,4.776-5.809,8.625-10.135,12.433c7.423,0.779,13.665-0.795,18.877-5.108
		c2.819-2.333,4.902-2.16,8.031-0.689c18.939,8.905,37.529,8.338,55.536-2.757c16.176-10.115,25.086-24.687,26.795-43.677
		C127.551,131.627,127.541,128.47,126.862,125.312z"/>
	<path fill="#0A0A0A" d="M138.029,129.444c0.185-2.156,1.475-3.025,3.513-3.422c6.078-1.185,11.821-3.31,17.114-6.573
		c1.891-0.09,3.037,1.24,4.375,2.248c5.554,4.188,11.717,6.1,19.542,5.235c-4.454-3.431-7.395-7.013-9.768-11.132
		c-1.895-3.29-1.933-5.709,0.824-8.928c21.767-25.418,16.844-64.17-10.414-83.557c-0.927-0.659-1.708-1.772-3.106-1.552
		c-9.39-6.492-19.617-9.551-31.17-8.544c-3.876,0.338-7.841-0.168-11.705,0.855c-23.09,6.111-37.567,20.725-43.261,43.932
		c-0.509,2.076-1.092,3.683-3.484,3.879c-2.48-0.998-2.374-2.797-1.905-5.059c5.73-27.66,30.582-48.788,58.475-49.616
		c30.003-0.89,56.065,18.035,63.493,46.462c5.322,20.367,1.246,38.981-11.714,55.538c-1.651,2.109-1.741,3.494-0.331,5.593
		c2.97,4.422,6.695,7.885,11.558,10.098c1.338,0.609,2.716,1.244,2.664,3.034c-0.058,1.981-1.645,2.541-3.135,3.025
		c-9.906,3.214-19.34,2.155-28.011-3.645c-2.021-1.352-3.436-1.407-5.485-0.358c-4.311,2.208-8.963,3.487-13.691,4.545
		C140.251,131.982,138.899,131.387,138.029,129.444z"/>
	<path fill="#B4B0B0" d="M160.108,21.762c1.398-0.219,2.179,0.893,3.106,1.552c27.257,19.388,32.18,58.14,10.414,83.557
		c-2.757,3.22-2.719,5.639-0.824,8.928c2.373,4.119,5.314,7.701,9.768,11.132c-7.825,0.865-13.987-1.046-19.542-5.235
		c-1.337-1.008-2.483-2.338-4.375-2.248c1.443-3.622,5.005-5.421,7.216-8.412c6.5-8.798,10.6-18.618,12.234-29.358
		c2.765-18.165-0.338-35.17-10.704-50.645C165.194,27.739,161.81,25.42,160.108,21.762z"/>
	<path fill="#0A0A0A" d="M119.071,72.923c-1.63-0.306-2.69-1.133-2.606-2.888c0.075-1.553,1.06-2.485,2.528-2.522
		c1.646-0.042,2.726,0.92,2.761,2.645C121.79,71.916,120.649,72.673,119.071,72.923z"/>
	<path fill="#0A0A0A" d="M132.682,69.882c-0.119,1.989-1.111,2.975-2.748,2.974c-1.455-0.001-2.498-0.884-2.592-2.451
		c-0.103-1.727,0.863-2.797,2.513-2.89C131.532,67.42,132.421,68.518,132.682,69.882z"/>
	<path fill="#0A0A0A" d="M141.005,67.44c1.594,0.392,2.67,1.264,2.49,3c-0.177,1.703-1.342,2.585-2.98,2.394
		c-1.447-0.169-2.378-1.15-2.306-2.725C138.29,68.363,139.398,67.615,141.005,67.44z"/>
	<path fill="#FCFCFC" d="M100.055,178.461c-18.006,11.094-36.597,11.662-55.536,2.757c-3.129-1.471-5.212-1.644-8.031,0.689
		c-5.213,4.313-11.454,5.887-18.877,5.108c4.326-3.808,7.772-7.657,10.135-12.433c1.376-2.78,1.08-4.667-0.997-7.055
		c-17.901-20.582-18.853-50.609-2.454-72.134c16.51-21.67,45.757-28.846,70.161-17.133c2.734,1.312,5.243,3.092,7.857,4.655
		c-0.22,2.208,1.431,3.459,2.588,4.926c3.216,4.08,5.979,8.424,8.103,13.174c5.868,13.13,7.259,26.871,5.019,40.925
		c-1.988,12.477-6.759,23.79-15.78,32.993C101.265,175.929,99.851,176.709,100.055,178.461z M60.259,129.983
		c0,1.205-0.005,2.411,0.001,3.616c0.054,11.365-1.413,9.952,10.819,9.915c0.24-0.001,0.482-0.025,0.72-0.063
		c5.324-0.834,8.832-6.536,6.584-11.403c-1.208-2.615-2.04-4.849-1.459-7.851c0.566-2.921-1.15-5.43-3.839-6.788
		c-3.505-1.77-7.328-1.109-10.999-0.699c-1.654,0.185-1.843,1.98-1.833,3.508C60.273,123.474,60.259,126.728,60.259,129.983z
		 M43.663,116.46c-1.68,0.081-2.572,1.109-3.127,2.567c-2.566,6.739-5.137,13.476-7.708,20.213
		c-0.697,1.827-0.496,3.446,1.521,4.138c1.83,0.628,3.144-0.4,3.531-2.134c1.031-4.61,4.651-2.492,7.277-2.943
		c2.317-0.398,3.873,0.264,4.468,2.822c0.434,1.865,1.786,2.992,3.789,2.178c1.766-0.718,1.995-2.252,1.354-3.938
		c-2.606-6.853-5.206-13.708-7.836-20.552C46.372,117.347,45.341,116.422,43.663,116.46z M97.873,143.559
		c3.303,0.037,6.131-1.1,8.428-3.48c1.235-1.28,1.646-2.737,0.278-4.138c-1.212-1.243-2.629-1.119-3.837,0.047
		c-1.672,1.613-3.604,2.399-5.902,2.052c-3.42-0.516-5.763-2.492-6.75-5.758c-0.945-3.129-0.156-6.014,2.297-8.236
		c2.549-2.308,5.544-2.909,8.712-1.456c1.935,0.887,4.006,2.152,5.203-0.512c1.274-2.836-1.265-3.773-3.227-4.632
		c-4.919-2.154-10.858-0.951-14.725,2.856c-4.021,3.958-5.184,9.812-2.979,14.991C87.523,140.344,92.386,143.558,97.873,143.559z"/>
	<path fill="#E4E3E3" d="M100.055,178.461c-0.204-1.751,1.21-2.532,2.187-3.529c9.021-9.203,13.792-20.516,15.78-32.993
		c2.24-14.054,0.849-27.795-5.019-40.925c-2.123-4.751-4.886-9.095-8.103-13.174c-1.157-1.467-2.808-2.719-2.588-4.926
		c14.779,10.314,23.068,24.385,24.549,42.399c-1.231,3.156-1.213,6.313-0.012,9.472
		C125.141,153.774,116.231,168.346,100.055,178.461z"/>
	<path fill="#CFCCCC" d="M126.85,134.784c-1.201-3.159-1.22-6.316,0.012-9.472C127.541,128.47,127.551,131.627,126.85,134.784z"/>
	<path fill="#0A0A0A" d="M60.259,129.983c0-3.255,0.014-6.509-0.006-9.764c-0.01-1.528,0.179-3.324,1.833-3.508
		c3.67-0.41,7.493-1.071,10.999,0.699c2.689,1.358,4.404,3.867,3.839,6.788c-0.581,3.003,0.251,5.237,1.459,7.851
		c2.248,4.867-1.26,10.569-6.584,11.403c-0.238,0.037-0.48,0.062-0.72,0.063c-12.232,0.036-10.764,1.45-10.819-9.915
		C60.254,132.394,60.259,131.188,60.259,129.983z M68.795,131.882c-2.232-0.545-3.355,0.26-3.024,2.916
		c0.211,1.694-0.564,3.735,2.541,3.409c2.318-0.244,4.985,0.038,5.165-3.06C73.64,132.323,71.429,131.705,68.795,131.882z
		 M67.803,126.381c1.844-0.028,3.66-0.042,3.734-2.113c0.081-2.264-1.738-2.379-3.519-2.487c-1.689-0.103-2.28,0.425-2.263,2.164
		C65.771,125.657,65.987,126.791,67.803,126.381z"/>
	<path fill="#0A0A0A" d="M43.66,116.461c1.681-0.039,2.712,0.886,3.274,2.35c2.63,6.844,5.23,13.699,7.836,20.552
		c0.641,1.685,0.412,3.22-1.354,3.938c-2.003,0.814-3.355-0.313-3.789-2.178c-0.596-2.558-2.152-3.221-4.468-2.822
		c-2.626,0.451-6.247-1.666-7.277,2.943c-0.388,1.734-1.701,2.762-3.531,2.134c-2.017-0.692-2.218-2.311-1.521-4.138
		c2.57-6.737,5.142-13.474,7.708-20.213C41.091,117.569,41.984,116.54,43.66,116.461z M46.372,132.652
		c-0.852-2.21-1.608-4.173-2.591-6.725c-0.979,2.541-1.745,4.526-2.592,6.725C43.169,132.652,44.581,132.652,46.372,132.652z"/>
	<path fill="#0A0A0A" d="M97.873,143.557c-5.487,0.001-10.35-3.213-12.501-8.264c-2.205-5.179-1.042-11.032,2.979-14.991
		c3.867-3.807,9.806-5.01,14.725-2.856c1.961,0.859,4.5,1.796,3.227,4.632c-1.197,2.664-3.268,1.399-5.203,0.512
		c-3.168-1.453-6.163-0.852-8.712,1.456c-2.454,2.222-3.243,5.106-2.297,8.236c0.986,3.266,3.33,5.241,6.75,5.758
		c2.298,0.347,4.23-0.439,5.902-2.052c1.208-1.166,2.624-1.29,3.837-0.047c1.368,1.402,0.956,2.859-0.278,4.138
		C104.005,142.459,101.176,143.596,97.873,143.557z"/>
	<path fill="#F7F9FA" d="M68.795,131.882c2.634-0.177,4.845,0.44,4.681,3.264c-0.18,3.098-2.847,2.817-5.165,3.06
		c-3.105,0.326-2.33-1.715-2.541-3.409C65.44,132.142,66.563,131.337,68.795,131.882z"/>
	<path fill="#F7F9FA" d="M67.803,126.381c-1.816,0.41-2.032-0.724-2.048-2.436c-0.017-1.739,0.575-2.266,2.263-2.164
		c1.78,0.108,3.599,0.223,3.519,2.487C71.463,126.34,69.647,126.353,67.803,126.381z"/>
	<path fill="#E4E3E3" d="M46.372,132.652c-1.791,0-3.203,0-5.183,0c0.847-2.198,1.612-4.184,2.592-6.725
		C44.764,128.478,45.52,130.441,46.372,132.652z"/>
</g>
</svg>
