<?xml version="1.0" encoding="utf-8"?>
<!-- Generator: Adobe Illustrator 17.0.0, SVG Export Plug-In . SVG Version: 6.00 Build 0)  -->
<!DOCTYPE svg PUBLIC "-//W3C//DTD SVG 1.1//EN" "http://www.w3.org/Graphics/SVG/1.1/DTD/svg11.dtd">
<svg version="1.1" id="Layer_1" xmlns="http://www.w3.org/2000/svg" xmlns:xlink="http://www.w3.org/1999/xlink" x="0px" y="0px"
	 width="200px" height="200px" viewBox="0 0 200 200" enable-background="new 0 0 200 200" xml:space="preserve">
<g>
	<path fill="#093A65" d="M86.192,183.735c-20.663,0.001-41.327,0.008-61.99-0.002c-12.609-0.006-19.749-7.04-19.761-19.565
		c-0.028-30.621-0.029-61.243,0-91.864c0.013-13.508,7.502-20.992,21.044-20.878c2.957,0.025,4.424-0.351,4.577-3.86
		c0.227-5.202,1.081-10.392,1.914-15.548c1.682-10.403,9.858-16.767,20.514-15.676c16.09,1.648,32.15,3.583,48.222,5.411
		c25.343,2.883,50.677,5.848,76.029,8.641c13.09,1.442,20.186,10.619,18.626,23.712c-3.503,29.404-6.825,58.83-10.021,88.269
		c-1.017,9.366-4.531,16.495-14.291,19.094c-1.651,0.44-1.714,1.51-1.644,2.819c0.591,11.063-9.188,19.575-20.483,19.491
		C128.017,183.623,107.104,183.734,86.192,183.735z M13.649,136.36c0.787-0.208,0.931-0.208,1.025-0.276
		c9.274-6.717,18.548-13.434,27.812-20.163c10.598-7.698,19.789-7.235,29.671,1.465c7.102,6.253,14.211,12.496,21.367,18.687
		c6.757,5.846,10.482,6.217,18.176,1.756c15.181-8.802,30.3-17.711,45.519-26.446c2.154-1.236,2.846-2.621,2.819-5.031
		c-0.123-11.081-0.042-22.163-0.059-33.245c-0.013-8.491-4.05-12.519-12.639-12.522c-40.842-0.016-81.683-0.008-122.525-0.004
		c-0.87,0-1.748-0.01-2.61,0.092c-4.17,0.497-7.17,3.1-8.025,7.186c-0.379,1.811-0.506,3.704-0.509,5.56
		c-0.035,19.798-0.022,39.596-0.022,59.395C13.649,133.893,13.649,134.973,13.649,136.36z M159.889,120.799
		c-1.833,1.018-3.023,1.658-4.192,2.332c-13.795,7.964-27.515,16.062-41.405,23.857c-9.069,5.089-18.088,3.873-25.886-2.958
		c-7.863-6.89-15.706-13.803-23.559-20.705c-5.107-4.489-10.375-4.773-15.938-0.721c-7.949,5.788-15.859,11.629-23.756,17.488
		c-3.787,2.81-8.767,4.999-10.907,8.773c-2.237,3.946-0.601,9.483-0.624,14.321c-0.04,8.429,3.013,11.368,11.548,11.369
		c40.72,0.004,81.44-0.008,122.16,0.023c3.053,0.002,5.961-0.341,8.584-2.012c2.204-1.404,3.929-3.273,3.942-5.985
		C159.925,151.534,159.889,136.486,159.889,120.799z M169.461,152.16c4.56-1.781,5.681-4.886,6.107-8.747
		c2.045-18.533,4.258-37.048,6.383-55.573c1.417-12.35,2.93-24.692,4.118-37.065c0.607-6.324-2.415-9.96-8.717-10.729
		c-17.398-2.124-34.822-4.036-52.231-6.07c-24.446-2.856-48.885-5.774-73.334-8.605c-5.694-0.659-9.947,2.662-10.813,8.414
		c-0.666,4.423-0.736,8.956-1.676,13.31c-0.785,3.638,0.214,4.349,3.724,4.337c34.861-0.119,69.722-0.081,104.583-0.067
		c13.508,0.006,21.848,8.392,21.852,21.93c0.007,24.776,0.002,49.553,0.003,74.329C169.461,148.972,169.461,150.321,169.461,152.16z
		"/>
	<path fill="#00EDD0" d="M13.649,136.36c0-1.388,0-2.467,0-3.547c0-19.798-0.013-39.596,0.022-59.395
		c0.003-1.856,0.13-3.749,0.509-5.56c0.855-4.086,3.854-6.689,8.025-7.186c0.861-0.103,1.739-0.092,2.61-0.092
		c40.842-0.004,81.683-0.012,122.525,0.004c8.589,0.003,12.627,4.032,12.639,12.522c0.016,11.082-0.064,22.165,0.059,33.245
		c0.027,2.409-0.665,3.794-2.819,5.031c-15.219,8.735-30.338,17.644-45.519,26.446c-7.694,4.461-11.419,4.091-18.176-1.756
		c-7.155-6.191-14.265-12.435-21.367-18.687c-9.882-8.7-19.073-9.163-29.671-1.465c-9.265,6.729-18.539,13.446-27.812,20.163
		C14.58,136.152,14.437,136.152,13.649,136.36z M100.947,114.234c10.784,0.123,19.671-8.39,19.92-19.082
		c0.246-10.551-8.61-19.71-19.196-19.852c-10.733-0.144-19.636,8.419-19.89,19.132C81.529,105.078,90.273,114.113,100.947,114.234z"
		/>
	<path fill="#00CCB3" d="M159.889,120.799c0,15.687,0.036,30.735-0.033,45.783c-0.013,2.712-1.738,4.581-3.942,5.985
		c-2.623,1.671-5.531,2.014-8.584,2.012c-40.72-0.031-81.44-0.019-122.16-0.023c-8.534-0.001-11.588-2.94-11.548-11.369
		c0.023-4.838-1.613-10.375,0.624-14.321c2.14-3.774,7.119-5.963,10.907-8.773c7.897-5.859,15.807-11.7,23.756-17.488
		c5.563-4.051,10.831-3.768,15.938,0.721c7.853,6.902,15.696,13.815,23.559,20.705c7.797,6.831,16.817,8.048,25.886,2.958
		c13.89-7.795,27.61-15.892,41.405-23.857C156.866,122.456,158.056,121.817,159.889,120.799z"/>
	<path fill="#00AAE8" d="M169.461,152.16c0-1.839,0-3.188,0-4.537c0-24.776,0.004-49.553-0.003-74.329
		c-0.004-13.538-8.344-21.924-21.852-21.93c-34.861-0.014-69.723-0.052-104.583,0.067c-3.509,0.012-4.509-0.699-3.724-4.337
		c0.939-4.354,1.01-8.887,1.676-13.31c0.866-5.752,5.119-9.073,10.813-8.414c24.449,2.831,48.888,5.748,73.334,8.605
		c17.409,2.034,34.833,3.946,52.231,6.07c6.303,0.77,9.324,4.406,8.717,10.729c-1.188,12.373-2.702,24.715-4.118,37.065
		c-2.125,18.525-4.338,37.04-6.383,55.573C175.142,147.274,174.022,150.379,169.461,152.16z"/>
	<path fill="#093A65" d="M100.947,114.234c-10.674-0.122-19.418-9.156-19.166-19.802c0.254-10.712,9.156-19.275,19.89-19.132
		c10.586,0.142,19.442,9.301,19.196,19.852C120.617,105.845,111.73,114.358,100.947,114.234z M101.015,105.013
		c5.542,0.192,10.275-4.322,10.41-9.927c0.136-5.676-4.219-10.302-9.848-10.461c-5.595-0.158-10.313,4.31-10.452,9.896
		C90.986,100.112,95.423,104.819,101.015,105.013z"/>
	<path fill="#D0DDF1" d="M101.015,105.013c-5.592-0.194-10.03-4.901-9.89-10.491c0.14-5.587,4.857-10.054,10.452-9.896
		c5.629,0.159,9.984,4.785,9.848,10.461C111.291,100.692,106.557,105.206,101.015,105.013z"/>
</g>
</svg>
