<?xml version="1.0" encoding="utf-8"?>
<!-- Generator: Adobe Illustrator 17.0.0, SVG Export Plug-In . SVG Version: 6.00 Build 0)  -->
<!DOCTYPE svg PUBLIC "-//W3C//DTD SVG 1.1//EN" "http://www.w3.org/Graphics/SVG/1.1/DTD/svg11.dtd">
<svg version="1.1" id="Layer_1" xmlns="http://www.w3.org/2000/svg" xmlns:xlink="http://www.w3.org/1999/xlink" x="0px" y="0px"
	 width="200px" height="200px" viewBox="0 0 200 200" enable-background="new 0 0 200 200" xml:space="preserve">
<g>
	<path d="M99.539,90.194c-27.859,0-55.718-0.005-83.577,0.012c-1.82,0.001-3.678-0.033-5.452,0.302
		c-4.788,0.903-8.105,5.062-7.978,9.732c0.124,4.537,3.357,8.388,7.987,9.273c1.626,0.311,3.328,0.297,4.996,0.297
		c56.327,0.014,112.654,0.014,168.981,0c1.668,0,3.371,0.014,4.996-0.299c4.78-0.92,8.107-5.078,7.977-9.738
		c-0.126-4.539-3.363-8.408-7.986-9.268c-1.775-0.33-3.633-0.299-5.453-0.3C155.866,90.189,127.702,90.194,99.539,90.194z"/>
	<path d="M124.281,22.096c-20.537,0.001-41.073,0.046-61.61-0.033c-4.661-0.018-8.413,1.279-10.477,5.727
		c-2.924,6.3,1.426,13.355,8.596,13.688c5.313,0.247,10.646,0.068,15.971,0.069c35.597,0.002,71.194,0.001,106.791,0
		c1.369,0,2.741,0.051,4.107-0.024c5.764-0.316,9.926-4.548,9.808-9.925c-0.115-5.23-4.153-9.342-9.751-9.443
		c-8.972-0.161-17.95-0.057-26.925-0.059C148.62,22.092,136.45,22.095,124.281,22.096z"/>
	<path d="M143.89,177.921c14.001,0,28.002,0.024,42.004-0.01c7.054-0.017,11.443-3.675,11.572-9.506
		c0.132-5.981-4.435-9.92-11.648-9.925c-28.307-0.019-56.614-0.028-84.92,0.013c-5.452,0.008-9.036,2.672-10.268,7.292
		c-1.084,4.067,0.53,8.729,4.266,10.593c2.071,1.034,4.641,1.456,6.992,1.478C115.887,177.987,129.889,177.921,143.89,177.921z"/>
</g>
</svg>
