<?xml version="1.0" encoding="utf-8"?>
<!-- Generator: Adobe Illustrator 17.0.0, SVG Export Plug-In . SVG Version: 6.00 Build 0)  -->
<!DOCTYPE svg PUBLIC "-//W3C//DTD SVG 1.1//EN" "http://www.w3.org/Graphics/SVG/1.1/DTD/svg11.dtd">
<svg version="1.1" id="Layer_1" xmlns="http://www.w3.org/2000/svg" xmlns:xlink="http://www.w3.org/1999/xlink" x="0px" y="0px"
	 width="200px" height="200px" viewBox="0 0 200 200" enable-background="new 0 0 200 200" xml:space="preserve">
<g>
	<path fill="#A07CFC" d="M128.351,96.284c0.872,1.533,1.744,3.066,2.616,4.6l0.105,0.249l-0.266,0.231
		c0.187,4.923-0.326,9.957,1.855,14.595c0.981,2.087,0.355,3.114-1.715,3.483c-6.535,1.165-10.801,5.667-15.137,10.124
		c-4.459,4.582-9.024,9.061-13.509,13.618c-1.496,1.521-2.408,2.109-4.287-0.045c-6.762-7.751-10.869-8.455-20.023-4.232
		c-10.661,4.919-21.327,9.826-31.991,14.738c-0.351-0.33-0.702-0.659-1.054-0.989c1.238-13.195,6.215-25.035,13.051-36.221
		c0.872-1.427,3.191-3.242,1.084-4.711c-2.198-1.533-2.988,1.292-3.902,2.68c-7.83,11.885-12.371,25.004-14.346,39.041
		c-0.25,1.777-1.137,4.079,0.405,5.302c1.935,1.535,3.843-0.48,5.608-1.297c11.383-5.27,22.667-10.757,34.1-15.916
		c7.034-3.174,14.053-0.123,15.245,6.359c0.335,1.824,1.172,3.898-2.404,4.265c-10.189,1.043-12.01,3.333-12.552,14.212
		c-0.289,0.159-0.595,0.267-0.919,0.325c-1.076,0.211-2.152,0.421-3.228,0.627c-2.948-0.763-5.067,1.28-7.442,2.302
		c-12.964,5.583-25.193,12.806-38.636,17.326c-3.941-3.577-5.109-8.112-5.213-13.311c-0.265-13.264,1.181-26.354,5.211-38.92
		c7.343-22.897,16.829-44.651,37.092-59.592C89.487,78.466,111.803,79.164,128.351,96.284z"/>
	<path fill="#342261" d="M45.999,153.643c10.664-4.912,21.33-9.819,31.991-14.738c9.153-4.224,13.261-3.52,20.023,4.232
		c1.879,2.154,2.791,1.566,4.287,0.045c4.485-4.557,9.049-9.036,13.509-13.618c4.337-4.456,8.602-8.959,15.137-10.124
		c2.07-0.369,2.697-1.396,1.715-3.483c-2.181-4.638-1.668-9.672-1.847-14.604c0.008-0.009-0.059,0.092-0.059,0.092
		c1.978-5.286,3.563-10.794,8.227-14.563c0.699,0.702,1.399,1.404,2.098,2.105c-8.288,11.294-8.953,22.052-1.927,31.177
		c7.186,9.332,17.945,11.518,30.554,6.208c0.923,0.61,1.847,1.219,2.77,1.829c-3.583,3.077-7.957,4.141-12.465,4.528
		c-2.831,0.243-3.365,1.046-2.439,3.784c2.222,6.574,4.175,13.244,6.084,19.918c2.274,7.948-0.722,12.29-9.133,13.513
		c-0.014-1.013-0.027-2.026-0.041-3.039c5.732-1.087,7.407-4.588,5.817-9.929c-2.106-7.074-4.258-14.134-6.44-21.185
		c-0.409-1.322-0.471-3.102-2.167-3.463c-6.475-1.378-10.945-6.059-16.124-9.575c-5.623-0.603-9.935,1.981-13.704,5.743
		c-6.416,6.404-12.745,12.894-19.18,19.279c-1.841,1.826-3.413,3.61-2.483,6.437c1.508,2.457,4.421,2.738,6.552,4.229
		c0.997,0.698,2.366,1.482,1.527,2.852c-0.774,1.265-2.172,0.695-3.314,0.152c-3.317-1.578-6.63-3.162-9.945-4.744
		c-5.084-2.824-8.008-0.44-9.701,4.243c-0.82,2.267-1.115,4.723-1.648,7.093c-1.145-0.071-2.012-0.548-2.438-1.67
		c0.542-10.878,2.363-13.168,12.552-14.211c3.577-0.366,2.74-2.44,2.404-4.265c-1.192-6.482-8.21-9.534-15.245-6.359
		c-11.433,5.159-22.717,10.646-34.1,15.916c-1.765,0.817-3.673,2.832-5.608,1.297c-1.542-1.223-0.655-3.525-0.405-5.302
		c1.975-14.037,6.516-27.157,14.346-39.041c0.914-1.388,1.704-4.212,3.902-2.68c2.107,1.469-0.212,3.284-1.084,4.711
		c-6.837,11.186-11.813,23.025-13.047,36.222c-0.371,0.516-0.625,1.088,0.071,1.47C45.203,154.227,45.665,153.818,45.999,153.643z"
		/>
	<path fill="#3F2F67" d="M31.009,186.95c13.443-4.519,25.672-11.743,38.636-17.326c2.375-1.023,4.494-3.065,7.442-2.302
		c0.902,2.948-1.53,3.469-3.276,4.296c-12.631,5.985-25.217,12.075-37.971,17.789c-10.183,4.563-19.705-0.957-20.306-12.004
		c-1.971-36.248,9.841-67.974,32.811-95.639c7.895-9.509,18.292-12.615,30.59-9.313c9.327,2.505,18.868,4.202,28.27,6.444
		c8.029,1.914,14.746,6.158,20.273,12.274c1.352,1.496,3.096,2.987,0.873,5.118c-16.548-17.122-38.863-17.82-60.252-21.16
		c-8.459,0.105-14.16,5.19-19.042,11.151c-12.156,14.842-20.537,31.71-25.694,50.161c-3.683,13.177-5.482,26.618-4.431,40.305
		C19.523,184.446,23.593,187.669,31.009,186.95z"/>
	<path fill="#3F2F67" d="M62.905,37.043C62.867,17.522,78.699,1.731,98.261,1.78c19.539,0.049,35.28,15.92,35.171,35.461
		c-0.107,19.15-15.857,34.907-35.062,35.075C79.017,72.486,62.943,56.499,62.905,37.043z M129.829,37.297
		c0.129-17.622-13.95-31.932-31.517-32.034c-17.277-0.1-31.578,13.885-31.816,31.114C66.253,53.989,80.173,68.439,97.701,68.77
		C115.075,69.098,129.701,54.77,129.829,37.297z"/>
	<path fill="#3F2F67" d="M165.887,44.823c0-7.038-0.013-13.549,0.01-20.059c0.005-1.406-0.346-3.094,1.233-3.86
		c1.574-0.764,2.708,0.569,3.797,1.415c3.596,2.794,6.96,5.828,9.07,9.975c0.566,1.112,1.117,2.459-0.12,3.34
		c-1.385,0.987-2.211-0.209-2.895-1.274c-1.594-2.485-2.907-6.804-6.101-5.618c-3.041,1.129-1.172,5.516-1.305,8.436
		c-0.244,5.346-0.001,10.713-0.058,16.07c-0.075,6.916-3.311,11.85-8.906,13.236c-5.522,1.367-10.279-0.088-13.56-4.911
		c-3.267-4.801-3.035-9.725,0.388-14.368c3.508-4.757,8.968-5.878,15.522-3.41C163.686,44.067,164.421,44.309,165.887,44.823z
		 M165.784,55.053c0.144-4.838-3.398-8.85-8.103-9.177c-4.797-0.334-9.241,3.848-9.28,8.734c-0.038,4.674,3.877,8.726,8.542,8.841
		C161.704,63.569,165.642,59.827,165.784,55.053z"/>
	<path fill="#342261" d="M138.351,169.949c-4.044,0.197-4.819,4.288-7.395,6.25c-1.879,1.431-3.117,3.666-5.514,4.483
		c-1.571-0.243-2.822,0.05-3.161,1.879c-7.051,3.126-13.801,2.41-20.287-1.601c-1.446-0.894-3.037-2.712-3.693,0.673
		c-1.039,0.012-2.078,0.024-3.117,0.035c0.048-0.819,0.008-1.654,0.158-2.454c1.304-6.958,1.347-6.969,6.744-2.489
		c9.072,7.531,21.33,4.925,28.427-6.483c-2.711,0-5.141,0.141-7.549-0.028c-5.875-0.411-10.072-4.512-10.067-9.661
		c0.005-5.189,4.203-9.273,10.063-9.634c2.46-0.152,4.943,0.08,7.403-0.069c3.443-0.208,7.839,1.538,10.06-0.854
		c1.886-2.031-1.188-5.64-1.781-8.615c-0.233-1.171-0.679-2.645,1.025-3.005c1.553-0.329,2.017,1.04,2.405,2.217
		c1.029,3.123,1.917,6.298,3.073,9.373c1.249,3.323,0.142,4.555-3.265,4.496c-5.553-0.097-11.112,0.077-16.663-0.057
		c-4.636-0.112-8.873,1.009-8.552,6.343c0.289,4.81,4.034,6.903,9.003,7.26c4.367,0.314,8.374-2.187,12.723-1.098
		C138.378,167.922,138.364,168.936,138.351,169.949z"/>
	<path fill="#3F2F67" d="M95.184,181.668c1.039-0.012,2.078-0.024,3.117-0.035c-0.552,3.011-0.839,6.101-1.713,9.015
		c-1.738,5.799-6.843,8.633-12.383,7.208c-5.093-1.311-8.305-6.205-7.415-11.831c1.023-6.466,2.337-12.887,3.525-19.328
		c0.324-0.059,0.631-0.167,0.919-0.327c0.425,1.121,1.292,1.598,2.437,1.669c-1.103,6.034-2.395,12.041-3.26,18.109
		c-0.953,6.681,3.177,9.585,9.79,7.148C95.08,190.797,93.05,185.341,95.184,181.668z"/>
	<path fill="#342261" d="M138.981,86.883c8.554-7.953,18.165-10.28,29.117-5.469c-0.068,1.042-0.136,2.083-0.204,3.125
		c-9.838-3.942-18.727-2.157-26.815,4.449C140.38,88.287,139.681,87.585,138.981,86.883z"/>
	<path fill="#342261" d="M176.765,87.654c9.105,8.229,10.493,21.453,3.437,32.762c-0.629-0.91-1.257-1.82-1.886-2.729
		c4.513-9.032,3.685-17.725-1.655-26.133C176.696,90.254,176.731,88.954,176.765,87.654z"/>
	<path fill="#3F2F67" d="M138.351,169.949c0.013-1.014,0.026-2.027,0.039-3.041c5.364-0.001,10.727-0.001,16.091-0.002
		c0.014,1.013,0.027,2.026,0.041,3.039C149.133,170.503,143.742,170.511,138.351,169.949z"/>
	<path fill="#342261" d="M180.202,120.416c-1.784,3.383-4.347,5.992-7.73,7.785c-0.92-0.609-1.843-1.218-2.766-1.828
		c3.379-2.391,6.266-5.269,8.61-8.686C178.945,118.596,179.574,119.506,180.202,120.416z"/>
	<path fill="#342261" d="M172.315,83.658c1.939,0.8,3.649,1.86,4.446,3.947c-0.833,0.432-1.663,0.862-2.492,1.292
		c-1.226-0.943-2.451-1.887-3.677-2.83C170.68,84.916,171.175,84.057,172.315,83.658z"/>
	<path fill="#3F2F67" d="M172.315,83.658c-1.14,0.399-1.635,1.258-1.723,2.409c-0.899-0.509-1.798-1.019-2.697-1.528
		c0.068-1.042,0.136-2.084,0.204-3.125C169.882,81.45,171.203,82.358,172.315,83.658z"/>
	<path fill="#3F2F67" d="M174.268,88.897c0.83-0.43,1.66-0.86,2.492-1.292c0.003-0.002,0.001,0.052,0.001,0.052
		c-0.032,1.298-0.066,2.598-0.101,3.897C175.864,90.668,175.066,89.783,174.268,88.897z"/>
	<path fill="#3F2F67" d="M122.28,182.56c0.339-1.829,1.591-2.122,3.161-1.879C124.703,181.838,123.549,182.295,122.28,182.56z"/>
	<path fill="#3F2F67" d="M130.755,101.447c0,0,0.067-0.101,0.059-0.092s0.258-0.222,0.258-0.222l-0.105-0.249l0.157,0.381
		L130.755,101.447z"/>
	<path fill="#F7F9FA" d="M31.009,186.95c-7.417,0.719-11.487-2.504-12.079-10.207c-1.051-13.686,0.748-27.127,4.431-40.305
		c5.157-18.451,13.538-35.319,25.694-50.161c4.882-5.961,10.584-11.045,19.042-11.151c-20.262,14.941-29.747,36.695-37.091,59.592
		c-4.03,12.567-5.476,25.656-5.211,38.92C25.9,178.838,27.068,183.373,31.009,186.95z"/>
	<path fill="#F87BAC" d="M154.482,166.907c-5.364,0.001-10.728,0.001-16.091,0.002c-4.349-1.089-8.356,1.412-12.723,1.098
		c-4.969-0.358-8.714-2.451-9.003-7.26c-0.321-5.335,3.915-6.455,8.552-6.343c5.552,0.134,11.11-0.04,16.663,0.057
		c3.407,0.059,4.514-1.173,3.265-4.496c-1.156-3.075-2.044-6.25-3.073-9.373c-0.388-1.177-0.852-2.545-2.405-2.217
		c-1.704,0.36-1.258,1.834-1.025,3.005c0.593,2.976,3.667,6.584,1.781,8.615c-2.221,2.392-6.617,0.646-10.06,0.854
		c-2.46,0.149-4.943-0.082-7.403,0.069c-5.86,0.361-10.059,4.445-10.063,9.634c-0.005,5.149,4.192,9.25,10.067,9.661
		c2.408,0.168,4.838,0.028,7.549,0.028c-7.097,11.407-19.355,14.014-28.427,6.483c-5.397-4.48-5.44-4.47-6.744,2.489
		c-0.15,0.8-0.11,1.635-0.158,2.454c-2.133,3.673-0.103,9.13-4.981,11.622c-2.291-1.907-3.029-4.539-2.319-7.182
		c2.618-9.746,2.417-20.177,7.137-29.405c3.315,1.582,6.628,3.166,9.945,4.744c1.142,0.544,2.54,1.113,3.314-0.152
		c0.838-1.37-0.53-2.154-1.527-2.852c-2.131-1.491-5.043-1.772-6.551-4.228c3.83,0.048,6.431-2.083,9.019-4.637
		c8.925-8.803,16.199-19.228,26.347-26.823c5.178,3.516,9.648,8.197,16.124,9.575c1.696,0.361,1.758,2.141,2.167,3.463
		c2.182,7.051,4.334,14.111,6.44,21.185C161.889,162.319,160.214,165.819,154.482,166.907z"/>
	<path fill="#F7F9FA" d="M174.268,88.897c0.798,0.886,1.595,1.771,2.393,2.657c5.34,8.408,6.167,17.101,1.655,26.133
		c-2.344,3.417-5.231,6.295-8.61,8.686c-12.608,5.31-23.367,3.124-30.554-6.208c-7.027-9.124-6.362-19.882,1.927-31.177
		c8.088-6.606,16.977-8.391,26.815-4.449c0.899,0.509,1.798,1.019,2.697,1.528C171.817,87.01,173.043,87.954,174.268,88.897z
		 M144.329,97.325c0.314,3.397,2.129,6.048,6.257,6.627c1.195,0.168,2.696,0.304,3.147-1.155c0.516-1.668-0.914-2.033-2.144-2.25
		c-2.354-0.415-3.769-1.601-3.556-4.152c0.119-1.427,0.617-3.382-1.392-3.384C144.614,93.008,144.515,95.112,144.329,97.325z
		 M171.024,114.215c-0.02-1.725-1.136-1.975-2.497-1.796c-2.357,0.311-3.985-0.438-4.728-2.861
		c-0.406-1.326,0.168-4.052-2.532-2.906c-1.751,0.743-1.258,2.902-0.736,4.441c1.314,3.877,4.179,5.41,8.172,4.912
		C169.79,115.87,170.589,115.253,171.024,114.215z"/>
	<path fill="#F7F9FA" d="M95.021,156.703c-4.72,9.228-4.519,19.658-7.137,29.405c-0.71,2.643,0.028,5.276,2.319,7.182
		c-6.613,2.442-10.744-0.462-9.791-7.143c0.865-6.068,2.157-12.075,3.26-18.109c0.533-2.37,0.828-4.826,1.648-7.093
		C87.013,156.263,89.937,153.879,95.021,156.703z"/>
	<path fill="#F7F9FA" d="M135.568,122.755c-10.148,7.595-17.422,18.02-26.347,26.823c-2.588,2.553-5.189,4.685-9.019,4.637
		c-0.931-2.828,0.641-4.612,2.482-6.438c6.435-6.384,12.764-12.875,19.18-19.279C125.633,124.736,129.945,122.152,135.568,122.755z"
		/>
	<path fill="#A07CFC" d="M45.999,153.643c-0.334,0.175-0.796,0.583-0.978,0.483c-0.696-0.382-0.442-0.954-0.071-1.47
		C45.297,152.984,45.648,153.314,45.999,153.643z"/>
	<path fill="#F7F9FA" d="M129.829,37.297c-0.128,17.473-14.754,31.801-32.128,31.473c-17.528-0.331-31.448-14.78-31.204-32.393
		C66.734,19.148,81.035,5.162,98.312,5.263C115.879,5.364,129.958,19.674,129.829,37.297z M110.365,45.138
		c-0.026-1.844-1.414-4.13-4.971-4.278c-4.191-0.174-12.39,7.93-12.441,12.323c-0.047,3.955,2.626,5.384,6.063,5.398
		C104.246,58.602,110.363,52.013,110.365,45.138z"/>
	<path fill="#F5D071" d="M165.784,55.053c-0.142,4.774-4.081,8.516-8.841,8.398c-4.665-0.115-8.58-4.167-8.542-8.841
		c0.039-4.886,4.483-9.069,9.28-8.734C162.386,46.203,165.928,50.215,165.784,55.053z"/>
	<path fill="#3F2F67" d="M144.329,97.325c0.186-2.213,0.285-4.317,2.312-4.314c2.009,0.003,1.512,1.957,1.392,3.384
		c-0.213,2.551,1.202,3.737,3.556,4.152c1.23,0.217,2.661,0.582,2.144,2.25c-0.452,1.46-1.952,1.323-3.147,1.155
		C146.458,103.373,144.643,100.722,144.329,97.325z"/>
	<path fill="#3F2F67" d="M171.021,114.213c-0.432,1.04-1.231,1.657-2.317,1.793c-3.994,0.498-6.858-1.035-8.172-4.912
		c-0.522-1.539-1.015-3.698,0.736-4.441c2.7-1.146,2.125,1.58,2.532,2.906c0.742,2.422,2.371,3.172,4.728,2.861
		C169.888,112.24,171.004,112.49,171.021,114.213z"/>
	<path fill="#342261" d="M110.365,45.138c-0.003,6.874-6.12,13.463-11.349,13.443c-3.437-0.013-6.11-1.443-6.063-5.398
		c0.052-4.392,8.251-12.497,12.441-12.323C108.952,41.008,110.339,43.294,110.365,45.138z M99.123,55.182
		c3.859-1.117,6.581-3.618,7.677-7.685c0.4-1.486,0.154-2.928-1.911-2.961c-2.096-0.034-8.285,6.299-8.328,8.428
		C96.528,54.623,97.653,54.93,99.123,55.182z"/>
	<path fill="#F87BAC" d="M99.123,55.182c-1.47-0.252-2.595-0.559-2.562-2.218c0.043-2.129,6.232-8.462,8.328-8.428
		c2.065,0.033,2.311,1.475,1.911,2.961C105.704,51.564,102.982,54.066,99.123,55.182z"/>
</g>
</svg>
