<?xml version="1.0" encoding="utf-8"?>
<!-- Generator: Adobe Illustrator 17.0.0, SVG Export Plug-In . SVG Version: 6.00 Build 0)  -->
<!DOCTYPE svg PUBLIC "-//W3C//DTD SVG 1.1//EN" "http://www.w3.org/Graphics/SVG/1.1/DTD/svg11.dtd">
<svg version="1.1" id="Layer_1" xmlns="http://www.w3.org/2000/svg" xmlns:xlink="http://www.w3.org/1999/xlink" x="0px" y="0px"
	 width="200px" height="200px" viewBox="0 0 200 200" enable-background="new 0 0 200 200" xml:space="preserve">
<path d="M66.143,137.279c0-2.931,0-5.33,0-7.73c0-30.656,0.029-61.312-0.049-91.968c-0.007-2.651,0.533-3.999,3.416-4.721
	c39.578-9.902,79.12-19.947,118.671-29.954c0.728-0.184,1.464-0.338,2.439-0.562c0.09,1.147,0.231,2.114,0.231,3.08
	c0.01,43.122,0.052,86.244-0.014,129.366c-0.028,18.362-12.045,32.282-29.843,34.895c-17.741,2.605-35.271-10.322-38.067-28.071
	c-2.934-18.624,9.152-36.116,27.181-39.418c10.672-1.954,20.124,0.77,28.958,7.634c0-18.704,0-37.027,0-55.66
	c-10.985,2.781-21.931,5.548-32.875,8.322c-21.683,5.497-43.349,11.06-65.065,16.42c-2.823,0.697-3.551,1.883-3.542,4.632
	c0.094,26.076,0.108,52.153,0.035,78.23c-0.052,18.354-11.251,32.116-28.533,35.325c-18.457,3.427-36.206-9.33-39.493-28.386
	c-3.136-18.179,9.88-36.249,28.117-39.036C47.541,128.176,52.679,129.519,66.143,137.279z M77.654,68.009
	c12.557-3.186,24.49-6.221,36.426-9.242c20.573-5.208,41.156-10.379,61.706-15.678c1.321-0.341,3.397-1.601,3.428-2.494
	c0.273-7.725,0.157-15.463,0.157-23.608c-9.882,2.505-19.352,4.907-28.821,7.306C127.389,30.161,104.223,36,81.089,41.966
	c-1.284,0.331-3.252,1.681-3.285,2.614C77.536,52.184,77.654,59.802,77.654,68.009z M179.365,135.637
	c-0.067-12.527-10.452-22.749-22.97-22.609c-12.376,0.138-22.469,10.323-22.509,22.715c-0.04,12.501,10.306,22.847,22.806,22.806
	C169.222,158.507,179.432,148.19,179.365,135.637z M43.191,186.135c12.548,0.083,22.854-10.114,22.912-22.669
	c0.057-12.496-10.294-22.871-22.78-22.83c-12.397,0.04-22.581,10.14-22.695,22.509C20.511,175.727,30.645,186.052,43.191,186.135z"
	/>
</svg>
