<?xml version="1.0" encoding="utf-8"?>
<!-- Generator: Adobe Illustrator 17.0.0, SVG Export Plug-In . SVG Version: 6.00 Build 0)  -->
<!DOCTYPE svg PUBLIC "-//W3C//DTD SVG 1.1//EN" "http://www.w3.org/Graphics/SVG/1.1/DTD/svg11.dtd">
<svg version="1.1" id="Layer_1" xmlns="http://www.w3.org/2000/svg" xmlns:xlink="http://www.w3.org/1999/xlink" x="0px" y="0px"
	 width="200px" height="200px" viewBox="0 0 200 200" enable-background="new 0 0 200 200" xml:space="preserve">
<g>
	<path fill="#040504" d="M139.769,94.32c5.953,2.796,11.428,5.386,16.925,7.928c0.661,0.306,1.283,0.96,2.386,0.476
		c0-2.327,0.117-4.766-0.028-7.188c-0.205-3.427,1.132-5.382,4.693-4.84c3.997,0.608,4.789-0.935,4.76-4.766
		c-0.188-25.518-0.098-51.039-0.094-76.559c0-1.036-0.031-2.078,0.07-3.105c0.127-1.293,0.99-2.118,2.139-2.516
		c1.383-0.479,2.617,0.013,3.409,1.189c4.191,6.222,8.33,12.479,12.495,18.718c0.87,1.303,0.534,2.763,0.536,4.157
		c0.023,19.69,0.079,39.381-0.051,59.071c-0.019,2.942,0.579,4.007,3.739,3.847c5.281-0.268,5.646,0.315,5.656,5.76
		c0.005,2.591-0.135,5.19,0.033,7.77c0.235,3.63-1.168,5.262-4.936,5.141c-1.416-0.045-3.738-1.311-4.299,0.981
		c-0.567,2.317-0.206,4.402,2.237,6.321c9.258,7.272,9.363,20.849,0.31,28.382c-2.166,1.802-2.781,3.559-2.729,6.194
		c0.153,7.79,0.052,7.792-7.934,7.794c-0.13,0-0.259,0-0.389,0c-9.817,0.001-9.855,0.002-10.249-9.767
		c-0.058-1.448-0.467-2.337-1.655-3.181c-3.604-2.562-5.948-6.04-7.087-10.343c-0.493-1.864-4.402-3.833-6.13-3.296
		c-0.917,0.285-0.695,0.949-0.704,1.521c-0.122,8.203-2.819,15.461-8.049,21.759c-1.086,1.308-0.346,2.412,0.05,3.601
		c2.328,6.991,4.295,14.129,7.087,20.929c3.003,7.312-3.037,15.82-10.781,16.031c-6.214,0.169-12.436-0.012-18.652,0.092
		c-2.4,0.04-3.39-1.377-4.299-3.218c-3.148-6.374-6.42-12.688-9.502-19.094c-0.879-1.827-1.795-2.805-4.026-2.653
		c-3.993,0.274-8.776-1.114-11.794,0.65c-2.818,1.647-3.789,6.476-5.543,9.919c-1.937,3.801-3.929,7.577-5.725,11.444
		c-1.013,2.182-2.476,3.013-4.861,2.961c-5.697-0.124-11.401-0.149-17.098-0.019c-7.921,0.181-14.952-8.368-11.565-16.392
		c2.857-6.767,4.757-13.938,7.114-20.918c0.423-1.252,0.822-2.302-0.235-3.568c-5.53-6.622-7.982-14.377-7.945-22.995
		c-3.681,0.114-6.654,0.558-7.415,5.005c-0.48,2.803-2.227,5.464-4.625,6.988c-3.26,2.07-3.569,4.832-3.478,8.199
		c0.167,6.151-0.141,6.339-6.279,6.343c-2.85,0.002-5.7-0.009-8.55-0.001c-2.569,0.007-3.812-1.275-3.787-3.828
		c0.009-0.907-0.107-1.828,0.017-2.718c0.48-3.449-0.768-5.775-3.456-8.208c-8.373-7.58-7.737-20.408,0.949-27.674
		c1.13-0.945,2.529-1.469,2.576-3.503c0.063-2.798-0.378-4.101-3.682-3.917c-5.378,0.3-5.721-0.276-5.734-5.673
		c-0.006-2.72,0.123-5.448-0.031-8.159c-0.202-3.551,1.397-5.208,4.842-4.702c3.728,0.547,4.663-0.733,4.62-4.516
		c-0.223-19.429-0.067-38.862-0.147-58.292c-0.01-2.459,0.597-4.476,1.992-6.476c3.329-4.774,6.484-9.67,9.73-14.503
		c1.134-1.688,2.065-3.931,4.707-3.152c2.605,0.769,2.287,3.086,2.286,5.166c-0.006,25.779,0.055,51.558-0.075,77.336
		c-0.017,3.323,0.507,4.793,4.279,4.492c4.505-0.359,5.081,0.511,5.121,5.114c0.019,2.201,0.04,4.401,0.066,6.602
		c0.001,0.119,0.061,0.238,0.207,0.775c6.212-2.893,12.361-5.755,18.856-8.78c-2.654-1.78-5.042-3.207-7.241-4.882
		c-15.928-12.137-15.912-29.526,0.217-41.42c2.67-1.969,3.826-4.011,4.223-7.188C60.065,18.31,76.953,3.598,99.929,3.578
		c23.014-0.02,39.936,14.639,42.812,37.253c0.398,3.127,1.146,5.572,4.149,7.243c1.984,1.104,3.647,2.9,5.223,4.601
		c9.299,10.035,9.289,22.295,0.064,32.397C148.762,88.812,144.632,91.629,139.769,94.32z M99.975,102.989
		c5.407-0.143,10.463-1.475,14.666-4.653c3.621-2.738,7.621-4.126,11.84-5.407c8.008-2.432,15.456-5.992,21.247-12.285
		c5.651-6.14,6.508-12.893,2.947-19.604c-1.656-3.121-3.538-4.355-7.028-2.79c-2.22,0.995-4.796,1.185-7.037,2.145
		c-5.819,2.494-11.331,2.003-17.169-0.31c-10.629-4.211-22.06-5.842-32.662-1.694c-11.08,4.334-21.236,3.771-31.718-0.475
		c-2.515-1.019-3.723-0.049-5.01,1.935c-4.96,7.646-3.56,15.766,4.239,22.817c6.392,5.778,14.113,9.033,22.344,11.151
		c2.555,0.657,4.787,1.693,6.894,3.318C88.371,100.873,93.915,102.847,99.975,102.989z M66.623,30.824
		c1.7-0.282,2.954-0.53,4.22-0.692c5.563-0.714,11.107-2.782,16.678,0.164c8.329,4.405,16.689,4.299,25.085,0.022
		c3.839-1.955,7.902-2.004,12.076-1.006c2.767,0.662,5.619,0.969,8.763,1.489c-5.831-13.916-18.24-21.255-34.682-20.978
		C83.845,10.076,71.548,17.964,66.623,30.824z M142.615,52.138c-4.6-1.739-5.79-4.456-5.681-8.023
		c0.043-1.403-0.389-2.817-0.551-4.232c-0.187-1.636-1.026-2.394-2.688-2.749c-8.811-1.884-17.557-3.211-26.022,1.374
		c-0.673,0.364-1.494,0.444-2.194,0.769c-3.597,1.666-7.124,1.794-10.789,0.042c-8.703-4.162-17.662-5.027-27.079-2.43
		c-2.669,0.736-3.947,1.527-4.253,4.344c-0.442,4.072,0.41,8.874-6.002,10.84c4.818,1.401,8.523,2.41,12.178,3.573
		c1.692,0.539,3.253,0.538,4.88-0.132c17.143-7.058,34.281-6.936,51.423,0.03c1.177,0.478,2.351,0.785,3.744,0.342
		C133.521,54.633,137.524,53.583,142.615,52.138z M114.923,170.506c0.301-0.103,0.545-0.189,0.79-0.271
		c7.243-2.415,14.476-4.861,21.736-7.221c1.552-0.505,1.496-1.36,1.196-2.669c-2.308-10.079-2.288-10.083-11.877-6.883
		c-4.664,1.556-9.321,3.136-14.001,4.644c-1.342,0.432-2.747,0.89-4.134,0.928c-10.481,0.288-20.988,0.702-30.827-4.039
		c-1.387-0.669-2.936-1.003-4.409-1.493c-9.122-3.036-9.03-3.007-11.885,6.284c-0.697,2.268-0.002,2.918,1.958,3.543
		c6.657,2.121,13.294,4.311,19.879,6.645c1.988,0.705,3.153,0.488,3.844-1.576c0.894-2.671,2.92-3.233,5.526-3.156
		c4.788,0.142,9.588,0.159,14.375-0.005c2.767-0.095,4.795,0.555,5.847,3.331C113.275,169.45,113.541,170.659,114.923,170.506z
		 M109.235,152.699c7.806-2.601,15.274-5.1,22.752-7.568c0.909-0.3,1.812-0.567,1.649-1.749c-0.817-5.924-1.672-11.844-2.634-18.617
		c-7.498,5.765-15.32,7.112-23.684,6.386c-1.333-0.116-3.839-0.947-3.984,0.86c-0.245,3.04-1.803,7.079,0.814,9.108
		C108.087,144.175,109.751,147.64,109.235,152.699z M90.787,152.674c-0.338-3.74-0.361-7.556,2.608-9.23
		c4.173-2.352,3.277-5.789,3.542-9.26c0.202-2.647-0.784-3.334-3.251-3.13c-7.976,0.657-15.732,0.105-22.588-4.712
		c-1.283-0.901-2.261-1.1-2.526,1.011c-0.643,5.132-1.406,10.25-2.161,15.367c-0.175,1.184,0.04,1.923,1.325,2.341
		C75.314,147.523,82.871,150.052,90.787,152.674z M25.354,17.157c-3.627,5.224-6.531,9.171-6.378,15.237
		c0.459,18.22,0.198,36.46,0.126,54.691c-0.009,2.355,0.057,3.694,3.15,3.696c3.109,0.002,3.147-1.366,3.139-3.706
		c-0.066-20.042-0.038-40.084-0.038-60.126C25.354,24.034,25.354,21.117,25.354,17.157z M174.968,18.046
		c-0.161,0.376-0.33,0.587-0.33,0.798c-0.008,23.019,0.047,46.038-0.069,69.057c-0.014,2.718,1.161,2.761,3.218,2.811
		c2.212,0.053,3.146-0.323,3.128-2.901c-0.125-17.587-0.321-35.18,0.067-52.759C181.127,28.463,179.843,22.872,174.968,18.046z
		 M120.712,102.249c-2.844,1.538-5.61,2.9-8.237,4.49c-2.918,1.765-7.775,0.448-9.08,3.669c-1.258,3.106-0.282,7.118-0.286,10.731
		c-0.001,0.774,0.018,1.549,0.002,2.323c-0.019,0.961,0.436,1.37,1.393,1.397c7.872,0.218,15.744,0.595,22.586-4.526
		c1.173-0.878,1.035-1.523,0.575-2.545C125.342,112.626,123.039,107.455,120.712,102.249z M96.88,117.077
		c0-1.807-0.101-3.621,0.029-5.418c0.122-1.679-0.306-2.605-2.148-2.869c-4.941-0.709-9.378-2.758-13.466-5.555
		c-1.259-0.861-2.043-1.263-2.81,0.577c-1.932,4.636-3.974,9.23-6.1,13.781c-0.711,1.523-0.428,2.197,1.049,2.982
		c4.915,2.614,9.742,4.785,15.667,4.404C96.857,124.481,96.881,124.857,96.88,117.077z M180.838,131.478
		c0-6.467-0.087-12.936,0.047-19.4c0.047-2.293-0.821-2.869-2.94-2.803c-1.99,0.062-3.389,0.001-3.358,2.784
		c0.139,12.674,0.111,25.35,0.015,38.025c-0.017,2.29,0.82,2.869,2.939,2.803c1.99-0.062,3.446,0.004,3.358-2.786
		C180.703,143.899,180.837,137.686,180.838,131.478z M25.343,131.118c0-6.338-0.128-12.68,0.06-19.012
		c0.081-2.718-1.247-2.813-3.31-2.835c-2.054-0.022-3.006,0.408-2.988,2.755c0.099,12.675,0.121,25.353-0.013,38.027
		c-0.029,2.709,1.246,2.814,3.309,2.836c2.056,0.022,3.04-0.409,2.988-2.758C25.251,143.797,25.342,137.457,25.343,131.118z
		 M142.848,106.115c-0.174-1.413,0.819-3.013-1.008-3.87c-3.031-1.423-6.001-3.012-9.125-4.189c-2.229-0.84-6.291,1.477-5.665,2.934
		c2.896,6.744,5.882,13.451,8.906,20.138c0.781,1.727,2.625,1.686,4.067,1.552c1.556-0.144,1.096-1.793,1.228-2.857
		C141.821,115.222,142.329,110.615,142.848,106.115z M67.744,97.827c-2.555,1.162-5.557,2.608-8.627,3.891
		c-1.707,0.714-2.257,1.762-2.017,3.586c0.605,4.594,0.985,9.219,1.615,13.809c0.177,1.293-0.759,3.432,1.692,3.577
		c1.901,0.112,3.294-0.59,4.146-2.666c2.296-5.596,4.873-11.077,7.351-16.599C73.6,99.646,72.591,98.063,67.744,97.827z
		 M66.804,190.142v0.014c2.72,0,5.441,0.014,8.161-0.005c2.101-0.015,2.444-1.876,2.806-3.215c0.541-2-1.44-1.332-2.329-1.526
		c-5.94-1.299-11.898-2.523-17.872-3.656c-1.128-0.214-2.58-1.053-3.443,0.616c-0.682,1.319-0.937,2.641-0.212,4.078
		c1.155,2.288,2.95,3.593,5.505,3.677C61.88,190.205,64.343,190.142,66.804,190.142z M133.006,190.151
		c2.461,0,4.922,0.03,7.381-0.009c2.391-0.037,4.18-1.145,5.429-3.184c0.989-1.615,0.92-3.239-0.057-4.764
		c-0.94-1.468-2.389-0.626-3.541-0.407c-5.717,1.088-11.423,2.247-17.099,3.529c-1.046,0.236-3.194-0.501-2.928,1.462
		c0.246,1.809,1.125,3.703,3.826,3.431C128.325,189.977,130.675,190.161,133.006,190.151z M22.385,96.887
		c-3.231,0-6.47,0.139-9.691-0.044c-2.608-0.148-2.913,1.162-2.922,3.292c-0.01,2.103,0.564,3.022,2.842,2.98
		c6.331-0.117,12.668-0.128,18.998,0.006c2.373,0.05,3.15-0.733,3.126-3.101c-0.023-2.262-0.575-3.317-3.049-3.176
		C28.597,97.021,25.487,96.887,22.385,96.887z M177.731,103.074c3.231,0,6.467-0.114,9.691,0.038
		c2.34,0.111,2.855-0.972,2.779-3.024c-0.068-1.805,0.003-3.284-2.56-3.238c-6.589,0.118-13.183,0.12-19.772-0.001
		c-2.542-0.047-2.53,1.388-2.584,3.216c-0.06,2.022,0.387,3.161,2.756,3.047C171.263,102.958,174.5,103.074,177.731,103.074z
		 M56.84,173.829c-0.359,1.904,1.103,1.587,1.943,1.763c6.814,1.427,13.66,2.704,20.452,4.223c2.174,0.486,2.843-0.719,3.318-2.224
		c0.671-2.13-1.383-1.78-2.34-2.116c-5.716-2.002-11.483-3.861-17.231-5.774C58.85,168.326,57.016,169.604,56.84,173.829z
		 M143.176,174.059c-0.115-4.31-2.07-5.698-6.11-4.355c-5.993,1.991-11.999,3.946-17.972,5.994c-0.781,0.268-2.437,0.201-1.667,1.86
		c0.498,1.073,0.691,2.734,2.524,2.37c7.461-1.483,14.913-3.008,22.367-4.521C143.058,175.256,143.448,174.864,143.176,174.059z
		 M31.592,139.047c2.252-2.695,2.93-4.89,3.039-7.251c0.079-1.719,0.674-2.974,2.315-3.682c4.675-2.017,4.665-2.027,2.64-6.686
		c-0.877-2.018-1.681-4.07-2.618-6.061c-0.495-1.052-0.616-2.84-2.558-2.027c-1.389,0.581-2.884,1.001-2.856,3.129
		C31.651,123.684,31.592,130.902,31.592,139.047z M168.399,138.917c0-7.985-0.071-15.173,0.041-22.357
		c0.036-2.317-1.567-2.805-3.104-3.289c-1.918-0.605-1.904,1.292-2.386,2.312c-1.263,2.674-2.26,5.479-3.599,8.111
		c-1.212,2.384-0.927,3.748,1.938,4.038c2.742,0.277,4.061,1.692,4.13,4.557C165.471,134.459,166.188,136.547,168.399,138.917z
		 M150.592,106.274c-1.382-0.352-1.539,0.352-1.63,1.195c-0.538,5.004-1.045,10.013-1.666,15.007
		c-0.207,1.667,0.418,2.243,1.988,2.566c1.518,0.313,2.636,0.609,3.376-1.262c1.611-4.076,3.392-8.086,5.131-12.111
		c0.316-0.73,0.794-1.543-0.12-2.014C155.266,108.416,152.791,107.314,150.592,106.274z M50.837,105.759
		c-2.611,1.179-4.886,2.322-7.251,3.236c-1.729,0.668-2.03,1.45-1.225,3.164c1.753,3.73,3.358,7.537,4.849,11.381
		c0.76,1.96,1.878,1.845,3.615,1.514c2.066-0.394,1.983-1.568,1.811-3.074C52.039,116.738,51.471,111.492,50.837,105.759z
		 M58.328,149.517c2.146-5.726,2.256-11.049,3.011-16.238c0.193-1.324,1.862-3.444-1.048-3.836
		c-3.382-0.455-6.871,1.469-6.912,3.639C53.271,138.76,54.591,144.042,58.328,149.517z M141.612,149.603
		c3.828-5.62,5.146-11.014,4.991-16.815c-0.047-1.761-6.505-4.414-7.932-3.279c-0.32,0.255-0.52,0.944-0.442,1.372
		C139.312,136.833,139.378,142.974,141.612,149.603z M12.827,123.456c-4.084,5.364-3.955,10.774,0,14.623
		C12.827,133.356,12.827,128.716,12.827,123.456z M187.344,123.659c0,5.058,0,9.719,0,14.732
		C191.128,133.187,191.125,128.716,187.344,123.659z M99.854,152.813c1.802-0.127,3.001-1.038,3.146-2.782
		c0.162-1.946-0.951-3.191-2.904-3.302c-1.783-0.101-2.947,0.99-3.105,2.719C96.811,151.412,97.992,152.482,99.854,152.813z"/>
	<path fill="#94BD5A" d="M99.975,102.989c-6.061-0.142-11.605-2.116-16.446-5.852c-2.107-1.626-4.339-2.661-6.894-3.318
		c-8.231-2.118-15.952-5.372-22.344-11.151c-7.8-7.051-9.199-15.17-4.239-22.817c1.287-1.983,2.495-2.953,5.01-1.935
		c10.482,4.246,20.638,4.81,31.718,0.475c10.602-4.148,22.033-2.517,32.662,1.694c5.838,2.313,11.349,2.804,17.169,0.31
		c2.241-0.96,4.817-1.15,7.037-2.145c3.49-1.565,5.372-0.33,7.028,2.79c3.561,6.712,2.704,13.464-2.947,19.604
		c-5.791,6.292-13.239,9.852-21.247,12.285c-4.219,1.281-8.218,2.669-11.84,5.407C110.439,101.514,105.383,102.846,99.975,102.989z
		 M100.009,90.64c12.846,0.227,24.008-4.395,34.262-11.756c1.452-1.042,1.205-1.724,0.486-3.098
		c-1.464-2.797-2.833-3.239-5.534-1.213C117.867,83.09,105.095,86.04,91.09,83.65c-8.113-1.385-15.155-5.125-21.669-9.941
		c-2.333-1.724-2.813,0.217-3.702,1.504c-0.837,1.212-2.11,2.188,0.023,3.704C76.03,86.229,87.174,90.874,100.009,90.64z"/>
	<path fill="#94BC5A" d="M66.623,30.824c4.925-12.861,17.222-20.749,32.141-21c16.441-0.278,28.85,7.062,34.682,20.978
		c-3.144-0.52-5.996-0.827-8.763-1.489c-4.174-0.998-8.237-0.95-12.076,1.006c-8.396,4.277-16.756,4.383-25.085-0.022
		c-5.571-2.947-11.115-0.878-16.678-0.164C69.577,30.294,68.322,30.543,66.623,30.824z"/>
	<path fill="#4292E5" d="M142.615,52.138c-5.091,1.446-9.094,2.495-13.032,3.749c-1.393,0.443-2.567,0.136-3.744-0.342
		c-17.142-6.965-34.281-7.087-51.423-0.03c-1.627,0.67-3.188,0.67-4.88,0.132c-3.655-1.164-7.36-2.172-12.178-3.573
		c6.412-1.966,5.559-6.768,6.002-10.84c0.306-2.817,1.584-3.608,4.253-4.344c9.417-2.597,18.376-1.732,27.079,2.43
		c3.664,1.752,7.191,1.624,10.789-0.042c0.7-0.324,1.522-0.405,2.194-0.769c8.465-4.585,17.211-3.258,26.022-1.374
		c1.661,0.355,2.501,1.113,2.688,2.749c0.162,1.415,0.593,2.828,0.551,4.232C136.825,47.682,138.015,50.399,142.615,52.138z
		 M78.078,37.792c-3.35,0.077-6.087,2.901-6.063,6.254c0.025,3.336,2.822,6.136,6.159,6.166c3.489,0.031,6.398-2.967,6.26-6.451
		C84.303,40.431,81.411,37.716,78.078,37.792z M121.772,37.792c-3.357-0.005-6.158,2.742-6.218,6.1
		c-0.062,3.489,2.904,6.423,6.391,6.321c3.331-0.098,6.078-2.967,6.028-6.297C127.925,40.576,125.11,37.797,121.772,37.792z"/>
	<path fill="#64A758" d="M114.923,170.506c-1.381,0.153-1.648-1.056-1.982-1.938c-1.052-2.777-3.081-3.426-5.847-3.331
		c-4.787,0.165-9.587,0.147-14.375,0.005c-2.606-0.077-4.632,0.485-5.526,3.156c-0.691,2.064-1.856,2.281-3.844,1.576
		c-6.584-2.334-13.222-4.524-19.879-6.645c-1.959-0.624-2.655-1.275-1.958-3.543c2.855-9.291,2.763-9.319,11.885-6.284
		c1.473,0.49,3.022,0.824,4.409,1.493c9.839,4.741,20.346,4.327,30.827,4.039c1.387-0.038,2.792-0.496,4.134-0.928
		c4.68-1.508,9.337-3.087,14.001-4.644c9.589-3.199,9.569-3.196,11.877,6.883c0.3,1.309,0.356,2.164-1.196,2.669
		c-7.261,2.36-14.494,4.806-21.736,7.221C115.467,170.317,115.224,170.402,114.923,170.506z"/>
	<path fill="#F5DCB5" d="M109.235,152.699c0.516-5.059-1.147-8.524-5.088-11.579c-2.618-2.029-1.059-6.068-0.814-9.108
		c0.146-1.808,2.651-0.976,3.984-0.86c8.364,0.726,16.186-0.621,23.684-6.386c0.962,6.773,1.817,12.692,2.634,18.617
		c0.163,1.182-0.74,1.449-1.649,1.749C124.509,147.599,117.041,150.098,109.235,152.699z"/>
	<path fill="#F5DCB5" d="M90.787,152.674c-7.915-2.622-15.472-5.151-23.051-7.613c-1.285-0.417-1.499-1.157-1.325-2.341
		c0.755-5.118,1.518-10.235,2.161-15.367c0.265-2.111,1.243-1.912,2.526-1.011c6.856,4.817,14.612,5.369,22.588,4.712
		c2.467-0.203,3.453,0.484,3.251,3.13c-0.265,3.471,0.631,6.908-3.542,9.26C90.425,145.118,90.449,148.934,90.787,152.674z"/>
	<path fill="#CDD4D7" d="M25.354,17.157c0,3.96,0,6.876,0,9.793c0,20.042-0.029,40.084,0.038,60.126
		c0.008,2.34-0.03,3.708-3.139,3.706c-3.093-0.002-3.16-1.341-3.15-3.696c0.072-18.231,0.333-36.471-0.126-54.691
		C18.823,26.328,21.727,22.382,25.354,17.157z"/>
	<path fill="#CDD4D7" d="M174.968,18.046c4.875,4.825,6.159,10.416,6.013,17.005c-0.389,17.579-0.192,35.173-0.067,52.759
		c0.018,2.577-0.916,2.954-3.128,2.901c-2.057-0.049-3.232-0.093-3.218-2.811c0.117-23.018,0.061-46.038,0.069-69.057
		C174.637,18.633,174.807,18.422,174.968,18.046z"/>
	<path fill="#F5DCB5" d="M120.712,102.249c2.327,5.206,4.63,10.377,6.954,15.539c0.46,1.022,0.598,1.667-0.575,2.545
		c-6.842,5.121-14.714,4.744-22.586,4.526c-0.957-0.027-1.413-0.435-1.393-1.397c0.016-0.774-0.003-1.549-0.002-2.323
		c0.004-3.614-0.972-7.625,0.286-10.731c1.305-3.221,6.161-1.904,9.08-3.669C115.103,105.149,117.868,103.787,120.712,102.249z"/>
	<path fill="#F5DCB5" d="M96.88,117.077c0.001,7.78-0.023,7.404-7.78,7.902c-5.925,0.381-10.751-1.791-15.667-4.404
		c-1.477-0.785-1.76-1.46-1.049-2.982c2.126-4.551,4.168-9.144,6.1-13.781c0.767-1.841,1.552-1.438,2.81-0.577
		c4.088,2.797,8.525,4.846,13.466,5.555c1.843,0.264,2.27,1.19,2.148,2.869C96.779,113.456,96.88,115.27,96.88,117.077z"/>
	<path fill="#637885" d="M180.838,131.478c0,6.208-0.135,12.421,0.061,18.623c0.088,2.79-1.368,2.723-3.358,2.786
		c-2.119,0.066-2.957-0.513-2.939-2.803c0.096-12.675,0.124-25.351-0.015-38.025c-0.031-2.783,1.368-2.722,3.358-2.784
		c2.119-0.066,2.988,0.51,2.94,2.803C180.751,118.542,180.838,125.011,180.838,131.478z"/>
	<path fill="#637885" d="M25.343,131.118c0,6.338-0.091,12.678,0.047,19.013c0.051,2.349-0.933,2.781-2.988,2.758
		c-2.063-0.023-3.338-0.127-3.309-2.836c0.135-12.675,0.112-25.352,0.013-38.027c-0.018-2.347,0.933-2.777,2.988-2.755
		c2.062,0.022,3.39,0.117,3.31,2.835C25.215,118.439,25.343,124.78,25.343,131.118z"/>
	<path fill="#63A758" d="M142.848,106.115c-0.519,4.5-1.027,9.108-1.597,13.708c-0.132,1.063,0.328,2.712-1.228,2.857
		c-1.443,0.134-3.286,0.176-4.067-1.552c-3.024-6.688-6.01-13.394-8.906-20.138c-0.625-1.456,3.437-3.773,5.665-2.934
		c3.124,1.177,6.094,2.766,9.125,4.189C143.667,103.101,142.674,104.702,142.848,106.115z"/>
	<path fill="#63A758" d="M67.744,97.827c4.847,0.235,5.856,1.818,4.16,5.599c-2.478,5.521-5.055,11.002-7.351,16.599
		c-0.851,2.075-2.245,2.778-4.146,2.666c-2.451-0.145-1.515-2.283-1.692-3.577c-0.63-4.59-1.009-9.215-1.615-13.809
		c-0.24-1.824,0.31-2.872,2.017-3.586C62.187,100.435,65.19,98.989,67.744,97.827z"/>
	<path fill="#63A758" d="M66.804,190.142c-2.461,0-4.924,0.063-7.383-0.017c-2.555-0.084-4.351-1.389-5.505-3.677
		c-0.725-1.437-0.47-2.759,0.212-4.078c0.862-1.669,2.315-0.83,3.443-0.616c5.974,1.133,11.932,2.357,17.872,3.656
		c0.889,0.194,2.87-0.474,2.329,1.526c-0.362,1.339-0.705,3.201-2.806,3.215c-2.72,0.019-5.441,0.005-8.161,0.005V190.142z"/>
	<path fill="#63A758" d="M133.006,190.156c-2.331,0.005-4.681-0.179-6.988,0.053c-2.701,0.272-3.581-1.622-3.826-3.431
		c-0.266-1.962,1.882-1.225,2.928-1.462c5.676-1.282,11.382-2.441,17.099-3.529c1.152-0.219,2.601-1.062,3.541,0.407
		c0.977,1.526,1.046,3.149,0.057,4.764c-1.249,2.039-3.038,3.147-5.429,3.184C137.927,190.181,135.466,190.151,133.006,190.156z"/>
	<path fill="#37464C" d="M22.385,96.887c3.102,0,6.212,0.134,9.304-0.043c2.474-0.141,3.026,0.914,3.049,3.176
		c0.024,2.368-0.753,3.151-3.126,3.101c-6.33-0.134-12.667-0.123-18.998-0.006c-2.278,0.042-2.852-0.876-2.842-2.98
		c0.01-2.13,0.314-3.441,2.922-3.292C15.914,97.027,19.154,96.887,22.385,96.887z"/>
	<path fill="#37464C" d="M177.731,103.074c-3.231,0-6.468-0.116-9.691,0.039c-2.369,0.114-2.816-1.025-2.756-3.047
		c0.054-1.828,0.042-3.262,2.584-3.216c6.589,0.121,13.183,0.12,19.772,0.001c2.563-0.046,2.493,1.433,2.56,3.238
		c0.077,2.052-0.439,3.135-2.779,3.024C184.198,102.96,180.962,103.074,177.731,103.074z"/>
	<path fill="#408FE1" d="M56.84,173.829c0.175-4.225,2.01-5.503,6.142-4.128c5.748,1.913,11.514,3.772,17.231,5.774
		c0.957,0.335,3.012-0.014,2.34,2.116c-0.475,1.505-1.144,2.71-3.318,2.224c-6.792-1.519-13.638-2.796-20.452-4.223
		C57.943,175.416,56.482,175.733,56.84,173.829z"/>
	<path fill="#408FE1" d="M143.174,174.058c0.274,0.806-0.116,1.198-0.857,1.348c-7.455,1.513-14.907,3.039-22.367,4.521
		c-1.833,0.364-2.026-1.297-2.524-2.37c-0.769-1.659,0.886-1.592,1.667-1.86c5.973-2.049,11.979-4.003,17.972-5.994
		C141.106,168.361,143.061,169.749,143.174,174.058z"/>
	<path fill="#63A758" d="M31.592,139.047c0-8.145,0.06-15.363-0.037-22.579c-0.028-2.127,1.467-2.547,2.856-3.129
		c1.942-0.813,2.063,0.975,2.558,2.027c0.936,1.99,1.74,4.042,2.618,6.061c2.026,4.659,2.035,4.669-2.64,6.686
		c-1.641,0.708-2.235,1.963-2.315,3.682C34.522,134.156,33.844,136.352,31.592,139.047z"/>
	<path fill="#63A758" d="M168.399,138.917c-2.21-2.37-2.928-4.458-2.98-6.628c-0.069-2.865-1.388-4.28-4.13-4.557
		c-2.865-0.289-3.151-1.654-1.938-4.038c1.339-2.633,2.336-5.437,3.599-8.111c0.482-1.021,0.468-2.917,2.386-2.312
		c1.536,0.484,3.14,0.972,3.104,3.289C168.328,123.744,168.399,130.932,168.399,138.917z"/>
	<path fill="#4292E5" d="M150.592,106.274c2.199,1.04,4.674,2.142,7.078,3.381c0.915,0.471,0.436,1.284,0.12,2.014
		c-1.74,4.025-3.52,8.035-5.131,12.111c-0.74,1.871-1.858,1.575-3.376,1.262c-1.57-0.323-2.195-0.9-1.988-2.566
		c0.621-4.994,1.129-10.003,1.666-15.007C149.053,106.626,149.21,105.922,150.592,106.274z"/>
	<path fill="#4292E5" d="M50.837,105.759c0.634,5.734,1.201,10.979,1.8,16.221c0.172,1.506,0.255,2.681-1.811,3.074
		c-1.737,0.331-2.855,0.446-3.615-1.514c-1.491-3.843-3.096-7.65-4.849-11.381c-0.806-1.714-0.504-2.496,1.225-3.164
		C45.951,108.081,48.227,106.938,50.837,105.759z"/>
	<path fill="#8D6756" d="M58.328,149.517c-3.737-5.475-5.057-10.757-4.95-16.435c0.041-2.17,3.53-4.094,6.912-3.639
		c2.91,0.392,1.241,2.512,1.048,3.836C60.584,138.468,60.474,143.791,58.328,149.517z"/>
	<path fill="#8D6756" d="M141.612,149.603c-2.235-6.63-2.3-12.77-3.383-18.721c-0.078-0.429,0.122-1.118,0.442-1.372
		c1.428-1.136,7.885,1.518,7.932,3.279C146.758,138.589,145.44,143.983,141.612,149.603z"/>
	<path fill="#63A758" d="M12.827,123.456c0,5.26,0,9.901,0,14.623C8.873,134.23,8.744,128.82,12.827,123.456z"/>
	<path fill="#63A758" d="M187.344,123.659c3.781,5.057,3.784,9.528,0,14.732C187.344,133.378,187.344,128.717,187.344,123.659z"/>
	<path fill="#6C5044" d="M99.854,152.813c-1.862-0.331-3.043-1.401-2.863-3.364c0.159-1.73,1.322-2.82,3.105-2.719
		c1.952,0.11,3.065,1.356,2.904,3.302C102.855,151.775,101.656,152.686,99.854,152.813z"/>
	<path fill="#050603" d="M100.014,90.641c-12.84,0.233-23.985-4.412-34.273-11.724c-2.133-1.516-0.861-2.491-0.023-3.704
		c0.889-1.287,1.37-3.228,3.702-1.504c6.514,4.815,13.556,8.556,21.669,9.941c14.006,2.39,26.777-0.56,38.133-9.077
		c2.701-2.026,4.07-1.583,5.534,1.213c0.719,1.374,0.966,2.055-0.486,3.098C124.017,86.245,112.855,90.867,100.014,90.641z"/>
	<path fill="#03070B" d="M78.078,37.792c3.332-0.077,6.224,2.639,6.357,5.969c0.139,3.485-2.771,6.483-6.26,6.451
		c-3.338-0.03-6.135-2.83-6.159-6.166C71.991,40.693,74.729,37.869,78.078,37.792z"/>
	<path fill="#03070B" d="M121.772,37.792c3.338,0.005,6.152,2.784,6.202,6.123c0.049,3.33-2.697,6.199-6.028,6.297
		c-3.487,0.103-6.453-2.831-6.391-6.321C115.614,40.534,118.415,37.787,121.772,37.792z"/>
</g>
</svg>
