<?xml version="1.0" encoding="utf-8"?>
<!-- Generator: Adobe Illustrator 17.0.0, SVG Export Plug-In . SVG Version: 6.00 Build 0)  -->
<!DOCTYPE svg PUBLIC "-//W3C//DTD SVG 1.1//EN" "http://www.w3.org/Graphics/SVG/1.1/DTD/svg11.dtd">
<svg version="1.1" id="Layer_1" xmlns="http://www.w3.org/2000/svg" xmlns:xlink="http://www.w3.org/1999/xlink" x="0px" y="0px"
	 width="200px" height="200px" viewBox="0 0 200 200" enable-background="new 0 0 200 200" xml:space="preserve">
<g>
	<path d="M178.113,80.104c-13.076,0-25.643,0-37.798,0c0,7.75,0.078,15.274-0.032,22.794c-0.059,4.044-2.739,6.876-6.321,7.105
		c-3.226,0.206-6.372-2.211-6.965-5.501c-0.221-1.227-0.115-2.514-0.145-3.774c-0.085-3.644-0.091-7.291-0.267-10.93
		c-0.148-3.074-0.49-6.138-0.776-9.555c-17.09,0-34.113,0-51.954,0c0,13.04,0,26.227,0,40.005c5.409,0,10.404-0.001,15.399,0
		c4.486,0.001,8.974-0.072,13.458,0.029c4.285,0.096,7.186,2.802,7.273,6.56c0.09,3.9-2.916,6.803-7.4,6.857
		c-7.429,0.089-14.861,0.028-22.291,0.03c-1.377,0-2.753,0-4.51,0c2.472,14.191,5.731,27.594,13.669,39.348
		c2.866,4.244,6.255,7.77,12.115,7.922c3.532,0.092,6.023,3.754,5.686,7.129c-0.357,3.573-3.205,6.109-7.297,6.126
		c-13.215,0.053-25.9-2.592-37.964-7.988C23.071,168.852,1.121,129.305,6.66,86.671c5.225-40.22,37.868-73.18,79.01-79.778
		c57.246-9.18,110.296,37.398,108.472,95.239c-0.153,4.849-2.859,7.951-6.874,7.879c-3.993-0.072-6.445-3.217-6.627-8.094
		c-0.178-4.754-0.495-9.511-0.978-14.243C179.41,85.185,178.671,82.746,178.113,80.104z M59.944,120.086c0-13.507,0-26.616,0-39.963
		c-12.597,0-25.283,0-38.108,0c-3.516,13.37-3.557,26.591,0.05,39.963C34.664,120.086,47.236,120.086,59.944,120.086z
		 M124.039,66.197c-1.673-10.656-4.132-20.834-8.719-30.336c-2.048-4.242-4.55-8.411-7.57-12.005
		c-5.178-6.163-10.342-6.21-15.541-0.134C81.811,35.872,78.719,50.885,75.79,66.197C92.172,66.197,107.952,66.197,124.039,66.197z
		 M173.319,66.302c-10.602-21.351-26.446-35.562-49.476-43.427c8.062,14.192,11.383,28.729,14.109,43.427
		C149.719,66.302,161.056,66.302,173.319,66.302z M60.824,66.234c4.539-14.567,8.943-28.697,13.322-42.75
		c-21.219,7.453-37.158,21.539-47.498,42.75C38.877,66.234,50.341,66.234,60.824,66.234z M26.63,133.898
		c10.55,21.33,26.411,35.494,49.367,43.348c-7.932-14.18-11.396-28.57-14.001-43.348C50.339,133.898,38.875,133.898,26.63,133.898z"
		/>
	<path d="M149.268,158.857c-7.889-7.87-15.553-15.256-22.846-22.992c-1.601-1.698-2.846-4.759-2.577-6.991
		c0.669-5.555,7.274-7,11.674-2.713c6.626,6.454,13.13,13.033,19.635,19.609c1.074,1.086,1.892,2.427,3.146,4.066
		c6.644-6.658,12.651-12.679,18.66-18.698c1.782-1.785,3.514-3.625,5.365-5.336c3.225-2.982,6.878-3.025,9.693-0.217
		c2.864,2.856,2.936,6.467-0.188,9.668c-7.047,7.222-14.237,14.304-21.364,21.449c-0.59,0.591-1.138,1.224-2.86,3.085
		c2.526,1.99,5.21,3.782,7.507,5.979c5.265,5.036,10.353,10.259,15.491,15.428c4.173,4.198,4.627,7.665,1.481,10.886
		c-3.19,3.265-6.745,2.891-10.878-1.236c-7.333-7.323-14.633-14.679-22.335-22.41c-2.614,2.562-5.081,4.95-7.514,7.372
		c-5.066,5.043-10.095,10.123-15.175,15.151c-3.847,3.807-7.608,4.213-10.664,1.24c-3.022-2.94-2.676-6.904,1.046-10.648
		C133.968,174.101,141.415,166.7,149.268,158.857z"/>
</g>
</svg>
