<?xml version="1.0" encoding="utf-8"?>
<!-- Generator: Adobe Illustrator 17.0.0, SVG Export Plug-In . SVG Version: 6.00 Build 0)  -->
<!DOCTYPE svg PUBLIC "-//W3C//DTD SVG 1.1//EN" "http://www.w3.org/Graphics/SVG/1.1/DTD/svg11.dtd">
<svg version="1.1" id="Layer_1" xmlns="http://www.w3.org/2000/svg" xmlns:xlink="http://www.w3.org/1999/xlink" x="0px" y="0px"
	 width="200px" height="200px" viewBox="0 0 200 200" enable-background="new 0 0 200 200" xml:space="preserve">
<g>
	<path fill="#F06565" d="M54.86,44.204c0.635-2.39,1.271-4.78,1.906-7.171c2.479,0.163,3.497-1.329,4.096-3.461
		c1.243-4.425,2.416-8.881,3.903-13.226c2.655-7.756,9.696-12.124,17.617-10.114c12.753,3.236,25.403,6.908,37.901,11.062
		c0.118,0.728,0.075,1.534,0.381,2.172c2.745,5.723,2.318,11.436,0.513,17.357c-3.212,10.539-6.053,21.19-9.204,31.749
		c-1.929,6.466-2.843,13.432-8.787,18.048c-1.362,1.058-3.746,1.189-3.926,3.584c-12.922-3.27-25.732-6.961-38.381-11.133
		C53.45,80.623,49.799,73,51.729,65.217c1.318-5.316,2.959-10.554,4.524-15.807C56.871,47.335,57.066,45.475,54.86,44.204z
		 M89.573,68.878c-0.444,2.567,0.889,3.39,2.596,3.807c1.724,0.421,2.91-0.251,3.418-2.004c3.051-10.536,6.164-21.055,9.109-31.621
		c0.668-2.397-1.17-4.153-3.371-3.265c-2.641,1.066-5.213,2.438-7.562,4.046c-1.703,1.166-1.904,3.983,0.071,4.104
		c4.466,0.273,2.142,2.584,1.706,4.166C93.586,55.2,91.491,62.249,89.573,68.878z"/>
	<path fill="#FC9D3F" d="M108.561,149.617c0.008-2.367,0.015-4.735,0.023-7.102c2.307-0.651,2.908-2.246,2.888-4.521
		c-0.047-5.224-0.242-10.487,0.295-15.665c0.79-7.612,6.686-13.117,14.264-13.231c13.316-0.199,26.639,0.006,39.958,0.042
		c0.456,1.011,0.677,2.25,1.406,2.993c3.784,3.858,4.652,8.584,4.627,13.727c-0.065,13.473-0.188,26.95,0.051,40.42
		c0.113,6.372-0.825,12.125-5.48,16.846c-0.448,0.454-0.419,1.377-0.612,2.082c-13.186,0.044-26.375,0.304-39.555,0.057
		c-8.885-0.166-14.726-6.628-14.965-15.834c-0.132-5.098-0.12-10.205,0.011-15.303C111.53,151.817,110.81,150.298,108.561,149.617z
		 M161.63,154.951c0.021-3.916-0.297-5.32-3.218-7.936c-1.611-1.443-0.404-1.982,0.189-2.921c3.056-4.845,2.448-11.486-1.3-14.333
		c-4.338-3.294-13.091-2.568-16.601,1.371c-1.199,1.345-1.91,2.932-2.152,4.688c-0.232,1.686-0.149,3.397,1.986,3.803
		c2.036,0.387,3.821-0.005,4.178-2.489c0.505-3.515,2.934-3.885,5.786-3.699c2.863,0.186,3.827,2.021,3.894,4.529
		c0.077,2.866-0.587,5.293-4.115,5.48c-1.745,0.093-2.904,0.839-2.906,2.689c-0.002,1.868,1.233,2.404,2.917,2.704
		c4.327,0.77,5.733,2.938,5.058,7.407c-0.551,3.651-2.922,5.147-7.158,4.572c-2.353-0.319-3.96-1.434-4.34-3.899
		c-0.408-2.642-2.32-2.651-4.239-2.309c-2.211,0.394-2.119,2.168-1.829,3.82c0.282,1.609,0.962,3.074,2.055,4.336
		c3.184,3.68,9.883,4.966,15.265,2.906C159.371,164.035,161.602,160.374,161.63,154.951z"/>
	<path fill="#72E4E3" d="M13.787,157.723c-0.465-2.38-0.931-4.759-1.397-7.139c2.505-0.782,2.588-2.667,2.253-4.809
		c-0.79-5.051-1.847-10.086-2.222-15.17c-0.567-7.674,4.184-14.19,11.702-15.558c13.003-2.367,26.098-4.228,39.154-6.302
		c-0.019,0.992,0.612,1.51,1.325,2.089c4.726,3.832,6.745,9.104,7.68,14.888c1.935,11.969,3.8,23.949,5.72,35.921
		c0.925,5.767,2.041,11.483-0.311,17.243c-0.697,1.707-2.759,2.711-2.405,4.887c-12.803,2.101-25.57,4.46-38.42,6.215
		c-8.925,1.219-15.451-4.034-17.106-12.951c-0.956-5.152-1.78-10.329-2.562-15.511C16.88,159.425,16.011,158.017,13.787,157.723z
		 M51.489,129.809c-6.824-0.044-11.953,4.623-11.555,10.482c0.129,1.894,0.617,3.716,2.81,3.719
		c2.033,0.003,3.564-1.064,3.394-3.527c-0.159-2.3,0.938-3.797,3.109-4.519c2.219-0.738,4.263-0.473,5.747,1.44
		c1.888,2.434,1.467,5.105-0.247,7.281c-2.694,3.421-5.671,6.632-8.67,9.797c-3.356,3.542-3.88,7.593-2.811,12.142
		c0.54,2.296,1.823,3.105,4.048,2.741c5.416-0.885,10.829-1.793,16.254-2.62c2.1-0.32,3.241-1.349,2.844-3.511
		c-0.369-2.01-1.75-2.459-3.653-2.114c-3.681,0.666-7.399,1.136-11.073,1.835c-2.804,0.533-3.06-0.893-2.327-2.907
		c0.74-2.033,2.385-3.473,3.869-4.99c2.874-2.937,6.034-5.64,7.878-9.432C64.879,137.864,60.011,129.864,51.489,129.809z"/>
	<path fill="#0A0907" d="M108.561,149.617c2.249,0.681,2.969,2.2,2.91,4.511c-0.131,5.098-0.144,10.205-0.011,15.303
		c0.239,9.206,6.08,15.668,14.965,15.834c13.18,0.247,26.37-0.013,39.555-0.057c2.488,0.032,4.988,0.244,7.461,0.064
		c8.06-0.587,14.159-6.55,14.268-14.557c0.214-15.7,0.217-31.406-0.001-47.106c-0.113-8.158-6.453-14.191-14.629-14.567
		c-2.357-0.108-4.726,0.058-7.089,0.098c-13.32-0.036-26.642-0.241-39.958-0.042c-7.577,0.114-13.474,5.618-14.264,13.231
		c-0.537,5.178-0.343,10.441-0.295,15.665c0.021,2.275-0.58,3.869-2.888,4.521c-2.071-0.681-2.811-2.095-2.756-4.27
		c0.123-4.865-0.054-9.739,0.085-14.604c0.302-10.62,7.932-18.864,18.518-20.135c1.236-0.148,2.488-0.223,3.733-0.225
		c14.356-0.016,28.712-0.075,43.067,0.007c13.553,0.078,22.256,8.8,22.307,22.291c0.055,14.356,0.05,28.712,0.002,43.067
		c-0.045,13.581-8.677,22.255-22.221,22.308c-14.48,0.057-28.961,0.063-43.442-0.003c-13.364-0.061-21.923-8.688-22.01-22.056
		c-0.032-4.993,0.076-9.988-0.041-14.979C105.776,151.745,106.515,150.331,108.561,149.617z"/>
	<path fill="#070A0A" d="M13.787,157.723c2.224,0.294,3.093,1.703,3.41,3.802c0.782,5.181,1.606,10.359,2.562,15.511
		c1.655,8.917,8.181,14.17,17.106,12.951c12.85-1.755,25.618-4.114,38.42-6.215c2.212-0.297,4.448-0.479,6.633-0.911
		c9.587-1.895,14.525-8.755,13.044-18.41c-2.244-14.636-4.587-29.258-7.034-43.862c-1.481-8.84-8.097-13.914-16.977-13.17
		c-2.578,0.216-5.118,0.872-7.676,1.326c-13.056,2.073-26.151,3.934-39.154,6.302c-7.518,1.369-12.269,7.885-11.702,15.558
		c0.376,5.084,1.432,10.119,2.222,15.17c0.335,2.142,0.252,4.027-2.253,4.809c-2.064-0.228-2.951-1.439-3.242-3.452
		c-0.767-5.311-1.887-10.578-2.472-15.906c-1.134-10.322,6.493-20.184,17.219-22.043c15.37-2.663,30.772-5.162,46.2-7.459
		c10.887-1.621,21.228,5.817,23.136,16.654c2.682,15.239,5.209,30.511,7.451,45.82c1.832,12.512-5.775,22.301-18.266,24.31
		c-14.539,2.339-29.071,4.72-43.602,7.109c-11.582,1.905-21.939-4.928-24.359-16.354c-1.188-5.609-1.901-11.318-2.887-16.972
		C11.2,160.178,11.72,158.602,13.787,157.723z"/>
	<path fill="#0A0707" d="M120.284,21.294c-12.498-4.154-25.149-7.826-37.901-11.062c-7.921-2.01-14.962,2.358-17.617,10.114
		c-1.488,4.345-2.66,8.8-3.903,13.226c-0.599,2.133-1.617,3.624-4.096,3.461c-1.876-1.22-2.084-2.882-1.459-4.899
		c1.403-4.524,2.585-9.12,4.094-13.608c3.652-10.864,14.29-16.707,25.28-13.654c14.899,4.139,29.76,8.428,44.559,12.908
		c11.081,3.354,17.192,14.163,14.155,25.354c-4.048,14.919-8.365,29.773-12.928,44.543c-3.617,11.708-14.474,17.353-26.368,14.017
		c-14.289-4.007-28.543-8.141-42.773-12.353c-12.315-3.645-18.216-14.533-14.746-26.908c1.38-4.923,2.837-9.824,4.209-14.749
		c0.589-2.115,1.527-3.709,4.072-3.48c2.205,1.271,2.009,3.131,1.391,5.206c-1.565,5.253-3.205,10.491-4.524,15.807
		C49.799,73,53.45,80.623,60.88,83.073c12.649,4.171,25.46,7.863,38.381,11.133c2.483,0.774,4.931,1.703,7.457,2.294
		c8.136,1.904,15.58-1.904,18.073-9.928c4.659-14.993,9.04-30.08,13.174-45.227c2.131-7.807-2.141-15.102-9.784-17.885
		C125.619,22.527,123.045,21.543,120.284,21.294z"/>
	<path fill="#DA5A5A" d="M120.284,21.294c2.761,0.249,5.335,1.233,7.897,2.166c7.643,2.783,11.914,10.077,9.784,17.885
		c-4.134,15.147-8.515,30.233-13.174,45.227c-2.493,8.025-9.937,11.832-18.073,9.928c-2.526-0.591-4.974-1.52-7.457-2.294
		c0.179-2.395,2.564-2.527,3.926-3.584c5.944-4.616,6.858-11.582,8.787-18.048c3.15-10.558,5.991-21.21,9.204-31.749
		c1.805-5.921,2.232-11.634-0.513-17.357C120.359,22.828,120.402,22.023,120.284,21.294z"/>
	<path fill="#090404" d="M89.573,68.878c1.918-6.628,4.013-13.678,5.967-20.766c0.436-1.582,2.76-3.893-1.706-4.166
		c-1.976-0.121-1.775-2.938-0.071-4.104c2.35-1.608,4.921-2.98,7.562-4.046c2.202-0.889,4.039,0.868,3.371,3.265
		c-2.945,10.566-6.059,21.085-9.109,31.621c-0.507,1.753-1.694,2.425-3.418,2.004C90.462,72.268,89.129,71.445,89.573,68.878z"/>
	<path fill="#F18F37" d="M165.989,109.14c2.364-0.04,4.733-0.206,7.089-0.098c8.176,0.376,14.515,6.409,14.629,14.567
		c0.218,15.7,0.215,31.406,0.001,47.106c-0.109,8.006-6.208,13.97-14.268,14.557c-2.472,0.18-4.973-0.032-7.461-0.064
		c0.193-0.705,0.165-1.628,0.612-2.082c4.655-4.721,5.593-10.474,5.48-16.846c-0.239-13.469-0.116-26.946-0.051-40.42
		c0.025-5.143-0.843-9.869-4.627-13.727C166.666,111.391,166.444,110.151,165.989,109.14z"/>
	<path fill="#0B0702" d="M161.63,154.951c-0.029,5.423-2.259,9.083-6.533,10.719c-5.382,2.06-12.081,0.774-15.265-2.906
		c-1.092-1.262-1.773-2.727-2.055-4.336c-0.289-1.651-0.382-3.426,1.829-3.82c1.92-0.342,3.831-0.332,4.239,2.309
		c0.381,2.464,1.988,3.579,4.34,3.899c4.236,0.575,6.606-0.922,7.158-4.572c0.675-4.469-0.731-6.637-5.058-7.407
		c-1.684-0.3-2.919-0.836-2.917-2.704c0.002-1.85,1.162-2.596,2.906-2.689c3.528-0.187,4.192-2.614,4.115-5.48
		c-0.067-2.508-1.031-4.343-3.894-4.529c-2.852-0.186-5.281,0.184-5.786,3.699c-0.357,2.484-2.142,2.876-4.178,2.489
		c-2.134-0.406-2.218-2.117-1.986-3.803c0.242-1.756,0.953-3.343,2.152-4.688c3.511-3.939,12.263-4.665,16.601-1.371
		c3.749,2.846,4.357,9.488,1.3,14.333c-0.593,0.939-1.8,1.479-0.189,2.921C161.333,149.631,161.651,151.036,161.63,154.951z"/>
	<path fill="#64CFC9" d="M63.276,108.744c2.558-0.454,5.099-1.11,7.676-1.326c8.88-0.744,15.496,4.33,16.977,13.17
		c2.447,14.604,4.789,29.226,7.034,43.862c1.481,9.655-3.457,16.515-13.044,18.41c-2.186,0.432-4.421,0.614-6.633,0.911
		c-0.353-2.176,1.708-3.18,2.405-4.887c2.352-5.76,1.236-11.476,0.311-17.243c-1.92-11.971-3.786-23.952-5.72-35.921
		c-0.935-5.784-2.954-11.056-7.68-14.888C63.888,110.254,63.257,109.736,63.276,108.744z"/>
	<path fill="#040909" d="M51.489,129.809c8.521,0.055,13.39,8.056,9.615,15.817c-1.844,3.793-5.005,6.495-7.878,9.432
		c-1.484,1.517-3.129,2.957-3.869,4.99c-0.733,2.014-0.477,3.44,2.327,2.907c3.675-0.699,7.392-1.169,11.073-1.835
		c1.904-0.345,3.284,0.104,3.653,2.114c0.397,2.162-0.744,3.191-2.844,3.511c-5.425,0.827-10.838,1.735-16.254,2.62
		c-2.225,0.364-3.508-0.445-4.048-2.741c-1.069-4.549-0.545-8.6,2.811-12.142c2.999-3.165,5.976-6.376,8.67-9.797
		c1.713-2.176,2.134-4.847,0.247-7.281c-1.483-1.913-3.528-2.178-5.747-1.44c-2.17,0.722-3.268,2.219-3.109,4.519
		c0.17,2.463-1.361,3.53-3.394,3.527c-2.193-0.003-2.681-1.825-2.81-3.719C39.536,134.432,44.665,129.764,51.489,129.809z"/>
</g>
</svg>
