<?xml version="1.0" encoding="utf-8"?>
<!-- Generator: Adobe Illustrator 17.0.0, SVG Export Plug-In . SVG Version: 6.00 Build 0)  -->
<!DOCTYPE svg PUBLIC "-//W3C//DTD SVG 1.1//EN" "http://www.w3.org/Graphics/SVG/1.1/DTD/svg11.dtd">
<svg version="1.1" id="Layer_1" xmlns="http://www.w3.org/2000/svg" xmlns:xlink="http://www.w3.org/1999/xlink" x="0px" y="0px"
	 width="200px" height="200px" viewBox="0 0 200 200" enable-background="new 0 0 200 200" xml:space="preserve">
<g>
	<path d="M99.892,46.403c-11.137-0.054-20.121-9.231-19.97-20.399c0.148-10.955,9.195-19.81,20.188-19.759
		c11.144,0.051,20.12,9.22,19.967,20.396C119.927,37.602,110.883,46.457,99.892,46.403z"/>
	<path d="M100.058,120.079c-11.151,0.026-20.208-9.075-20.135-20.234c0.072-10.974,9.038-19.897,20.022-19.925
		c11.158-0.028,20.206,9.063,20.133,20.23C120.006,111.13,111.041,120.053,100.058,120.079z"/>
	<path d="M99.944,193.755c-11.141-0.029-20.148-9.183-20.022-20.347c0.124-10.961,9.146-19.838,20.136-19.812
		c11.15,0.026,20.147,9.17,20.019,20.344C119.952,184.909,110.934,193.784,99.944,193.755z"/>
</g>
</svg>
