<?xml version="1.0" encoding="utf-8"?>
<!-- Generator: Adobe Illustrator 17.0.0, SVG Export Plug-In . SVG Version: 6.00 Build 0)  -->
<!DOCTYPE svg PUBLIC "-//W3C//DTD SVG 1.1//EN" "http://www.w3.org/Graphics/SVG/1.1/DTD/svg11.dtd">
<svg version="1.1" id="Layer_1" xmlns="http://www.w3.org/2000/svg" xmlns:xlink="http://www.w3.org/1999/xlink" x="0px" y="0px"
	 width="200px" height="200px" viewBox="0 0 200 200" enable-background="new 0 0 200 200" xml:space="preserve">
<g>
	<path fill="#F7F9FA" d="M168.661,40.654c0.008-1.267-0.54-2.672,0.601-3.793c-1.429-4.2-3.764-6.013-8.227-6.071
		c-6.592-0.087-13.176-0.044-19.768-0.044H19.639c-8.531,0-11.093,2.482-11.199,10.57c-0.015,1.034,0.182,2.308,0.076,3.407v27.954
		H8.47V82.2c0,6.552,0,6.552,6.554,7.768c17.145,3.196,33.446,8.626,48.721,16.787c1.027,0.546,1.863,1.521,3.399,0.728
		c10.675-5.54,21.951-9.675,33.652-12.9c-0.456-1.631-1.802-2.249-2.737-3.174c-5.649-5.533-5.3-13.3,1.049-18.141
		c7.641-5.838,16.499-8.852,26.17-9.726c15.244-1.361,29.029,2.737,41.818,10.432c2.068-0.604,1.521-2.271,1.521-3.625
		C168.646,60.448,168.616,50.555,168.661,40.654z M63.228,45.16c0.456-2.402,2.266-4.157,4.813-4.528
		c1.711-0.247,2.676,1.092,2.912,2.89c-0.958,2.089-2.342,4.04-4.95,4.368C64.27,48.109,62.924,46.777,63.228,45.16z M51.61,34.161
		c3.087,0.051,2.988,2.366,2.904,4.484c0.167,1.973-0.585,3.633-2.737,3.611c-3.026-0.036-2.935-2.388-2.943-4.528
		C48.828,35.821,49.329,34.124,51.61,34.161z M35.415,40.64c2.54,0.4,4.03,2.242,4.775,4.339c-0.137,2.009-1.239,3.181-2.92,2.883
		c-2.517-0.437-4.357-2.126-4.729-4.586C32.298,41.615,33.758,40.378,35.415,40.64z M30.032,61.656
		c-2.205,0.109-4.242-0.248-4.281-2.628c-0.03-2.621,2.144-2.81,4.334-2.825c2.091-0.015,4.091,0.277,4.136,2.643
		C34.267,61.482,32.101,61.787,30.032,61.656z M35.271,77.322c-1.734-0.117-3.011-1.179-2.722-2.774
		c0.426-2.38,2.205-4.04,4.684-4.499c1.741-0.32,2.729,0.844,2.927,2.373C40.221,74.309,37.073,77.446,35.271,77.322z M51.755,83.78
		c-2.752,0.029-2.935-2.089-2.927-4.179c0.007-1.98,0.258-3.909,2.806-3.917c2.783,0,3.026,2.06,2.882,4.157
		C54.69,81.865,54.188,83.75,51.755,83.78z M51.8,71.586c-7.284,0.058-13.306-5.642-13.321-12.623
		c-0.008-6.952,6.044-12.74,13.275-12.689c7.086,0.044,13.024,5.671,13.161,12.47C65.06,65.653,59.069,71.52,51.8,71.586z
		 M68.01,77.33c-1.802,0.058-5.033-3.152-4.836-4.826c0.175-1.456,1.034-2.41,2.669-2.512c1.779-0.109,5.064,2.89,5.064,4.717
		C70.656,76.209,69.782,77.271,68.01,77.33z M73.439,61.656c-2.212,0.116-4.258-0.233-4.311-2.606
		c-0.053-2.613,2.106-2.832,4.303-2.854c2.091-0.015,4.106,0.277,4.174,2.621C77.674,61.438,75.522,61.802,73.439,61.656z
		 M168.661,40.654c0.008-1.267-0.54-2.672,0.601-3.793c-1.429-4.2-3.764-6.013-8.227-6.071c-6.592-0.087-13.176-0.044-19.768-0.044
		H19.639c-8.531,0-11.093,2.482-11.199,10.57c-0.015,1.034,0.182,2.308,0.076,3.407v27.954H8.47V82.2c0,6.552,0,6.552,6.554,7.768
		c17.145,3.196,33.446,8.626,48.721,16.787c1.027,0.546,1.863,1.521,3.399,0.728c10.675-5.54,21.951-9.675,33.652-12.9
		c-0.456-1.631-1.802-2.249-2.737-3.174c-5.649-5.533-5.3-13.3,1.049-18.141c7.641-5.838,16.499-8.852,26.17-9.726
		c15.244-1.361,29.029,2.737,41.818,10.432c2.068-0.604,1.521-2.271,1.521-3.625C168.646,60.448,168.616,50.555,168.661,40.654z
		 M63.228,45.16c0.456-2.402,2.266-4.157,4.813-4.528c1.711-0.247,2.676,1.092,2.912,2.89c-0.958,2.089-2.342,4.04-4.95,4.368
		C64.27,48.109,62.924,46.777,63.228,45.16z M51.61,34.161c3.087,0.051,2.988,2.366,2.904,4.484
		c0.167,1.973-0.585,3.633-2.737,3.611c-3.026-0.036-2.935-2.388-2.943-4.528C48.828,35.821,49.329,34.124,51.61,34.161z
		 M35.415,40.64c2.54,0.4,4.03,2.242,4.775,4.339c-0.137,2.009-1.239,3.181-2.92,2.883c-2.517-0.437-4.357-2.126-4.729-4.586
		C32.298,41.615,33.758,40.378,35.415,40.64z M30.032,61.656c-2.205,0.109-4.242-0.248-4.281-2.628
		c-0.03-2.621,2.144-2.81,4.334-2.825c2.091-0.015,4.091,0.277,4.136,2.643C34.267,61.482,32.101,61.787,30.032,61.656z
		 M35.271,77.322c-1.734-0.117-3.011-1.179-2.722-2.774c0.426-2.38,2.205-4.04,4.684-4.499c1.741-0.32,2.729,0.844,2.927,2.373
		C40.221,74.309,37.073,77.446,35.271,77.322z M51.755,83.78c-2.752,0.029-2.935-2.089-2.927-4.179
		c0.007-1.98,0.258-3.909,2.806-3.917c2.783,0,3.026,2.06,2.882,4.157C54.69,81.865,54.188,83.75,51.755,83.78z M51.8,71.586
		c-7.284,0.058-13.306-5.642-13.321-12.623c-0.008-6.952,6.044-12.74,13.275-12.689c7.086,0.044,13.024,5.671,13.161,12.47
		C65.06,65.653,59.069,71.52,51.8,71.586z M68.01,77.33c-1.802,0.058-5.033-3.152-4.836-4.826c0.175-1.456,1.034-2.41,2.669-2.512
		c1.779-0.109,5.064,2.89,5.064,4.717C70.656,76.209,69.782,77.271,68.01,77.33z M73.439,61.656
		c-2.212,0.116-4.258-0.233-4.311-2.606c-0.053-2.613,2.106-2.832,4.303-2.854c2.091-0.015,4.106,0.277,4.174,2.621
		C77.674,61.438,75.522,61.802,73.439,61.656z M168.661,40.654c0.008-1.267-0.54-2.672,0.601-3.793
		c-1.429-4.2-3.764-6.013-8.227-6.071c-6.592-0.087-13.176-0.044-19.768-0.044H19.639c-8.531,0-11.093,2.482-11.199,10.57
		c-0.015,1.034,0.182,2.308,0.076,3.407v27.954H8.47V82.2c0,6.552,0,6.552,6.554,7.768c17.145,3.196,33.446,8.626,48.721,16.787
		c1.027,0.546,1.863,1.521,3.399,0.728c10.675-5.54,21.951-9.675,33.652-12.9c-0.456-1.631-1.802-2.249-2.737-3.174
		c-5.649-5.533-5.3-13.3,1.049-18.141c7.641-5.838,16.499-8.852,26.17-9.726c15.244-1.361,29.029,2.737,41.818,10.432
		c2.068-0.604,1.521-2.271,1.521-3.625C168.646,60.448,168.616,50.555,168.661,40.654z M63.228,45.16
		c0.456-2.402,2.266-4.157,4.813-4.528c1.711-0.247,2.676,1.092,2.912,2.89c-0.958,2.089-2.342,4.04-4.95,4.368
		C64.27,48.109,62.924,46.777,63.228,45.16z M51.61,34.161c3.087,0.051,2.988,2.366,2.904,4.484
		c0.167,1.973-0.585,3.633-2.737,3.611c-3.026-0.036-2.935-2.388-2.943-4.528C48.828,35.821,49.329,34.124,51.61,34.161z
		 M35.415,40.64c2.54,0.4,4.03,2.242,4.775,4.339c-0.137,2.009-1.239,3.181-2.92,2.883c-2.517-0.437-4.357-2.126-4.729-4.586
		C32.298,41.615,33.758,40.378,35.415,40.64z M30.032,61.656c-2.205,0.109-4.242-0.248-4.281-2.628
		c-0.03-2.621,2.144-2.81,4.334-2.825c2.091-0.015,4.091,0.277,4.136,2.643C34.267,61.482,32.101,61.787,30.032,61.656z
		 M35.271,77.322c-1.734-0.117-3.011-1.179-2.722-2.774c0.426-2.38,2.205-4.04,4.684-4.499c1.741-0.32,2.729,0.844,2.927,2.373
		C40.221,74.309,37.073,77.446,35.271,77.322z M51.755,83.78c-2.752,0.029-2.935-2.089-2.927-4.179
		c0.007-1.98,0.258-3.909,2.806-3.917c2.783,0,3.026,2.06,2.882,4.157C54.69,81.865,54.188,83.75,51.755,83.78z M51.8,71.586
		c-7.284,0.058-13.306-5.642-13.321-12.623c-0.008-6.952,6.044-12.74,13.275-12.689c7.086,0.044,13.024,5.671,13.161,12.47
		C65.06,65.653,59.069,71.52,51.8,71.586z M68.01,77.33c-1.802,0.058-5.033-3.152-4.836-4.826c0.175-1.456,1.034-2.41,2.669-2.512
		c1.779-0.109,5.064,2.89,5.064,4.717C70.656,76.209,69.782,77.271,68.01,77.33z M73.439,61.656
		c-2.212,0.116-4.258-0.233-4.311-2.606c-0.053-2.613,2.106-2.832,4.303-2.854c2.091-0.015,4.106,0.277,4.174,2.621
		C77.674,61.438,75.522,61.802,73.439,61.656z M168.661,40.654c0.008-1.267-0.54-2.672,0.601-3.793
		c-1.429-4.2-3.764-6.013-8.227-6.071c-6.592-0.087-13.176-0.044-19.768-0.044H19.639c-8.531,0-11.093,2.482-11.199,10.57
		c-0.015,1.034,0.182,2.308,0.076,3.407v27.954H8.47V82.2c0,6.552,0,6.552,6.554,7.768c17.145,3.196,33.446,8.626,48.721,16.787
		c1.027,0.546,1.863,1.521,3.399,0.728c10.675-5.54,21.951-9.675,33.652-12.9c-0.456-1.631-1.802-2.249-2.737-3.174
		c-5.649-5.533-5.3-13.3,1.049-18.141c7.641-5.838,16.499-8.852,26.17-9.726c15.244-1.361,29.029,2.737,41.818,10.432
		c2.068-0.604,1.521-2.271,1.521-3.625C168.646,60.448,168.616,50.555,168.661,40.654z M63.228,45.16
		c0.456-2.402,2.266-4.157,4.813-4.528c1.711-0.247,2.676,1.092,2.912,2.89c-0.958,2.089-2.342,4.04-4.95,4.368
		C64.27,48.109,62.924,46.777,63.228,45.16z M51.61,34.161c3.087,0.051,2.988,2.366,2.904,4.484
		c0.167,1.973-0.585,3.633-2.737,3.611c-3.026-0.036-2.935-2.388-2.943-4.528C48.828,35.821,49.329,34.124,51.61,34.161z
		 M35.415,40.64c2.54,0.4,4.03,2.242,4.775,4.339c-0.137,2.009-1.239,3.181-2.92,2.883c-2.517-0.437-4.357-2.126-4.729-4.586
		C32.298,41.615,33.758,40.378,35.415,40.64z M30.032,61.656c-2.205,0.109-4.242-0.248-4.281-2.628
		c-0.03-2.621,2.144-2.81,4.334-2.825c2.091-0.015,4.091,0.277,4.136,2.643C34.267,61.482,32.101,61.787,30.032,61.656z
		 M35.271,77.322c-1.734-0.117-3.011-1.179-2.722-2.774c0.426-2.38,2.205-4.04,4.684-4.499c1.741-0.32,2.729,0.844,2.927,2.373
		C40.221,74.309,37.073,77.446,35.271,77.322z M51.755,83.78c-2.752,0.029-2.935-2.089-2.927-4.179
		c0.007-1.98,0.258-3.909,2.806-3.917c2.783,0,3.026,2.06,2.882,4.157C54.69,81.865,54.188,83.75,51.755,83.78z M51.8,71.586
		c-7.284,0.058-13.306-5.642-13.321-12.623c-0.008-6.952,6.044-12.74,13.275-12.689c7.086,0.044,13.024,5.671,13.161,12.47
		C65.06,65.653,59.069,71.52,51.8,71.586z M68.01,77.33c-1.802,0.058-5.033-3.152-4.836-4.826c0.175-1.456,1.034-2.41,2.669-2.512
		c1.779-0.109,5.064,2.89,5.064,4.717C70.656,76.209,69.782,77.271,68.01,77.33z M73.439,61.656
		c-2.212,0.116-4.258-0.233-4.311-2.606c-0.053-2.613,2.106-2.832,4.303-2.854c2.091-0.015,4.106,0.277,4.174,2.621
		C77.674,61.438,75.522,61.802,73.439,61.656z"/>
	<path fill="#090908" d="M169.263,36.863c-1.431-4.204-3.762-6.015-8.231-6.073c-6.587-0.086-13.176-0.041-19.764-0.041
		c-40.543-0.002-81.086-0.003-121.628,0c-8.532,0-11.091,2.483-11.203,10.571c-0.033,2.354,1.058,5.985-2.946,5.892
		c-3.953-0.092-2.705-3.722-2.725-6.048C2.677,30.34,8.13,25.185,19.51,25.178c17.231-0.009,34.463-0.11,51.691,0.082
		c3.761,0.042,5.189-0.604,5.047-4.589c-0.22-6.206,3.96-11.025,9.694-12.334c5.681-1.297,11.408,1.055,14.35,5.85
		c1.536,2.504,2.036,5.245,1.779,8.053c-0.222,2.421,0.682,3.002,3.138,2.988c17.864-0.099,35.728-0.061,53.592-0.049
		c11.2,0.007,16.612,5.139,16.626,15.753c0.013,10.311,0.151,20.625-0.083,30.931c-0.072,3.178,0.982,3.39,3.62,2.541
		c3.732-1.201,7.329-2.574,10.608-4.742c3.772-2.495,7.169-1.092,7.559,3.225c0.813,8.995,0.142,17.764-6.269,25.095
		c-1.225,1.401-0.589,2.39-0.086,3.576c3.458,8.159,4.795,16.615,3.174,25.3c-3.745,20.063-21.048,33.903-43.509,34.916
		c-3.405,0.154-6.847,0.043-10.24-0.268c-2.126-0.195-2.459,0.221-1.741,2.071c1.453,3.743,2.786,7.531,4.112,11.318
		c2.585,7.386-0.42,14.088-7.311,16.397c-6.949,2.328-13.632-1.113-16.353-8.446c-1.775-4.785-3.511-9.582-5.349-14.603
		c-2.163,1.284-4.164,2.527-6.551,2.945c-6.531,1.143-12.872-2.538-14.546-8.834c-0.588-2.211-1.477-2.835-3.769-2.777
		c-6.077,0.155-12.164,0.156-18.241-0.003c-2.163-0.057-3.082,0.63-3.74,2.555c-2.401,7.015-4.944,13.986-7.522,20.944
		c-2.643,7.134-9.317,10.501-16.15,8.25c-6.83-2.249-10.052-8.898-7.566-15.965c3.51-9.98,7.069-19.945,10.782-29.856
		c0.922-2.461,0.563-3.125-2.234-3.082c-8.74,0.137-17.484,0.097-26.225,0.036c-9.403-0.065-15.054-5.555-15.063-14.609
		C2.71,105.042,2.726,82.237,2.724,59.431c0-2.072-0.324-4.547,2.775-4.631c3.133-0.085,2.964,2.382,2.966,4.475
		c0.009,7.642,0.004,15.285,0.004,22.927c0,6.549,0,6.549,6.557,7.769c17.142,3.191,33.44,8.624,48.717,16.784
		c1.025,0.547,1.862,1.524,3.4,0.726c10.672-5.536,21.951-9.675,33.65-12.895c-0.455-1.637-1.798-2.254-2.737-3.175
		c-5.645-5.534-5.295-13.3,1.049-18.146c7.639-5.835,16.497-8.852,26.17-9.72c15.249-1.368,29.027,2.737,41.819,10.427
		c0.672,0.645,1.308,1.746,2.37,1.213c0.834-0.419,0.309-1.544,0.311-2.336c0.033-10.948,0.027-21.896,0.014-32.844
		C169.789,38.939,169.987,37.825,169.263,36.863z M165.344,125.448l0.055-0.083c-4.999,4.07-10.03,8.105-14.979,12.23
		c-1.676,1.398-3.282,2.258-5.369,0.86c-1.199-2.133-0.257-3.59,1.496-4.992c4.274-3.419,8.328-7.1,12.717-10.371
		c3.253-2.424,4.155-5.953,5.767-9.197c0.624-1.255-0.296-1.776-0.973-2.432c-3.115-3.016-6.237-6.025-9.39-9.006
		c-0.681-0.643-1.306-1.667-2.528-1.132c-3.179,1.391-6.682,2.076-9.165,4.854c-14.154,15.839-28.411,31.594-42.611,47.395
		c-3.367,3.746-3.565,7.582-0.648,10.346c2.945,2.79,6.852,2.56,10.823-0.704c7.779-6.395,15.557-12.791,23.282-19.245
		c1.766-1.476,3.433-2.532,5.661-0.908c0.875,1.933,0.302,3.397-1.395,4.705c-2.457,1.894-4.792,3.934-7.634,6.288
		c4.045,0.991,7.233,1.959,10.637,1.888c4.155,0.825,8.325,0.499,12.477,0.056c26.718-2.857,42.185-27.091,32.49-50.892
		c-0.451-1.107-0.477-2.984-2.638-1.934c-1.365,0.663-3.436,0.328-2.922,3.192c0.784,4.365-1.369,8.269-5.349,8.772
		c-4.609,0.583-6.203,3.091-7.414,6.623c-0.347,1.012-1.049,1.912-1.588,2.863C165.879,124.899,165.612,125.173,165.344,125.448z
		 M152.553,87.48c1.782-0.935,3.595-1.727,5.715-1.605c0.841,0.048,6.418-5.495,6.277-6.26c-0.07-0.38-0.503-0.783-0.879-1.014
		c-11.813-7.262-24.511-11.182-38.722-9.322c-7.801,0.455-14.782,3.101-21.081,7.415c-5.172,3.543-5.386,7.41-0.742,11.72
		c5.222,4.847,8.953,10.488,10.318,17.415c1.6,8.121-1.638,15.367-8.486,19.046c-6.804,3.655-7.296,7.326-1.974,12.865
		c1.727,1.798,2.612,1.737,4.267-0.133c9.745-11.01,19.697-21.852,29.438-32.865c2.932-3.314,6.074-6.146,10.485-7.459
		c1.365-0.406,2.576-0.81,2.293-2.69C149.025,91.704,150.549,89.465,152.553,87.48z M94.657,136.863
		c-1.816-7.918-0.225-12.655,5.189-15.701c8.258-4.646,10.101-10.192,6.56-18.887c-0.969-2.379-2.047-2.962-4.695-2.233
		c-23.748,6.543-44.89,17.482-62.925,33.756c-0.946,0.854-1.802,1.8-3.059,3.065C55.81,136.863,75.217,136.863,94.657,136.863z
		 M60.215,111.228c-15.827-8.368-32.182-13.508-49.374-16.369c-1.904-0.317-2.393,0.304-2.382,2.056
		c0.066,10.662-0.053,21.325,0.084,31.985c0.065,5.017,3.421,7.972,8.733,8.115c2.655,0.072,5.316-0.038,7.971,0.035
		c1.357,0.037,2.38-0.309,3.342-1.284C37.843,126.391,48.236,118.335,60.215,111.228z M60.62,142.548
		c-1.647,0-3.301,0.087-4.94-0.024c-1.666-0.114-2.439,0.494-2.985,2.039c-3.899,11.016-7.974,21.975-11.846,32.999
		c-1.42,4.045,0.595,7.579,4.516,8.619c3.651,0.969,6.84-0.853,8.36-4.996c3.943-10.746,7.806-21.518,11.7-32.28
		C67.728,142.542,67.727,142.542,60.62,142.548z M191.392,75.13c-5.363,3.163-10.813,4.589-16.332,5.873
		c-3.235,0.753-6.21,2.076-8.28,4.754c-1.534,1.984-1.926,3.801,0.429,5.632c1.757,1.366,3.248,3.046,4.857,4.585
		c4.024,3.85,5.836,4.08,10.823,1.361c3.341-1.822,5.475-4.609,6.797-7.991C191.397,84.964,191.788,80.421,191.392,75.13z
		 M137.893,180.086c-0.05-0.429-0.024-0.81-0.143-1.146c-2.105-5.96-4.23-11.913-6.345-17.87c-0.263-0.74-0.775-1.105-1.542-1.428
		c-3.336-1.402-10.064,1.186-11.253,4.456c-0.144,0.397-0.002,0.946,0.154,1.377c2.065,5.716,4.018,11.474,6.295,17.111
		c1.251,3.096,4.069,4.297,7.426,3.642C135.882,185.565,137.528,183.247,137.893,180.086z M69.754,154.077
		c7.614,0,14.78-0.013,21.946,0.015c1.047,0.004,1.517-0.591,2.081-1.274c1.873-2.271,3.849-4.464,5.707-6.745
		c0.624-0.766,2.091-1.315,1.256-2.653c-0.576-0.923-1.649-0.961-2.695-0.959c-7.318,0.015-14.637,0.007-21.955,0.01
		c-1.132,0-2.228-0.113-2.704,1.334C72.3,147.116,71.071,150.385,69.754,154.077z M89.155,25.093c1.761,0,3.522,0.017,5.282-0.008
		c0.723-0.01,1.406,0.043,1.778-0.891c1.185-2.98-0.533-8.015-3.453-9.649c-2.8-1.566-5.564-1.364-8.108,0.499
		c-3.157,2.312-3.436,5.834-2.534,8.886c0.73,2.472,3.894,0.687,5.906,1.161C88.382,25.175,88.778,25.103,89.155,25.093z
		 M157.664,91.416c-0.998,0.183-1.806,0.66-2.2,1.675c-0.522,1.346,0.117,2.339,1.053,3.235c4.374,4.187,8.761,8.361,13.126,12.556
		c1.277,1.227,2.723,2.053,4.278,0.7c1.717-1.494,0.953-3.044-0.439-4.378c-4.37-4.189-8.755-8.364-13.132-12.547
		C159.619,91.959,158.831,91.382,157.664,91.416z"/>
	<path fill="#090908" d="M51.797,71.585c-7.283,0.063-13.305-5.644-13.315-12.619c-0.01-6.957,6.04-12.741,13.276-12.693
		c7.084,0.047,13.017,5.671,13.16,12.475C65.064,65.656,59.067,71.522,51.797,71.585z M59.078,59.063
		c0.063-4.025-3.17-7.189-7.36-7.203c-4.179-0.014-7.458,3.141-7.428,7.147c0.029,3.865,3.147,6.917,7.174,7.021
		C55.655,66.137,59.016,63.062,59.078,59.063z"/>
	<path fill="#F9EBAA" d="M169.263,36.863c0.723,0.963,0.526,2.076,0.527,3.143c0.013,10.948,0.019,21.896-0.014,32.844
		c-0.002,0.792,0.523,1.918-0.311,2.336c-1.062,0.533-1.698-0.568-2.37-1.213c2.064-0.606,1.519-2.267,1.523-3.627
		c0.031-9.896-0.005-19.793,0.044-29.689C168.668,39.39,168.122,37.986,169.263,36.863z"/>
	<path fill="#090908" d="M70.949,43.524c-0.953,2.088-2.337,4.037-4.946,4.367c-1.734,0.219-3.081-1.116-2.775-2.729
		c0.457-2.405,2.263-4.158,4.812-4.527C69.752,40.388,70.714,41.724,70.949,43.524z"/>
	<path fill="#090908" d="M54.518,38.648c0.166,1.966-0.591,3.626-2.737,3.604c-3.031-0.031-2.942-2.382-2.947-4.525
		c-0.005-1.909,0.496-3.6,2.776-3.566C54.698,34.209,54.601,36.524,54.518,38.648z"/>
	<path fill="#090908" d="M40.189,44.975c-0.133,2.015-1.235,3.183-2.921,2.889c-2.513-0.438-4.357-2.127-4.723-4.587
		c-0.247-1.662,1.214-2.901,2.869-2.638C37.955,41.043,39.442,42.878,40.189,44.975z"/>
	<path fill="#090908" d="M73.437,61.657c-2.207,0.114-4.258-0.234-4.309-2.604c-0.057-2.618,2.105-2.838,4.307-2.853
		c2.09-0.015,4.106,0.275,4.168,2.621C77.672,61.435,75.524,61.799,73.437,61.657z"/>
	<path fill="#090908" d="M70.908,74.707c-0.255,1.5-1.123,2.562-2.895,2.621c-1.805,0.06-5.035-3.148-4.838-4.826
		c0.171-1.455,1.035-2.407,2.665-2.508C67.624,69.884,70.904,72.883,70.908,74.707z"/>
	<path fill="#090908" d="M30.032,61.659c-2.204,0.107-4.245-0.247-4.277-2.627c-0.035-2.626,2.14-2.814,4.33-2.83
		c2.091-0.016,4.091,0.281,4.136,2.645C34.27,61.483,32.102,61.785,30.032,61.659z"/>
	<path fill="#090908" d="M54.515,79.842c0.176,2.024-0.329,3.91-2.761,3.935c-2.753,0.029-2.934-2.088-2.926-4.177
		c0.008-1.977,0.256-3.907,2.802-3.912C54.414,75.683,54.658,77.745,54.515,79.842z"/>
	<path fill="#090908" d="M40.163,72.422c0.059,1.89-3.092,5.027-4.895,4.902c-1.732-0.12-3.011-1.179-2.721-2.778
		c0.429-2.377,2.204-4.035,4.686-4.493C38.974,69.731,39.963,70.895,40.163,72.422z"/>
	<path fill="#F9EBAA" d="M152.553,87.48c-2.004,1.985-3.527,4.224-3.092,7.112c0.283,1.88-0.928,2.284-2.293,2.69
		c-4.411,1.313-7.553,4.145-10.485,7.459c-9.742,11.012-19.694,21.854-29.438,32.865c-1.655,1.87-2.54,1.931-4.267,0.133
		c-5.321-5.538-4.83-9.21,1.974-12.865c6.848-3.679,10.087-10.925,8.486-19.046c-1.365-6.927-5.096-12.568-10.318-17.415
		c-4.644-4.31-4.431-8.177,0.742-11.72c6.299-4.315,13.28-6.96,21.08-7.415c5.442,1.584,10.577,3.921,15.144,7.071
		C144.692,79.526,149.79,82.351,152.553,87.48z"/>
	<path fill="#F5B965" d="M139.482,143.063c-2.228-1.624-3.894-0.567-5.66,0.908c-7.725,6.454-15.503,12.851-23.282,19.245
		c-3.971,3.265-7.879,3.494-10.823,0.704c-2.917-2.764-2.719-6.6,0.648-10.346c14.2-15.801,28.457-31.556,42.611-47.395
		c2.483-2.778,5.986-3.462,9.165-4.854c1.222-0.535,1.847,0.488,2.528,1.132c3.152,2.98,6.275,5.989,9.39,9.006
		c0.677,0.656,1.597,1.177,0.973,2.432c-1.612,3.243-2.514,6.772-5.767,9.197c-4.39,3.271-8.444,6.952-12.717,10.371
		c-1.753,1.402-2.695,2.859-1.496,4.992C143.195,139.991,141.339,141.527,139.482,143.063z"/>
	<path fill="#F9EBAA" d="M94.657,136.863c-19.44,0-38.846,0-58.93,0c1.258-1.265,2.113-2.212,3.059-3.065
		c18.035-16.274,39.177-27.213,62.925-33.756c2.648-0.73,3.726-0.147,4.695,2.233c3.541,8.695,1.698,14.241-6.56,18.887
		C94.432,124.208,92.841,128.945,94.657,136.863z"/>
	<path fill="#B5E56A" d="M60.215,111.228c-11.979,7.107-22.372,15.163-31.627,24.539c-0.962,0.975-1.985,1.321-3.342,1.284
		c-2.655-0.073-5.316,0.036-7.971-0.035c-5.312-0.143-8.668-3.098-8.733-8.115c-0.137-10.66-0.018-21.323-0.084-31.985
		c-0.011-1.752,0.479-2.373,2.382-2.056C28.033,97.72,44.388,102.859,60.215,111.228z"/>
	<path fill="#F3E178" d="M166.146,124.625c0.539-0.951,1.241-1.851,1.588-2.863c1.211-3.532,2.804-6.04,7.414-6.623
		c3.98-0.504,6.133-4.407,5.349-8.772c-0.514-2.864,1.557-2.528,2.922-3.192c2.161-1.051,2.187,0.826,2.638,1.934
		c9.694,23.801-5.772,48.035-32.49,50.892c-4.152,0.444-8.322,0.77-12.476-0.056c3.225-1.872,6.699-3.443,9.625-5.674
		c8.35-6.365,14.376-14.128,14.683-24.906l-0.054,0.082C165.612,125.173,165.879,124.899,166.146,124.625z"/>
	<path fill="#F5B965" d="M60.62,142.545c7.108-0.003,7.108-0.003,4.806,6.36c-3.895,10.762-7.758,21.534-11.7,32.28
		c-1.52,4.142-4.709,5.965-8.36,4.996c-3.921-1.041-5.936-4.574-4.516-8.619c3.871-11.025,7.947-21.983,11.846-32.999
		c0.547-1.545,1.32-2.153,2.985-2.039C57.318,142.635,58.972,142.548,60.62,142.545z"/>
	<path fill="#B5E56A" d="M191.392,75.13c0.396,5.292,0.005,9.834-1.707,14.214c-1.322,3.382-3.456,6.169-6.797,7.991
		c-4.987,2.72-6.799,2.489-10.823-1.361c-1.61-1.54-3.1-3.22-4.857-4.585c-2.354-1.83-1.963-3.648-0.429-5.632
		c2.07-2.677,5.046-4.001,8.28-4.754C180.579,79.719,186.029,78.293,191.392,75.13z"/>
	<path fill="#F9EBAA" d="M165.399,125.365c-0.307,10.778-6.332,18.541-14.683,24.906c-2.926,2.231-6.401,3.802-9.625,5.674
		c-3.404,0.071-6.593-0.897-10.637-1.888c2.842-2.355,5.176-4.395,7.634-6.288c1.697-1.308,2.269-2.772,1.395-4.705
		c1.856-1.536,3.713-3.072,5.569-4.607c2.087,1.398,3.692,0.537,5.369-0.86C155.369,133.47,160.4,129.435,165.399,125.365z"/>
	<path fill="#F5B965" d="M137.893,180.086c-0.365,3.162-2.011,5.479-5.407,6.142c-3.357,0.655-6.175-0.546-7.426-3.642
		c-2.277-5.638-4.23-11.396-6.295-17.111c-0.155-0.43-0.298-0.98-0.154-1.377c1.188-3.27,7.916-5.858,11.253-4.456
		c0.767,0.323,1.28,0.688,1.542,1.428c2.114,5.957,4.239,11.91,6.345,17.87C137.868,179.275,137.843,179.657,137.893,180.086z"/>
	<path fill="#F3E178" d="M152.553,87.48c-2.763-5.129-7.861-7.954-12.466-11.13c-4.567-3.15-9.702-5.488-15.144-7.071
		c14.212-1.861,26.91,2.059,38.723,9.321c0.377,0.232,0.81,0.634,0.879,1.014c0.141,0.766-5.436,6.309-6.277,6.26
		C156.148,85.753,154.335,86.546,152.553,87.48z"/>
	<path fill="#F5B965" d="M89.155,25.098c-0.377,0.005-0.773,0.077-1.129-0.007c-2.012-0.473-5.176,1.311-5.906-1.161
		c-0.902-3.052-0.622-6.574,2.534-8.886c2.545-1.864,5.308-2.066,8.108-0.499c2.92,1.633,4.638,6.668,3.453,9.649
		c-0.371,0.934-1.055,0.881-1.778,0.891C92.677,25.109,90.916,25.093,89.155,25.098z"/>
	<path fill="#F9EBAA" d="M157.664,91.416c1.167-0.034,1.956,0.542,2.687,1.241c4.377,4.183,8.762,8.358,13.132,12.547
		c1.392,1.335,2.156,2.884,0.439,4.378c-1.555,1.353-3.001,0.527-4.278-0.7c-4.365-4.195-8.753-8.369-13.126-12.556
		c-0.936-0.896-1.575-1.89-1.053-3.235C155.858,92.077,156.666,91.599,157.664,91.416z"/>
	<path fill="#F9EBAA" d="M166.146,124.625c-0.267,0.274-0.535,0.548-0.802,0.822C165.612,125.173,165.879,124.899,166.146,124.625z"
		/>
	<path fill="#F3E178" d="M59.078,59.063c-0.062,3.998-3.424,7.074-7.613,6.965c-4.027-0.104-7.145-3.156-7.174-7.021
		c-0.03-4.006,3.249-7.161,7.428-7.147C55.908,51.874,59.141,55.038,59.078,59.063z"/>
</g>
</svg>
