<?xml version="1.0" encoding="utf-8"?>
<!-- Generator: Adobe Illustrator 17.0.0, SVG Export Plug-In . SVG Version: 6.00 Build 0)  -->
<!DOCTYPE svg PUBLIC "-//W3C//DTD SVG 1.1//EN" "http://www.w3.org/Graphics/SVG/1.1/DTD/svg11.dtd">
<svg version="1.1" id="Layer_1" xmlns="http://www.w3.org/2000/svg" xmlns:xlink="http://www.w3.org/1999/xlink" x="0px" y="0px"
	 width="200px" height="200px" viewBox="0 0 200 200" enable-background="new 0 0 200 200" xml:space="preserve">
<g>
	<path d="M81.41,100.324c0,29.471,0.003,58.941-0.002,88.412c-0.001,6.522-1.088,7.587-7.677,7.588
		c-12.29,0.003-24.58,0.01-36.87-0.004c-5.153-0.006-6.709-1.543-6.71-6.726c-0.011-59.694-0.01-119.388-0.001-179.081
		c0.001-5.389,1.497-6.83,6.982-6.834C49.673,3.67,62.214,3.666,74.754,3.681c5.219,0.006,6.646,1.432,6.648,6.726
		C81.417,40.38,81.409,70.352,81.41,100.324z"/>
	<path d="M169.855,100.36c0,29.471,0.003,58.941-0.002,88.412c-0.001,6.269-1.262,7.549-7.399,7.552
		c-12.29,0.005-24.58,0.007-36.87-0.002c-5.584-0.004-6.987-1.335-6.988-6.765c-0.01-59.694-0.01-119.387,0-179.081
		c0.001-5.456,1.394-6.793,6.956-6.798c12.541-0.009,25.081-0.013,37.622,0.002c5.137,0.006,6.672,1.543,6.674,6.763
		C169.862,40.416,169.855,70.388,169.855,100.36z"/>
</g>
</svg>
