<?xml version="1.0" encoding="utf-8"?>
<!-- Generator: Adobe Illustrator 17.0.0, SVG Export Plug-In . SVG Version: 6.00 Build 0)  -->
<!DOCTYPE svg PUBLIC "-//W3C//DTD SVG 1.1//EN" "http://www.w3.org/Graphics/SVG/1.1/DTD/svg11.dtd">
<svg version="1.1" id="Layer_1" xmlns="http://www.w3.org/2000/svg" xmlns:xlink="http://www.w3.org/1999/xlink" x="0px" y="0px"
	 width="200px" height="200px" viewBox="0 0 200 200" enable-background="new 0 0 200 200" xml:space="preserve">
<g>
	<path fill="#070707" d="M138.66,173.098c3.693,2.797,7.379,5.368,6.189,10.297c-1.223,5.069-5.539,7.1-9.968,8.485
		c-8.301,2.596-16.727,2.691-24.92-0.346c-5.339-1.979-10.401-4.615-9.137-11.876c0.265-1.522-0.733-1.471-1.758-1.487
		c-1.133-0.018-1.872,0.17-1.601,1.618c1.219,6.504-3.01,9.438-8.013,11.392c-8.849,3.456-17.911,3.466-26.864,0.341
		c-4.25-1.484-8.353-3.59-9.228-8.638c-0.825-4.76,2.693-7.198,6.455-9.919c-18.947-6.092-29.246-19.292-32.993-38.005
		c-0.451-2.253-1.596-1.263-2.66-0.83c-3.105,1.264-6.265,2.216-9.672,2.09c-8.44-0.312-13.779-6.416-12.236-14.699
		c2.532-13.588,9.389-24.764,20.161-33.417c1.753-1.408,2.701-2.704,2.974-4.986c1.72-14.402,5.113-28.353,12.043-41.236
		C49.489,19.465,68.408,7.771,93.688,6.364c14.303-0.796,28.256,0.854,41.287,7.373c18.913,9.461,28.639,25.831,34.047,45.415
		c2.146,7.771,3.403,15.709,4.141,23.726c0.148,1.608,0.497,2.739,1.989,3.739c11.231,7.531,17.698,18.485,21.629,31.08
		c1.555,4.983,2.331,10.211-2.02,14.403c-4.827,4.65-10.535,4.94-16.663,2.994c-2.062-0.655-4.219-3.041-5.974-1.874
		c-1.258,0.837-1.05,3.822-1.572,5.829C166.141,156.004,155.863,167.58,138.66,173.098z M189.94,114.537l0.022,0.021
		c-2.695-9.03-8.068-16.162-15.287-22.607c-0.959,2.457-0.55,4.209-0.45,5.947c-0.518,8.786,0.515,17.628-0.956,26.385
		c-0.233,1.384-0.041,2.718,1.435,3.564c2.898,1.661,5.948,2.976,9.264,3.3c5.317,0.519,8.521-2.689,8.479-8.087
		c-0.019-2.4-0.608-4.618-1.648-6.748C190.739,115.61,190.682,114.907,189.94,114.537z M62.464,177.828
		c-2.073,0.651-4.024,1.708-4.081,4.064c-0.054,2.228,1.996,3.264,3.738,4.012c8.965,3.847,17.993,3.856,26.924-0.102
		c1.55-0.687,3.359-1.513,3.424-3.736c-0.206-3.166-2.374-3.938-5.036-4.222c-5.058-0.538-10.146-0.929-15.15-1.792
		C68.68,175.431,65.51,175.98,62.464,177.828z M105.812,182.046c0.061,2.221,1.861,3.058,3.414,3.748
		c8.934,3.968,17.966,3.957,26.937,0.111c1.744-0.747,3.798-1.784,3.741-4.012c-0.06-2.361-2.047-3.386-4.1-4.059
		c-2.386-1.464-4.941-2.405-7.768-1.948c-5.831,0.943-11.68,1.657-17.579,2.038C107.984,178.083,105.945,179.081,105.812,182.046z
		 M8.08,119.541c-0.735,3.37-1.835,6.947,1.244,9.638c2.962,2.589,6.559,2.61,10.179,1.298c0.52-0.189,1.038-0.42,1.578-0.513
		c3.434-0.591,4.539-2.664,3.969-5.955c-1.357-7.825-0.579-15.745-0.979-23.614c0-2.248,0-4.497,0-7.714
		C16.271,100.938,10.35,109.135,8.08,119.541z M30.702,83.771c-1.399,3.168-0.482,6.516-0.739,9.773
		c-1.373,17.381-1.422,34.622,5.915,50.998c1.453,7.382,6.227,12.486,11.93,16.766c11.562,8.676,25.277,10.746,39.095,11.396
		c10.866,0.511,21.82,0.812,32.703-0.655c11.316-1.525,22.36-3.911,31.562-11.153c5.35-4.211,9.969-9.191,11.268-16.324
		c1.668-3.756,3.537-7.399,4.225-11.558c2.008-12.145,3.012-24.389,2.193-36.635c-0.335-5.012,0.243-10.175-1.291-15.104
		c-0.781-11.127-3.189-21.88-7.48-32.189c-5.679-13.645-14.381-24.581-28.049-30.984c-15.071-7.06-30.872-8.17-47.082-5.553
		c-12.731,2.055-23.836,7.614-32.53,17.062C38.415,44.837,32.834,63.666,30.702,83.771z"/>
	<path fill="#243441" d="M167.564,81.276c1.534,4.929,0.956,10.092,1.291,15.104c0.819,12.246-0.185,24.49-2.193,36.635
		c-0.688,4.159-2.557,7.802-4.225,11.558c-0.429,0.333-0.965,0.589-1.27,1.012c-7.954,11.011-19.049,16.68-32.146,18.96
		c0.598-0.556,1.118-1.244,1.805-1.647c10.149-5.951,16.52-14.994,20.578-25.727c4.699-12.428,4.735-25.139,1.284-37.896
		c-0.771-2.852-0.976-5.284,0.761-8.183c2.944-4.913,4.107-10.67,3.779-16.351c-0.628-10.858-5.275-19.817-13.683-26.949
		c-9.715-8.24-28.094-10.31-38.554-3.189c-4.455,3.033-7.911,3.632-12.013,0.276c-0.313-0.256-0.739-0.375-1.111-0.56
		c-14.497-7.215-29.733-4.309-41.61,7.935C40.121,62.703,37.848,79.62,45.062,92.682c1.132,2.049,1.125,3.661,0.597,5.771
		c-3.833,15.313-3.8,30.353,3.357,44.885c4.23,8.589,11.134,14.674,18.514,20.36c-3.793-0.101-7.239-1.442-10.722-2.8
		c-8.634-3.366-15.134-9.395-20.93-16.356c-7.337-16.376-7.288-33.617-5.915-50.998c0.257-3.257-0.66-6.605,0.741-9.773
		c2.387-5.386,3.604-11.178,6.024-16.579c8.109-18.095,20.892-31.144,40.06-37.091c13.737-4.262,27.843-4.107,41.771-1.148
		c20.475,4.35,34.585,16.671,43.239,35.671C164.265,70.039,165.379,75.821,167.564,81.276z"/>
	<path fill="#2A4651" d="M167.564,81.276c-2.185-5.455-3.299-11.237-5.766-16.652c-8.654-19-22.764-31.321-43.239-35.671
		c-13.928-2.959-28.035-3.113-41.771,1.148c-19.168,5.947-31.951,18.996-40.06,37.091c-2.42,5.401-3.637,11.192-6.024,16.579
		c2.13-20.105,7.711-38.934,21.719-54.158c8.694-9.449,19.799-15.007,32.53-17.062c16.21-2.617,32.011-1.507,47.082,5.553
		c13.668,6.403,22.371,17.338,28.049,30.984C164.375,59.396,166.783,70.149,167.564,81.276z"/>
	<path fill="#0E161B" d="M35.879,144.542c5.796,6.961,12.296,12.99,20.93,16.356c3.483,1.358,6.929,2.699,10.722,2.8l-0.031-0.019
		c0.355,0.713,1.016,0.819,1.709,0.862c0.778,0.259,1.598,0.432,2.328,0.79c12.458,6.114,25.568,7.027,39.091,5.11
		c6.491-0.92,12.398-3.511,18.394-5.897c13.098-2.28,24.192-7.949,32.146-18.96c0.305-0.423,0.842-0.679,1.27-1.012
		c-1.299,7.133-5.917,12.113-11.268,16.324c-9.201,7.242-20.246,9.628-31.562,11.153c-10.883,1.467-21.837,1.166-32.703,0.655
		c-13.818-0.65-27.533-2.72-39.095-11.396C42.106,157.028,37.332,151.924,35.879,144.542z"/>
	<path fill="#243441" d="M190.8,116.311c1.039,2.13,1.629,4.348,1.648,6.748c0.042,5.398-3.162,8.606-8.479,8.087
		c-3.316-0.324-6.366-1.639-9.264-3.3c-1.476-0.846-1.667-2.18-1.435-3.564c1.471-8.757,0.438-17.598,0.955-26.385
		c3.484,1.257,5.976,3.733,8.145,6.615c2.524,3.354,5.061,6.697,7.593,10.045l-0.022-0.021
		C189.914,115.28,190.08,115.93,190.8,116.311z"/>
	<path fill="#243441" d="M24.07,100.395c0.4,7.869-0.378,15.789,0.979,23.614c0.571,3.29-0.534,5.363-3.969,5.955
		c-0.539,0.093-1.057,0.324-1.578,0.513c-3.62,1.312-7.216,1.291-10.179-1.298c-3.079-2.691-1.979-6.268-1.24-9.638
		c1.511-0.539,1.613-2.104,2.345-3.208C14.321,110.459,17.549,104.018,24.07,100.395z"/>
	<path fill="#F7D219" d="M135.804,177.834c2.053,0.673,4.04,1.698,4.1,4.059c0.056,2.228-1.998,3.265-3.741,4.012
		c-8.971,3.845-18.003,3.857-26.937-0.111c-1.553-0.69-3.352-1.527-3.414-3.748C115.999,181.994,126.059,181.032,135.804,177.834z"
		/>
	<path fill="#F7D219" d="M92.469,182.065c-0.064,2.224-1.873,3.049-3.424,3.736c-8.931,3.958-17.959,3.949-26.924,0.102
		c-1.742-0.747-3.792-1.784-3.738-4.012c0.057-2.356,2.007-3.413,4.081-4.064C72.184,181.232,82.256,182.147,92.469,182.065z"/>
	<path fill="#F59D25" d="M92.469,182.065c-10.213,0.082-20.285-0.833-30.005-4.237c3.046-1.849,6.216-2.397,9.819-1.776
		c5.005,0.863,10.092,1.254,15.15,1.792C90.095,178.127,92.263,178.9,92.469,182.065z"/>
	<path fill="#F59E25" d="M135.804,177.834c-9.745,3.199-19.805,4.16-29.992,4.212c0.133-2.965,2.172-3.963,4.645-4.123
		c5.899-0.38,11.748-1.094,17.579-2.038C130.863,175.428,133.418,176.369,135.804,177.834z"/>
	<path fill="#29444F" d="M24.07,100.395c-6.521,3.623-9.749,10.064-13.641,15.937c-0.732,1.105-0.834,2.67-2.345,3.208
		c2.266-10.406,8.187-18.603,15.986-26.859C24.07,95.898,24.07,98.147,24.07,100.395z"/>
	<path fill="#29444F" d="M189.962,114.558c-2.531-3.348-5.069-6.692-7.593-10.045c-2.169-2.882-4.661-5.358-8.145-6.615
		c-0.099-1.738-0.508-3.49,0.451-5.947C181.894,98.396,187.267,105.528,189.962,114.558z"/>
	<path fill="#29444F" d="M190.8,116.311c-0.719-0.382-0.885-1.032-0.86-1.774C190.682,114.907,190.739,115.61,190.8,116.311z"/>
	<path fill="#060607" d="M129.02,164.545c-5.996,2.386-11.903,4.976-18.394,5.897c-13.523,1.917-26.633,1.004-39.091-5.11
		c-0.729-0.358-1.55-0.531-2.328-0.79c-0.378-0.667-1.003-0.844-1.708-0.862l0.031,0.019c-7.38-5.686-14.284-11.771-18.514-20.36
		c-7.157-14.532-7.189-29.572-3.357-44.885c0.528-2.11,0.534-3.722-0.597-5.771c-7.214-13.062-4.941-29.979,5.194-40.428
		c11.876-12.244,27.113-15.15,41.61-7.935c0.372,0.185,0.798,0.304,1.111,0.56c4.103,3.356,7.558,2.757,12.013-0.276
		c10.459-7.121,28.839-5.051,38.554,3.189c8.408,7.132,13.055,16.091,13.683,26.949c0.328,5.681-0.835,11.438-3.779,16.351
		c-1.737,2.899-1.532,5.331-0.761,8.183c3.451,12.757,3.415,25.467-1.284,37.896c-4.058,10.733-10.429,19.776-20.578,25.727
		C130.138,163.301,129.618,163.989,129.02,164.545z M99.263,166.062c1.525,0,3.055,0.081,4.575-0.012
		c22.04-1.352,38.406-13.539,44.135-33.094c3.243-11.069,2.936-22.227-0.412-33.22c-1.038-3.407-0.927-6.121,0.882-9.365
		c7.106-12.739,3.941-28.284-7.264-37.558c-11.126-9.209-27.228-9.429-38.322-0.184c-2.893,2.411-4.636,2.129-7.401-0.119
		c-11.478-9.333-27.93-8.862-39,0.824C45.542,62.883,43,78.846,50.57,91.534c1.355,2.272,1.453,4.165,0.71,6.606
		c-3.467,11.378-4.153,22.892-0.81,34.431C56.664,153.944,74.535,166.214,99.263,166.062z"/>
	<path fill="#243441" d="M67.499,163.679c0.705,0.018,1.33,0.196,1.708,0.862C68.516,164.498,67.854,164.392,67.499,163.679z"/>
	<path fill="#F0F0F0" d="M99.263,166.062c-24.728,0.153-42.599-12.117-48.793-33.491c-3.344-11.539-2.657-23.052,0.81-34.431
		c0.744-2.441,0.646-4.334-0.71-6.606c-7.57-12.688-5.027-28.651,5.886-38.2c11.07-9.686,27.522-10.157,39-0.824
		c2.765,2.248,4.508,2.531,7.401,0.119c11.093-9.245,27.196-9.025,38.322,0.184c11.205,9.274,14.369,24.819,7.264,37.558
		c-1.809,3.244-1.92,5.957-0.882,9.365c3.348,10.993,3.655,22.151,0.412,33.22c-5.73,19.555-22.095,31.742-44.135,33.094
		C102.318,166.143,100.788,166.062,99.263,166.062z M100.022,101.274c-4.888,0.015-9.681,0.825-12.599,2.129
		c-4.301,1.922-5.896,4.896-4.547,9.352c1.952,6.445,5.809,11.575,11.558,15.162c2.856,1.782,5.971,2.41,9.078,0.777
		c7-3.678,11.551-9.388,13.145-17.161c0.88-4.292-0.739-6.904-4.807-8.467C108.061,101.61,104.062,101.237,100.022,101.274z
		 M77.541,89.471c-0.477-2.954-2.071-4.896-5.158-4.793c-3.032,0.102-4.887,1.982-4.809,5.043c0.078,3.054,2.014,4.862,5.048,4.806
		C75.691,94.47,77.224,92.476,77.541,89.471z M125.445,94.631c3.038-0.177,5.068-1.664,5.267-4.71
		c0.2-3.049-1.579-5.033-4.604-5.237c-3.039-0.205-5.021,1.57-5.248,4.598C120.628,92.373,122.548,94.015,125.445,94.631z"/>
	<path fill="#0B0B07" d="M100.023,101.271c4.039-0.035,8.038,0.339,11.828,1.795c4.068,1.563,5.688,4.175,4.807,8.467
		c-1.594,7.772-6.145,13.483-13.145,17.161c-3.107,1.633-6.222,1.005-9.078-0.777c-5.75-3.587-9.606-8.717-11.558-15.162
		c-1.35-4.456,0.245-7.43,4.547-9.352C90.341,102.099,95.134,101.289,100.023,101.271z M88.471,112.932
		c2.25,5.352,5.406,11.055,11.337,11.222c5.908,0.167,8.767-5.741,11.21-10.753c0.058-0.119,0.055-0.268,0.08-0.403
		c1.818-3.316,0.724-5.164-2.869-5.897c-5.658-1.154-11.287-1.152-16.897,0.241C88.27,108.104,86.5,109.572,88.471,112.932z"/>
	<path fill="#0A0A0A" d="M77.541,89.471c-0.317,3.006-1.85,5-4.919,5.056c-3.034,0.056-4.97-1.752-5.048-4.806
		c-0.078-3.061,1.777-4.942,4.809-5.043C75.47,84.574,77.064,86.516,77.541,89.471z"/>
	<path fill="#0A0A0A" d="M125.445,94.631c-2.897-0.616-4.817-2.258-4.585-5.348c0.228-3.029,2.209-4.803,5.248-4.598
		c3.025,0.204,4.804,2.187,4.604,5.237C130.513,92.967,128.483,94.454,125.445,94.631z"/>
	<path fill="#F9D41A" d="M111.099,112.999c-0.025,0.135-0.022,0.284-0.08,0.403c-2.444,5.012-5.302,10.92-11.21,10.753
		c-5.931-0.167-9.087-5.87-11.337-11.223C96.02,110.928,103.565,110.122,111.099,112.999z"/>
	<path fill="#F4E150" d="M111.099,112.999c-7.534-2.876-15.079-2.071-22.628-0.067c-1.97-3.36-0.201-4.827,2.862-5.588
		c5.61-1.394,11.239-1.395,16.897-0.241C111.823,107.835,112.917,109.683,111.099,112.999z"/>
</g>
</svg>
