<?xml version="1.0" encoding="utf-8"?>
<!-- Generator: Adobe Illustrator 17.0.0, SVG Export Plug-In . SVG Version: 6.00 Build 0)  -->
<!DOCTYPE svg PUBLIC "-//W3C//DTD SVG 1.1//EN" "http://www.w3.org/Graphics/SVG/1.1/DTD/svg11.dtd">
<svg version="1.1" id="Layer_1" xmlns="http://www.w3.org/2000/svg" xmlns:xlink="http://www.w3.org/1999/xlink" x="0px" y="0px"
	 width="200px" height="200px" viewBox="0 0 200 200" enable-background="new 0 0 200 200" xml:space="preserve">
<path d="M69.614,99.792c1.72-1.299,2.939-2.014,3.907-2.98c24.965-24.916,49.906-49.858,74.848-74.797
	c5.696-5.695,6.477-11.404,2.175-15.805c-4.491-4.592-10.143-3.883-16.062,2.032c-27.62,27.606-55.24,55.212-82.854,82.824
	c-6.511,6.51-6.55,11.32-0.13,17.74c27.792,27.791,55.587,55.579,83.402,83.347c1.236,1.234,2.564,2.466,4.061,3.334
	c4.061,2.355,8.89,1.404,11.963-2.147c2.879-3.326,3.18-8.303,0.586-11.887c-0.952-1.315-2.151-2.463-3.306-3.618
	c-24.845-24.858-49.698-49.709-74.563-74.547C72.662,102.311,71.551,101.467,69.614,99.792z"/>
</svg>
