<?xml version="1.0" encoding="utf-8"?>
<!-- Generator: Adobe Illustrator 17.0.0, SVG Export Plug-In . SVG Version: 6.00 Build 0)  -->
<!DOCTYPE svg PUBLIC "-//W3C//DTD SVG 1.1//EN" "http://www.w3.org/Graphics/SVG/1.1/DTD/svg11.dtd">
<svg version="1.1" id="Layer_1" xmlns="http://www.w3.org/2000/svg" xmlns:xlink="http://www.w3.org/1999/xlink" x="0px" y="0px"
	 width="200px" height="200px" viewBox="0 0 200 200" enable-background="new 0 0 200 200" xml:space="preserve">
<g>
	<path fill="#FCDE7C" d="M55.32,114.802c1.151,1.321,2.303,2.641,3.452,3.963c-1.092,2.204,0.002,3.677,1.527,5.187
		c7.916,7.836,15.768,15.736,23.649,23.606c6.471,6.463,11.171,6.551,17.712,0.019c1.692-1.69,2.504-1.499,4.046,0.082
		c6.738,6.911,13.613,13.69,20.438,20.517c3.959,3.961,3.959,3.962-0.453,7.704c-0.543,0.049-0.887,0.32-0.978,0.873l0.054-0.033
		c-1.562-0.546-2.889,0.362-4.293,0.726c-18.944,4.904-35.883,1.641-50.086-12.424c-11.674-11.56-23.189-23.281-34.878-34.825
		c-14.141-13.967-17.594-30.727-13.301-49.595c0.403-1.772,1.619-3.373,1.106-5.335l-0.033,0.056
		c0.553-0.092,0.824-0.435,0.872-0.977c3.749-4.423,3.748-4.421,7.689-0.477c6.534,6.538,12.965,13.184,19.661,19.551
		c2.388,2.271,2.561,3.569,0.05,5.896c-4.714,4.368-5.032,10.233-1.354,14.47C51.697,115.511,53.268,116.195,55.32,114.802z"/>
	<path fill="#090908" d="M55.32,114.802c-2.052,1.393-3.623,0.709-5.12-1.016c-3.678-4.237-3.36-10.103,1.354-14.47
		c2.511-2.327,2.338-3.625-0.05-5.896c-6.696-6.367-13.127-13.013-19.661-19.551c-3.942-3.944-3.94-3.946-7.69,0.477
		c-0.291,0.326-0.581,0.651-0.872,0.977l0.033-0.055c-16.929,16.207-16.939,46.046,0.039,64.147
		c3.552,3.787,7.308,7.385,10.98,11.059c8.482,8.486,16.881,17.057,25.475,25.428c18.201,17.731,48.435,18.059,64.957,0.82
		l-0.054,0.032c0.326-0.291,0.652-0.582,0.978-0.873c4.412-3.743,4.412-3.743,0.453-7.704c-6.825-6.827-13.699-13.605-20.438-20.517
		c-1.542-1.581-2.353-1.772-4.046-0.082c-6.542,6.532-11.241,6.444-17.712-0.019c-7.881-7.871-15.734-15.77-23.649-23.606
		c-1.525-1.51-2.62-2.982-1.527-5.187c2.225-1.591,3.801-0.544,5.448,1.121c7.915,8.001,15.901,15.932,23.858,23.893
		c1.856,1.857,3.626,3.921,6.692,2.439c3.125-1.51,5.045-4.863,4.597-8.017c-0.683-4.805,1.657-9.549,5.862-11.883
		c4.045-2.245,9.463-2.079,12.838,1.2c10.287,9.995,20.446,20.13,30.419,30.438c3.44,3.556,3.461,8.942,0.938,13.137
		c-2.549,4.239-7.52,6.622-12.425,5.228c-2.554-0.726-3.804,0.158-5.328,1.747c-10.92,11.378-24.223,17.293-40.068,16.951
		c-13.402-0.29-25.196-4.989-34.812-14.32c-12.603-12.228-25.101-24.581-37.256-37.252c-20.044-20.893-19.404-52.919,1.183-73.811
		c2.179-2.211,4.103-3.897,3.038-7.791c-1.23-4.495,1.765-9.144,5.906-11.361c4.075-2.181,9.433-1.898,12.824,1.407
		c10.183,9.926,20.253,19.974,30.152,30.183c3.463,3.571,3.593,8.902,1.138,13.128c-2.475,4.259-7.426,6.802-12.347,5.403
		c-4.268-1.213-5.339,2.152-7.223,4.151c-1.808,1.919-0.948,4.159,0.789,5.947C56.244,111.993,55.986,113.374,55.32,114.802z
		 M124.217,158.084c3.712,3.792,7.33,7.684,11.17,11.34c2.579,2.455,5.992,2.268,8.329-0.064c2.273-2.267,2.463-5.827,0.072-8.338
		c-3.483-3.657-7.202-7.089-10.82-10.616c-5.956-6.047-11.844-12.164-17.9-18.11c-2.652-2.604-6.201-2.404-8.561,0.072
		c-2.219,2.328-2.323,5.785,0.148,8.306C112.424,146.56,118.353,152.29,124.217,158.084z M57.233,74.662
		c-5.958-6.047-11.848-12.162-17.905-18.108c-2.651-2.602-6.202-2.404-8.562,0.07c-2.22,2.328-2.324,5.786,0.146,8.305
		c5.77,5.886,11.698,11.618,17.562,17.412c3.712,3.792,7.33,7.683,11.17,11.34c2.579,2.455,5.99,2.27,8.329-0.06
		c2.273-2.264,2.463-5.83,0.075-8.338C64.567,81.626,60.85,78.191,57.233,74.662z"/>
	<path fill="#090908" d="M177.935,48.588c0.318-2.472,1.697-3.554,4.211-3.741c3.074-0.23,6.114-0.875,9.18-1.25
		c2.423-0.296,3.77,0.753,3.768,3.315c-0.019,20.652,0.127,41.305-0.121,61.954c-0.093,7.745-7.224,13.984-15.036,14.051
		c-7.971,0.068-14.906-6.24-15.278-14.196c-0.242-5.183-0.144-10.386-0.068-15.579c0.177-12.03,11.751-19.075,22.517-13.764
		c0.629,0.31,1.114,1.042,2.369,0.626c0-3.273-0.009-6.682,0.005-10.092c0.005-1.279-0.506-1.668-1.819-1.48
		c-9.664,1.384-19.331,2.754-29.013,4.001c-2.26,0.291-1.604,1.817-1.607,3.009c-0.039,11.872-0.034,23.743-0.017,35.615
		c0.003,2.365-0.168,4.693-0.972,6.936c-2.427,6.771-9.425,11.058-16.37,10.039c-7.193-1.056-12.674-6.744-13.103-13.98
		c-0.27-4.56,0.207-9.174-0.19-13.717c-1.147-13.113,12.069-22.416,24.957-14.407c0-2.79,0-5.291,0-7.791
		c0.001-8.409,0.059-16.819-0.03-25.227c-0.029-2.744,1.001-4.041,3.796-4.34c4.544-0.485,9.062-1.226,13.581-1.918
		c1.956-0.3,3.408,0.207,4.189,2.127c-0.4,4.782-4.505,3.212-7.125,4.062c-2.749,0.892-6.794-0.447-8.213,2.025
		c-1.289,2.245-0.203,5.778-0.448,8.72c-0.236,2.841,1.001,3.301,3.461,2.922c6.455-0.994,12.927-1.884,19.403-2.732
		c9.52-1.247,9.439-1.216,9.478-10.7c0.011-2.663-0.356-3.723-3.434-3.126C183.322,50.472,180.124,51.869,177.935,48.588z
		 M189.331,100.628c-0.007,0-0.014,0-0.014,0c-0.007-2.961,0.171-5.934-0.048-8.879c-0.343-4.634-4.152-8.259-8.723-8.618
		c-4.468-0.351-9.116,2.748-9.879,7.253c-1.094,6.462-1.06,13.051-0.013,19.513c0.777,4.796,5.178,7.632,10.143,7.244
		c4.547-0.355,8.211-4.03,8.504-8.743C189.463,105.818,189.331,103.219,189.331,100.628z M151.313,105.635
		c0-2.466,0.059-4.934-0.012-7.399c-0.156-5.369-4.184-9.686-9.112-9.849c-5.095-0.169-9.693,3.678-10.004,8.958
		c-0.318,5.406-0.312,10.86-0.002,16.267c0.307,5.364,4.673,8.934,10.029,8.781c5.017-0.143,8.86-4.057,9.078-9.36
		C151.391,110.571,151.307,108.101,151.313,105.635z"/>
	<path fill="#090908" d="M107.985,47.198c0-5.361,0-10.377,0-15.394c0.001-5.935,0.051-11.87-0.021-17.803
		c-0.029-2.41,0.922-3.593,3.369-3.923c12.001-1.619,23.991-3.322,35.98-5.028c3.036-0.432,4.398,0.824,4.373,3.863
		c-0.046,5.44-0.077,10.881,0.016,16.319c0.048,2.828-1.311,3.887-3.97,4.234c-10.413,1.36-20.794,2.983-31.22,4.223
		c-2.683,0.319-3.076,1.351-3.054,3.706c0.109,11.868,0.073,23.738,0.041,35.607c-0.026,9.714-6.289,16.545-15.136,16.595
		c-8.978,0.051-15.336-6.875-15.378-16.771c-0.017-4.08-0.031-8.16,0.003-12.24c0.108-13.005,11.565-19.961,23.196-14.102
		C106.597,46.691,107.046,46.828,107.985,47.198z M88.814,66.993l-0.016,0c0,2.598-0.092,5.201,0.02,7.794
		c0.208,4.801,3.633,8.447,8.275,8.968c5.002,0.561,9.503-2.111,10.343-6.921c1.151-6.587,1.169-13.33-0.022-19.915
		c-0.839-4.637-5.253-7.279-10.075-6.82c-4.787,0.456-8.247,3.927-8.499,8.729C88.697,61.542,88.814,64.271,88.814,66.993z
		 M146.056,17.57c0-1.11-0.123-2.237,0.024-3.328c0.36-2.672-0.534-3.291-3.237-2.83c-6.92,1.179-13.908,1.953-20.852,2.995
		c-2.751,0.412-6.547-0.411-7.939,1.772c-1.303,2.043-0.236,5.499-0.549,8.296c-0.38,3.404,1.133,3.876,4.048,3.435
		c7.431-1.122,14.896-2.019,22.342-3.044C146.06,24.017,146.056,23.993,146.056,17.57z"/>
	<path fill="#5C52A9" d="M177.935,48.588c2.189,3.281,5.387,1.884,8.069,1.364c3.078-0.597,3.445,0.463,3.434,3.126
		c-0.039,9.484,0.042,9.453-9.478,10.7c-6.476,0.848-12.948,1.738-19.403,2.732c-2.459,0.379-3.697-0.081-3.461-2.922
		c0.244-2.942-0.841-6.475,0.448-8.72c1.419-2.472,5.464-1.133,8.213-2.025c2.62-0.851,6.725,0.719,7.125-4.062
		C174.566,48.716,176.251,48.652,177.935,48.588z"/>
	<path fill="#FCCE63" d="M124.767,176.721c-16.522,17.24-46.757,16.911-64.957-0.82c-8.594-8.372-16.993-16.943-25.475-25.428
		c-3.673-3.674-7.428-7.271-10.98-11.059c-16.978-18.101-16.969-47.94-0.039-64.147c0.513,1.962-0.703,3.563-1.107,5.335
		c-4.293,18.868-0.84,35.628,13.301,49.595c11.689,11.545,23.204,23.265,34.878,34.825c14.203,14.066,31.142,17.328,50.086,12.424
		C121.877,177.084,123.204,176.175,124.767,176.721z"/>
	<path fill="#FCCE63" d="M23.281,75.323c0.291-0.325,0.581-0.651,0.872-0.977C24.105,74.888,23.834,75.231,23.281,75.323z"/>
	<path fill="#FCCE63" d="M125.691,175.881c-0.326,0.291-0.652,0.581-0.978,0.873C124.804,176.2,125.148,175.929,125.691,175.881z"/>
	<path fill="#F6F8F9" d="M48.474,82.341C42.61,76.547,36.682,70.816,30.912,64.93c-2.47-2.52-2.366-5.977-0.146-8.305
		c2.36-2.474,5.911-2.673,8.562-0.07c6.057,5.946,11.947,12.061,17.905,18.108C55.027,78.036,53.448,82.125,48.474,82.341z"/>
	<path fill="#F6F8F9" d="M124.217,158.084c-5.864-5.793-11.793-11.524-17.563-17.41c-2.471-2.521-2.367-5.978-0.148-8.306
		c2.36-2.476,5.909-2.676,8.561-0.072c6.056,5.946,11.944,12.062,17.9,18.11C130.77,153.784,129.189,157.867,124.217,158.084z"/>
	<path fill="#D7D4E6" d="M48.474,82.341c4.974-0.217,6.553-4.306,8.759-7.68c3.617,3.529,7.333,6.964,10.816,10.621
		c2.388,2.508,2.198,6.075-0.075,8.338c-2.339,2.33-5.751,2.515-8.329,0.06C55.804,90.024,52.187,86.133,48.474,82.341z"/>
	<path fill="#D7D4E6" d="M124.217,158.084c4.972-0.217,6.552-4.3,8.751-7.678c3.618,3.528,7.337,6.96,10.82,10.616
		c2.392,2.511,2.202,6.071-0.072,8.338c-2.337,2.331-5.75,2.519-8.329,0.064C131.547,165.767,127.93,161.875,124.217,158.084z"/>
	<path fill="#5C52A9" d="M189.331,100.628c0,2.591,0.132,5.19-0.029,7.77c-0.294,4.714-3.958,8.388-8.504,8.743
		c-4.965,0.387-9.365-2.448-10.143-7.244c-1.048-6.462-1.082-13.051,0.013-19.513c0.763-4.504,5.411-7.603,9.879-7.253
		c4.571,0.359,8.38,3.984,8.723,8.618c0.218,2.944,0.041,5.918,0.041,8.879C189.311,100.628,189.324,100.628,189.331,100.628z"/>
	<path fill="#5C52A9" d="M151.31,105.635c-0.003,2.466,0.081,4.936-0.02,7.398c-0.218,5.304-4.061,9.217-9.078,9.36
		c-5.357,0.153-9.722-3.417-10.029-8.781c-0.309-5.407-0.316-10.861,0.002-16.267c0.311-5.28,4.909-9.127,10.004-8.958
		c4.928,0.163,8.956,4.481,9.112,9.849C151.373,100.701,151.313,103.169,151.31,105.635z"/>
	<path fill="#5C52A9" d="M88.814,66.993c0-2.722-0.117-5.45,0.026-8.165c0.252-4.802,3.712-8.274,8.499-8.729
		c4.822-0.459,9.236,2.183,10.075,6.82c1.191,6.585,1.173,13.328,0.022,19.915c-0.84,4.81-5.341,7.482-10.343,6.921
		c-4.642-0.52-8.067-4.166-8.275-8.968c-0.112-2.594-0.02-5.196-0.02-7.794L88.814,66.993z"/>
	<path fill="#5C52A9" d="M146.056,17.57c0,6.423,0.004,6.447-6.163,7.296c-7.446,1.025-14.911,1.922-22.342,3.044
		c-2.914,0.44-4.428-0.032-4.048-3.435c0.312-2.797-0.754-6.254,0.549-8.296c1.392-2.183,5.188-1.359,7.939-1.772
		c6.945-1.041,13.933-1.815,20.852-2.995c2.703-0.461,3.597,0.159,3.237,2.83C145.933,15.333,146.056,16.46,146.056,17.57z"/>
</g>
</svg>
