<?xml version="1.0" encoding="utf-8"?>
<!-- Generator: Adobe Illustrator 17.0.0, SVG Export Plug-In . SVG Version: 6.00 Build 0)  -->
<!DOCTYPE svg PUBLIC "-//W3C//DTD SVG 1.1//EN" "http://www.w3.org/Graphics/SVG/1.1/DTD/svg11.dtd">
<svg version="1.1" id="Layer_1" xmlns="http://www.w3.org/2000/svg" xmlns:xlink="http://www.w3.org/1999/xlink" x="0px" y="0px"
	 width="200px" height="200px" viewBox="0 0 200 200" enable-background="new 0 0 200 200" xml:space="preserve">
<g>
	<path d="M165.697,164.957c-1.799,2.922-2.935,6.811-5.522,8.585c-7.932,5.441-16.253,10.385-24.754,14.898
		c-5.14,2.729-10.36,1.289-13.863-3.365c-10.411-13.833-31.033-13.529-40.875,0.631c-3.309,4.761-8.321,5.892-13.825,3.857
		c-9.906-3.662-18.961-8.863-27.062-15.649c-4.429-3.71-5.511-8.438-3.437-13.974c6.393-17.06-2.258-32.101-20.202-35.126
		c-5.951-1.003-9.478-4.341-10.478-10.34C3.872,103.636,4.083,92.786,6.378,82.05c1.263-5.907,5.444-8.579,11.294-9.556
		c14.467-2.417,23.298-14.552,21.081-28.659c-0.306-1.946-1.017-3.832-1.59-5.73c-1.594-5.289-0.496-10.186,4.068-13.069
		c8.247-5.21,16.8-9.996,25.517-14.379c5.015-2.522,9.804-0.839,13.629,3.335c11.902,12.988,27.425,12.975,39.354-0.031
		c3.832-4.178,8.387-5.351,13.69-3.391c9.914,3.664,18.934,8.896,27.062,15.649c4.331,3.598,5.675,8.063,4.017,13.521
		c-5.053,16.642,2.782,30.099,19.704,33.808c5.571,1.221,8.794,4.512,9.831,10.078c1.865,10.009,2.023,20.03,0.248,30.063
		c-1.467,8.292-3.893,10.757-12.126,12.437c-15.031,3.067-23.581,17.883-18.762,32.461c0.618,1.87,1.064,3.797,1.59,5.698
		C165.223,164.509,165.46,164.733,165.697,164.957z M100.103,131.82c17.597-0.043,31.775-14.325,31.748-31.981
		c-0.027-17.369-14.304-31.631-31.675-31.641c-17.66-0.011-31.923,14.176-31.95,31.777
		C68.199,117.559,82.518,131.863,100.103,131.82z"/>
</g>
</svg>
