<?xml version="1.0" encoding="utf-8"?>
<!-- Generator: Adobe Illustrator 17.0.0, SVG Export Plug-In . SVG Version: 6.00 Build 0)  -->
<!DOCTYPE svg PUBLIC "-//W3C//DTD SVG 1.1//EN" "http://www.w3.org/Graphics/SVG/1.1/DTD/svg11.dtd">
<svg version="1.1" id="Layer_1" xmlns="http://www.w3.org/2000/svg" xmlns:xlink="http://www.w3.org/1999/xlink" x="0px" y="0px"
	 width="200px" height="200px" viewBox="0 0 200 200" enable-background="new 0 0 200 200" xml:space="preserve">
<g>
	<g>
		<path d="M100.051,100.023c0.001,21.593-0.056,43.187,0.043,64.78c0.023,4.96-0.963,9.17-5.868,11.426
			c-4.746,2.183-8.491,0.194-12.122-2.865c-12.532-10.555-25.088-21.083-37.807-31.409c-1.821-1.479-4.55-2.342-6.933-2.522
			c-5.025-0.381-10.101-0.016-15.152-0.146c-12.023-0.31-20.084-8.353-20.235-20.42c-0.158-12.556-0.158-25.117,0-37.673
			c0.151-12.071,8.216-20.078,20.228-20.441c0.612-0.019,1.242-0.103,1.835,0.004c12.538,2.261,22.144-2.611,31.05-11.238
			c8.665-8.393,18.48-15.594,27.726-23.393c3.436-2.898,7.09-4.285,11.398-2.3c4.454,2.052,5.882,5.789,5.867,10.498
			C100.011,56.223,100.05,78.123,100.051,100.023z"/>
		<path d="M198.142,104.741c-1.516,33.943-18.636,63.269-52.789,82.227c-5.452,3.026-10.481,2.256-13.682-1.712
			c-4.251-5.268-2.402-11.817,4.402-15.517c20.905-11.37,34.702-28.415,40.219-51.626c8.299-34.915-7.666-70.053-39.22-87.236
			c-1.075-0.586-2.207-1.089-3.213-1.777c-4.203-2.871-5.574-8.163-3.318-12.576c2.248-4.397,7.406-6.522,12.105-4.667
			c2.686,1.06,5.228,2.546,7.72,4.032C179.868,33.48,198.088,65.562,198.142,104.741z"/>
		<path d="M158.906,99.884c-0.177,12.604-3.648,23.826-10.7,33.895c-3.978,5.681-9.705,7.076-14.578,3.644
			c-4.755-3.349-5.409-8.909-1.716-14.58c9.884-15.178,9.91-30.368,0.044-45.562c-3.711-5.715-3.116-11.214,1.605-14.599
			c4.856-3.482,10.613-2.131,14.594,3.526C155.327,76.399,158.794,87.777,158.906,99.884z"/>
	</g>
</g>
</svg>
