<?xml version="1.0" encoding="utf-8"?>
<!-- Generator: Adobe Illustrator 17.0.0, SVG Export Plug-In . SVG Version: 6.00 Build 0)  -->
<!DOCTYPE svg PUBLIC "-//W3C//DTD SVG 1.1//EN" "http://www.w3.org/Graphics/SVG/1.1/DTD/svg11.dtd">
<svg version="1.1" id="Layer_1" xmlns="http://www.w3.org/2000/svg" xmlns:xlink="http://www.w3.org/1999/xlink" x="0px" y="0px"
	 width="200px" height="200px" viewBox="0 0 200 200" enable-background="new 0 0 200 200" xml:space="preserve">
<g>
	<path fill="#090A06" d="M3.981,99.839c0-24.874-0.012-49.749,0.004-74.623C3.993,12.08,12.132,3.914,25.201,3.874
		c3.125-0.009,6.25,0.001,9.375-0.002c1.256-0.001,2.659-0.148,3.619,0.686c3.176,2.758,6.963,2.173,10.647,2.174
		C86.716,6.742,124.59,6.735,162.464,6.74c14.462,0.002,22.28,7.759,22.26,22.152c-0.005,3.437-0.256,6.517,3.342,8.988
		c3.071,2.109,3.152,6.598,0.785,10.229c-1.743,2.672-1.773,4.742-0.063,7.461c2.907,4.623,1.946,8.726-2.6,12.001
		c-1.249,0.9-1.472,1.773-1.459,3.078c0.04,4.124,0.108,8.253-0.026,12.373c-0.065,1.982,0.334,2.698,2.574,2.808
		c7.519,0.369,11.031,6.787,7.145,13.216c-1.684,2.787-1.504,4.802,0.093,7.504c3.723,6.297,0.26,12.648-7.061,12.975
		c-2.506,0.112-2.761,1.014-2.751,3.115c0.074,16.374,0.061,32.749,0.032,49.123c-0.023,13.157-8.114,21.278-21.26,21.286
		c-39.374,0.024-78.748,0.014-118.122-0.006c-2.14-0.001-4.234-0.132-5.916,1.589c-0.409,0.418-1.09,0.761-1.667,0.796
		c-8.048,0.492-16.29,2.103-23.806-2.165c-6.731-3.823-9.985-9.9-9.984-17.677C3.983,150.337,3.981,125.088,3.981,99.839z
		 M162.329,33.899c-0.097,0.555,0.042,0.905,0.699,0.807c1.241,0.329,2.483,0.314,3.725,0.006c0.675,0.117,0.91-0.189,0.798-0.829
		c0.052-2.468,0.215-4.941,0.125-7.404c-0.09-2.47-1.901-2.833-3.935-2.878c-2.501-0.055-1.504,1.774-1.534,2.888
		C162.142,28.955,162.276,31.428,162.329,33.899z M173.591,33.898c-0.082,0.535,0.057,0.886,0.689,0.826
		c1.241,0.006,2.481,0.012,3.722,0.018c0.66,0.079,0.951-0.21,0.867-0.871c0.055-2.361,0.167-4.723,0.155-7.084
		c-0.031-6.051-2.724-10.527-8.206-13.126c-4.42-2.095-9.095-1.275-13.918-1.276c1.825,4.109,4.054,6.164,8.627,5.828
		c4.484-0.33,7.673,3.51,7.912,8.223C173.563,28.919,173.544,31.41,173.591,33.898z M178.867,120.903
		c-1.711-1.826-3.617-1.827-5.275-0.004c-0.044,5.117-0.15,10.235-0.105,15.351c0.02,2.238-0.446,3.963-2.917,4.487
		c-2.495-0.552-2.864-2.352-2.848-4.55c0.054-7.742,0.042-15.484,0.016-23.227c-0.048-14.354-0.123-28.708-0.187-43.062
		c0.11-0.64-0.125-0.947-0.801-0.828c-1.242-0.309-2.483-0.323-3.724,0.005c-0.655-0.098-0.794,0.251-0.697,0.804
		c-0.046,0.245-0.132,0.489-0.133,0.734c-0.073,34.396-0.141,68.791-0.2,103.187c-0.001,0.366,0.12,0.732,0.184,1.098
		c0.84,2.475,2.432,1.136,3.835,0.756c2.2-0.646,1.691-2.505,1.703-4.027c0.052-6.361,0.08-12.724-0.007-19.085
		c-0.031-2.254,0.538-3.918,2.866-4.597c2.065,0.624,2.943,1.943,2.914,4.165c-0.091,6.981,0.05,13.965-0.065,20.945
		c-0.086,5.239-3.542,8.97-8.737,8.57c-4.681-0.36-6.016,2.415-7.756,5.83c3.125,0,5.863,0.146,8.581-0.028
		c7.473-0.477,13.296-5.794,13.381-13.058C179.106,156.552,178.903,138.727,178.867,120.903z M67.08,119.764
		c-4.084,0.113-6.539,2.082-6.679,5.36c-0.121,2.823,2.096,5.33,5.213,5.81c1.218,0.188,2.464,0.354,3.663-0.171
		c21.325,0.044,42.65,0.113,63.975,0.109c3.774-0.001,6.243-2.303,6.281-5.483c0.038-3.157-2.442-5.619-6.131-5.727
		c-4.736-0.138-9.479-0.087-14.218-0.027c-2.038,0.026-3.746-0.288-4.38-2.559c0.338-2.271,1.72-3.109,3.931-3.051
		c2.92,0.077,5.844,0.019,9.007,0.019c-0.305-0.787-0.372-1.153-0.566-1.431c-7.85-11.241-15.691-22.488-23.585-33.698
		c-1.809-2.569-5.468-2.436-7.339,0.226c-7.524,10.709-15.021,21.436-22.495,32.179c-0.521,0.748-1.548,1.352-1.085,2.722
		c10.051,0,20.131,0.036,30.209-0.026c2.354-0.014,4.244,0.354,4.711,3.076c-0.795,2.359-2.652,2.548-4.785,2.547
		C90.898,119.636,78.989,119.713,67.08,119.764z M71.519,136.763c-1.722-0.384-2.513,0.161-2.507,2.068
		c0.044,15.494,0.038,30.988,0.008,46.481c-0.003,1.594,0.602,2.223,2.202,2.204c9.363-0.112,18.726-0.17,28.089-0.247
		c9.732,0.073,19.466,0.104,29.197,0.254c2.038,0.031,2.517-0.79,2.51-2.656c-0.052-15.233-0.058-30.466,0.003-45.698
		c0.008-1.95-0.622-2.567-2.573-2.557C109.472,136.709,90.495,136.724,71.519,136.763z M43.728,186.16
		c-0.06,2.004,1.485,1.278,2.403,1.292c4.622,0.07,9.252-0.118,13.865,0.092c2.626,0.12,3.353-0.677,3.331-3.313
		c-0.126-14.991-0.093-29.984-0.022-44.976c0.009-1.939-0.394-3.049-2.316-4.003c-4.46-2.213-6.533-6.078-6.052-11.067
		c0.466-4.838,3.254-7.943,7.753-9.624c1.095-0.409,2.618-0.231,2.917-1.893c8.778-12.432,17.526-24.886,26.375-37.267
		c1.019-1.426,0.523-2.431,0.077-3.761c-1.253-3.735-0.02-7.469,3.006-9.668c2.939-2.136,6.861-2.153,9.817-0.044
		c3.023,2.157,4.469,6.023,3.04,9.623c-0.777,1.958-0.386,3.16,0.71,4.711c8.361,11.828,16.653,23.705,24.936,35.588
		c0.876,1.257,1.777,2.159,3.378,2.646c4.725,1.438,7.642,4.684,8.12,9.689c0.492,5.156-1.777,8.952-6.362,11.288
		c-1.181,0.602-2.007,1.042-2,2.65c0.069,15.746,0.04,31.492,0.047,47.237c0,0.979-0.124,1.832,1.358,2.16
		c9.32,2.061,18.269-4.753,18.283-14.389c0.073-48.862,0.064-97.724,0.002-146.587c-0.01-7.982-5.591-14.05-13.517-14.122
		c-20.737-0.188-41.477,0.019-62.219,0.069c-11.653-0.062-23.306-0.087-34.958-0.217c-2.363-0.026-2.312,1.222-1.959,2.861
		c-0.055,0.869-0.158,1.737-0.158,2.606c-0.008,54.771-0.008,109.542,0,164.313c0,0.869,0.103,1.737,0.158,2.606
		C43.735,185.161,43.732,185.66,43.728,186.16z M37.823,99.994c0-26.369,0.061-52.739-0.026-79.108
		C37.754,7.907,39.729,9.682,26.494,9.609C14.634,9.543,9.701,14.564,9.7,26.503c-0.006,48.864-0.003,97.729-0.002,146.593
		c0,1.125-0.023,2.251,0.028,3.374c0.357,7.874,5.734,13.335,13.577,13.684c2.994,0.133,5.998,0.051,8.997,0.046
		c5.263-0.009,5.519-0.257,5.52-5.475C37.824,156.482,37.822,128.238,37.823,99.994z M162.185,51.809c0,2.994,0.075,5.99-0.029,8.98
		c-0.06,1.726,0.441,2.434,2.295,2.401c5.611-0.101,11.227,0.051,16.837-0.075c3.188-0.072,4.354-2.042,2.591-4.733
		c-2.871-4.383-2.989-8.422-0.081-12.847c1.886-2.87,0.701-4.814-2.719-4.877c-5.486-0.102-10.978,0.056-16.463-0.073
		c-2.061-0.048-2.541,0.757-2.464,2.619C162.272,46.068,162.184,48.94,162.185,51.809z M173.462,102.869
		c0,2.991,0.052,5.984-0.022,8.973c-0.038,1.53,0.378,2.268,2.08,2.226c3.861-0.096,7.732,0.092,11.588-0.082
		c2.881-0.129,4.111-2.205,2.497-4.623c-2.998-4.491-3.111-8.61-0.083-13.148c1.768-2.649,0.542-4.57-2.641-4.69
		c-3.236-0.122-6.491,0.133-9.717-0.082c-2.773-0.185-4.113,0.454-3.763,3.581C173.69,97.609,173.46,100.252,173.462,102.869z
		 M179.027,77.392c0-2.114-0.133-4.239,0.035-6.34c0.191-2.384-1.293-2.176-2.836-2.191c-1.577-0.015-2.917-0.142-2.804,2.216
		c0.178,3.723,0.038,7.46,0.048,11.191c0.005,1.79-0.571,3.597,2.603,3.593c3.051-0.004,3.126-1.421,2.981-3.62
		C178.948,80.632,179.033,79.009,179.027,77.392z M102.818,68.694c-0.383-1.654-1.296-2.734-3.058-2.557
		c-1.718,0.172-2.682,1.313-2.48,3.014c0.176,1.481,1.187,2.421,2.785,2.361C101.842,71.445,102.628,70.331,102.818,68.694z"/>
	<path fill="#F7EC7F" d="M80.658,12.492c20.739-0.05,41.48-0.257,62.217-0.069c7.926,0.072,13.507,6.141,13.517,14.122
		c0.062,48.862,0.072,97.724-0.002,146.587c-0.014,9.636-8.964,16.45-18.283,14.389c-1.482-0.328-1.357-1.181-1.358-2.16
		c-0.007-15.746,0.022-31.492-0.047-47.237c-0.007-1.608,0.819-2.048,2-2.65c4.585-2.336,6.854-6.132,6.362-11.288
		c-0.478-5.006-3.396-8.251-8.12-9.689c-1.601-0.487-2.501-1.389-3.378-2.646c-8.283-11.883-16.575-23.76-24.936-35.588
		c-1.096-1.55-1.487-2.753-0.71-4.711c1.429-3.601-0.017-7.466-3.04-9.623c-2.956-2.109-6.878-2.092-9.817,0.044
		c-3.026,2.199-4.259,5.933-3.006,9.668c0.446,1.33,0.942,2.334-0.077,3.761c-8.849,12.382-17.597,24.835-26.375,37.268
		c-0.519-6.192-1.384-12.378-1.487-18.577c-0.255-15.481,1.968-30.728,5.085-45.856c1.119-0.058,2.269,0.033,3.35-0.199
		c4.009-0.864,7.283-2.842,8.385-7.031c0.792-3.01-0.214-5.643-2.928-7.439c2.528-3.91,2.014-7.997-1.271-10.114
		c0.99-2.774,1.98-5.548,2.969-8.322C80.025,14.251,80.342,13.371,80.658,12.492z M126.387,30.914
		c-0.065-1.599-0.035-3.21-0.221-4.795c-0.184-1.563-1.298-2.403-2.798-2.419c-1.359-0.015-2.503,0.802-2.611,2.165
		c-0.209,2.633-1.018,5.433,1.218,7.705c-3.968,3.562-4.239,7.823-0.722,11.36c3.999,4.022,11.838,4.362,16.181,0.703
		c4.797-4.042,4.227-10.155-1.192-13.356C133.122,30.436,129.74,30.865,126.387,30.914z M100.033,36.426
		c3.005-0.012,5.579-1.077,7.712-3.183c1.301-1.285,1.828-2.734,0.446-4.253c-1.21-1.331-2.674-1.325-3.957-0.143
		c-2.907,2.679-5.681,2.57-8.561-0.052c-1.307-1.19-2.771-1.075-3.947,0.259c-1.211,1.374-0.862,2.766,0.312,3.986
		C94.215,35.301,96.891,36.431,100.033,36.426z"/>
	<path fill="#EFDF2B" d="M79.709,15.131c-0.99,2.774-1.98,5.548-2.969,8.322c-4.471,1.078-2.493,4.844-3.135,7.519
		c-1.986-0.021-4.004-0.281-5.951-0.019c-6.197,0.835-10.141,6.512-7.824,11.393c1.808,3.81,5.358,5.34,9.374,5.89
		c-3.116,15.129-5.34,30.375-5.085,45.856c0.102,6.199,0.968,12.386,1.487,18.577c-0.298,1.661-1.821,1.483-2.917,1.892
		c-4.499,1.681-7.287,4.786-7.753,9.624c-0.481,4.989,1.592,8.854,6.052,11.067c1.923,0.954,2.325,2.064,2.316,4.003
		c-0.071,14.992-0.104,29.985,0.022,44.976c0.022,2.636-0.705,3.433-3.331,3.313c-4.613-0.21-9.243-0.022-13.865-0.092
		c-0.917-0.014-2.463,0.712-2.403-1.292c0.542-0.114,1.29-0.099,1.121-0.907c-0.055-0.263-0.723-0.399-1.11-0.593
		c-0.055-0.869-0.158-1.737-0.158-2.606c-0.008-54.771-0.008-109.542,0-164.313c0-0.869,0.103-1.737,0.158-2.606
		c2.642-1.688,5.595-1.535,8.552-1.517c7.057,0.043,14.116,0.1,21.17-0.035C75.755,13.54,77.801,13.905,79.709,15.131z"/>
	<path fill="#00CB8C" d="M37.822,99.994c-0.001,28.244,0.002,56.488-0.003,84.732c-0.001,5.218-0.257,5.466-5.52,5.475
		c-2.999,0.005-6.003,0.088-8.997-0.046c-7.843-0.349-13.22-5.81-13.577-13.684c-0.051-1.123-0.028-2.249-0.028-3.374
		C9.697,124.232,9.694,75.368,9.7,26.503c0.002-11.939,4.934-16.96,16.794-16.895c13.235,0.073,11.259-1.701,11.302,11.278
		C37.884,47.255,37.823,73.625,37.822,99.994z M18.14,77.105c-3.025,0.611-2.903,2.914-2.901,5.241
		c0.018,28.866,0.011,57.731,0.015,86.597c0,0.874-0.033,1.758,0.081,2.62c0.51,3.854,3.62,6.895,7.431,7.329
		c4.026,0.458,7.706-1.909,9.04-5.773c0.587-1.7,0.494-3.449,0.494-5.195c0.002-45.36,0.001-90.72,0.001-136.08
		c0-0.875,0.04-1.753-0.024-2.623c-0.367-5-4.056-8.506-8.792-8.388c-4.506,0.113-8.156,3.731-8.196,8.545
		c-0.099,12.12-0.006,24.242-0.064,36.363c-0.01,2.192,0.773,3.593,2.905,4.178C18.134,72.313,18.137,74.709,18.14,77.105z"/>
	<path fill="#D77B40" d="M71.519,136.763c18.976-0.039,37.953-0.054,56.929-0.151c1.951-0.01,2.581,0.606,2.573,2.557
		c-0.061,15.233-0.055,30.466-0.003,45.698c0.006,1.866-0.472,2.688-2.51,2.656c-9.731-0.15-19.464-0.181-29.197-0.254
		c0.074-1.404-0.87-2.229-1.715-3.156c-9.631-10.556-16.668-22.755-22.268-35.799C73.737,144.608,71.528,141.023,71.519,136.763z
		 M111.284,158.674c0-1.868,0.082-3.74-0.015-5.603c-0.317-6.078-5.212-10.775-11.198-10.816
		c-5.969-0.042-10.979,4.638-11.322,10.679c-0.127,2.235-0.043,4.482-0.044,6.723c-0.003,10.276,0.544,10.83,10.669,10.83
		C111.216,170.486,111.301,170.402,111.284,158.674z"/>
	<path fill="#FA8895" d="M107.591,117.091c-0.467-2.722-2.356-3.09-4.711-3.076c-10.078,0.062-20.158,0.026-30.209,0.026
		c-0.463-1.37,0.565-1.974,1.085-2.722c7.474-10.743,14.972-21.47,22.495-32.179c1.87-2.662,5.53-2.796,7.339-0.226
		c7.894,11.21,15.735,22.457,23.585,33.698c0.194,0.278,0.261,0.645,0.566,1.431c-3.163,0-6.086,0.058-9.007-0.019
		c-2.21-0.058-3.593,0.78-3.931,3.051C112.4,117.082,109.995,117.087,107.591,117.091z"/>
	<path fill="#F95B6E" d="M107.591,117.091c2.404-0.005,4.809-0.01,7.213-0.015c0.634,2.271,2.342,2.584,4.38,2.558
		c4.739-0.06,9.482-0.111,14.218,0.027c3.689,0.107,6.169,2.57,6.131,5.727c-0.038,3.18-2.507,5.483-6.281,5.483
		c-21.325,0.003-42.65-0.065-63.976-0.109c-0.841-3.645-2.085-7.209-2.196-10.999c11.909-0.05,23.818-0.128,35.727-0.125
		C104.94,119.639,106.796,119.45,107.591,117.091z"/>
	<path fill="#C46B32" d="M71.519,136.763c0.01,4.26,2.218,7.845,3.809,11.551c5.6,13.044,12.636,25.243,22.268,35.799
		c0.846,0.927,1.789,1.751,1.715,3.156c-9.363,0.076-18.726,0.135-28.089,0.247c-1.6,0.019-2.205-0.61-2.202-2.204
		c0.03-15.494,0.036-30.988-0.008-46.481C69.006,136.924,69.797,136.378,71.519,136.763z"/>
	<path fill="#EBEBED" d="M167.551,69.9c0.064,14.354,0.139,28.708,0.187,43.062c0.026,7.742,0.038,15.485-0.016,23.227
		c-0.015,2.198,0.354,3.998,2.848,4.549c0.003,2.404,0.005,4.807,0.008,7.211c-2.328,0.679-2.897,2.342-2.866,4.597
		c0.087,6.361,0.059,12.723,0.007,19.085c-0.012,1.522,0.497,3.381-1.703,4.027c-1.083-1.242-2.543-0.571-3.835-0.756
		c-0.064-0.366-0.185-0.732-0.184-1.098c0.059-34.396,0.126-68.792,0.2-103.187c0.001-0.245,0.087-0.49,0.133-0.734
		c0.232-0.268,0.465-0.536,0.697-0.804c1.241-0.329,2.482-0.314,3.724-0.005C167.017,69.348,167.284,69.624,167.551,69.9z"/>
	<path fill="#5FD7A6" d="M162.185,51.809c0-2.869,0.088-5.741-0.032-8.605c-0.078-1.862,0.402-2.667,2.464-2.619
		c5.485,0.129,10.977-0.029,16.463,0.073c3.42,0.063,4.605,2.007,2.719,4.877c-2.908,4.425-2.79,8.464,0.081,12.847
		c1.763,2.691,0.598,4.661-2.591,4.733c-5.61,0.126-11.226-0.026-16.837,0.075c-1.854,0.033-2.354-0.675-2.295-2.401
		C162.26,57.799,162.185,54.802,162.185,51.809z"/>
	<path fill="#ECDC2A" d="M170.577,147.949c-0.003-2.404-0.006-4.807-0.008-7.211c2.472-0.524,2.938-2.249,2.918-4.487
		c-0.045-5.116,0.06-10.234,0.105-15.351c1.758,0.001,3.517,0.002,5.275,0.004c0.037,17.823,0.239,35.649,0.029,53.469
		c-0.086,7.264-5.909,12.581-13.381,13.058c-2.718,0.174-5.457,0.028-8.581,0.028c1.74-3.414,3.075-6.19,7.756-5.83
		c5.195,0.4,8.651-3.331,8.737-8.57c0.115-6.98-0.026-13.964,0.065-20.945C173.52,149.892,172.642,148.573,170.577,147.949z"/>
	<path fill="#FA8895" d="M173.461,102.869c-0.001-2.617,0.229-5.26-0.06-7.845c-0.35-3.127,0.989-3.766,3.763-3.581
		c3.226,0.215,6.481-0.04,9.717,0.082c3.184,0.12,4.409,2.042,2.641,4.69c-3.029,4.538-2.915,8.657,0.083,13.148
		c1.614,2.418,0.384,4.494-2.497,4.623c-3.856,0.173-7.727-0.014-11.588,0.082c-1.701,0.042-2.118-0.696-2.08-2.226
		C173.515,108.853,173.462,105.86,173.461,102.869z"/>
	<path fill="#ECDC2A" d="M178.001,34.742c-1.241-0.006-2.481-0.012-3.722-0.018c-0.23-0.275-0.459-0.551-0.689-0.826
		c-0.047-2.488-0.029-4.979-0.154-7.463c-0.239-4.713-3.428-8.553-7.912-8.223c-4.573,0.336-6.801-1.718-8.627-5.828
		c4.823,0.001,9.499-0.82,13.918,1.276c5.482,2.599,8.175,7.076,8.206,13.126c0.012,2.361-0.099,4.723-0.155,7.084
		C178.579,34.161,178.29,34.451,178.001,34.742z"/>
	<path fill="#EFDF2B" d="M179.03,77.392c0.003,1.617-0.082,3.239,0.024,4.849c0.145,2.199,0.07,3.616-2.981,3.62
		c-3.174,0.004-2.598-1.803-2.603-3.593c-0.01-3.731,0.13-7.469-0.048-11.191c-0.113-2.358,1.227-2.231,2.804-2.216
		c1.543,0.015,3.028-0.194,2.836,2.191C178.894,73.153,179.027,75.278,179.03,77.392z"/>
	<path fill="#D93449" d="M67.08,119.764c0.112,3.79,1.355,7.354,2.196,10.999c-1.198,0.525-2.445,0.358-3.663,0.171
		c-3.117-0.48-5.334-2.987-5.213-5.81C60.541,121.846,62.996,119.876,67.08,119.764z"/>
	<path fill="#ECDC2A" d="M79.709,15.131c-1.908-1.226-3.954-1.59-6.248-1.546c-7.054,0.135-14.113,0.079-21.17,0.035
		c-2.957-0.018-5.91-0.171-8.552,1.517c-0.353-1.64-0.404-2.887,1.959-2.861c11.652,0.129,23.305,0.155,34.959,0.217
		C80.342,13.371,80.025,14.251,79.709,15.131z"/>
	<path fill="#EBEBED" d="M166.753,34.711c-1.242,0.309-2.484,0.323-3.725-0.006c-0.233-0.269-0.466-0.538-0.699-0.807
		c-0.053-2.471-0.187-4.944-0.122-7.411c0.03-1.114-0.967-2.943,1.534-2.888c2.034,0.045,3.845,0.408,3.935,2.878
		c0.09,2.463-0.073,4.936-0.125,7.404C167.285,34.158,167.019,34.434,166.753,34.711z"/>
	<path fill="#F95B6E" d="M102.818,68.694c-0.19,1.637-0.976,2.752-2.754,2.818c-1.598,0.059-2.609-0.88-2.785-2.361
		c-0.202-1.701,0.762-2.841,2.48-3.014C101.522,65.96,102.434,67.04,102.818,68.694z"/>
	<path fill="#EFDF2B" d="M178.867,120.903c-1.758-0.001-3.517-0.002-5.275-0.004C175.249,119.077,177.155,119.078,178.867,120.903z"
		/>
	<path fill="#F7F9FA" d="M162.18,174.902c1.291,0.185,2.752-0.486,3.835,0.756C164.612,176.038,163.02,177.377,162.18,174.902z"/>
	<path fill="#ECDC2A" d="M43.739,184.661c0.387,0.194,1.055,0.329,1.11,0.593c0.169,0.808-0.58,0.793-1.121,0.907
		C43.732,185.66,43.735,185.161,43.739,184.661z"/>
	<path fill="#EFDF2B" d="M178.001,34.742c0.289-0.29,0.578-0.581,0.867-0.871C178.952,34.532,178.662,34.821,178.001,34.742z"/>
	<path fill="#F7F9FA" d="M163.026,69.078c-0.232,0.268-0.465,0.536-0.697,0.804C162.232,69.329,162.371,68.979,163.026,69.078z"/>
	<path fill="#EFDF2B" d="M173.591,33.898c0.23,0.275,0.459,0.551,0.689,0.826C173.648,34.784,173.509,34.433,173.591,33.898z"/>
	<path fill="#F7F9FA" d="M167.551,69.9c-0.267-0.276-0.534-0.552-0.801-0.828C167.426,68.953,167.661,69.26,167.551,69.9z"/>
	<path fill="#F7F9FA" d="M166.753,34.711c0.266-0.276,0.532-0.553,0.798-0.829C167.662,34.521,167.428,34.828,166.753,34.711z"/>
	<path fill="#F7F9FA" d="M162.329,33.899c0.233,0.269,0.466,0.538,0.699,0.807C162.371,34.804,162.231,34.454,162.329,33.899z"/>
	<path fill="#FDA1AA" d="M69.203,48.236c-4.017-0.55-7.566-2.08-9.374-5.89c-2.316-4.881,1.627-10.558,7.824-11.393
		c1.948-0.262,3.966-0.002,5.951,0.018c0.623,2.301,2.039,3.255,4.406,2.595c2.714,1.796,3.72,4.43,2.928,7.439
		c-1.102,4.189-4.376,6.167-8.385,7.031C71.473,48.269,70.322,48.178,69.203,48.236z"/>
	<path fill="#FDA1AA" d="M126.387,30.914c3.353-0.049,6.735-0.478,9.854,1.364c5.419,3.2,5.989,9.314,1.192,13.356
		c-4.343,3.659-12.182,3.318-16.181-0.703c-3.517-3.537-3.246-7.797,0.724-11.358C124.379,34.232,125.78,33.231,126.387,30.914z"/>
	<path fill="#090A06" d="M100.035,36.426c-3.145,0.005-5.82-1.126-7.997-3.387c-1.174-1.22-1.523-2.612-0.312-3.986
		c1.176-1.334,2.64-1.449,3.947-0.259c2.879,2.621,5.654,2.731,8.561,0.052c1.283-1.182,2.747-1.188,3.957,0.143
		c1.382,1.52,0.855,2.969-0.446,4.253C105.612,35.348,103.038,36.414,100.035,36.426z"/>
	<path fill="#080F06" d="M126.387,30.914c-0.607,2.317-2.008,3.318-4.411,2.658c-2.237-2.273-1.428-5.074-1.219-7.707
		c0.108-1.363,1.253-2.18,2.611-2.165c1.499,0.016,2.614,0.855,2.798,2.419C126.352,27.704,126.322,29.315,126.387,30.914z"/>
	<path fill="#080F06" d="M78.01,33.566c-2.367,0.66-3.783-0.295-4.406-2.595c0.642-2.674-1.336-6.441,3.135-7.518
		C80.024,25.569,80.538,29.656,78.01,33.566z"/>
	<path fill="#080F06" d="M18.13,69.918c-2.132-0.585-2.915-1.986-2.905-4.178c0.058-12.121-0.036-24.242,0.064-36.363
		c0.039-4.815,3.69-8.433,8.196-8.545c4.736-0.118,8.425,3.388,8.792,8.388c0.064,0.87,0.024,1.749,0.024,2.623
		c0.001,45.36,0.001,90.72-0.001,136.08c0,1.746,0.093,3.495-0.494,5.195c-1.334,3.865-5.014,6.232-9.04,5.773
		c-3.811-0.434-6.921-3.475-7.431-7.329c-0.114-0.862-0.081-1.746-0.081-2.62c-0.004-28.866,0.003-57.731-0.015-86.597
		c-0.001-2.328-0.124-4.631,2.901-5.241c3.006,0.667,2.842,2.998,2.841,5.304c-0.012,28.233-0.008,56.466-0.006,84.699
		c0,0.999-0.009,1.999,0.022,2.998c0.059,1.889,0.928,3.225,2.92,3.121c1.731-0.09,2.598-1.308,2.604-3.066
		c0.003-0.874,0.012-1.749,0.012-2.623c0.001-45.098,0.001-90.195-0.002-135.293c0-1.124,0.06-2.261-0.09-3.367
		c-0.191-1.403-1.164-2.261-2.534-2.326c-1.571-0.075-2.604,0.815-2.821,2.405c-0.135,0.983-0.106,1.993-0.107,2.991
		C20.973,42.94,20.943,53.934,21,64.927C21.012,67.239,20.709,69.184,18.13,69.918z"/>
	<path fill="#EFDF2B" d="M18.13,69.918c2.579-0.734,2.882-2.678,2.87-4.991c-0.057-10.993-0.027-21.987-0.02-32.98
		c0.001-0.998-0.028-2.007,0.107-2.991c0.218-1.589,1.25-2.479,2.821-2.405c1.37,0.065,2.344,0.923,2.534,2.326
		c0.15,1.106,0.09,2.244,0.09,3.367c0.003,45.098,0.003,90.195,0.002,135.293c0,0.874-0.009,1.749-0.012,2.623
		c-0.007,1.758-0.873,2.976-2.604,3.066c-1.992,0.104-2.861-1.232-2.92-3.121c-0.031-0.999-0.022-1.999-0.022-2.998
		c-0.001-28.233-0.006-56.466,0.006-84.699c0.001-2.306,0.165-4.637-2.841-5.304C18.137,74.709,18.134,72.313,18.13,69.918z"/>
	<path fill="#090A06" d="M111.284,158.674c0.016,11.728-0.068,11.812-11.91,11.812c-10.125,0-10.671-0.553-10.669-10.83
		c0.001-2.241-0.083-4.489,0.044-6.723c0.343-6.04,5.353-10.72,11.322-10.679c5.985,0.042,10.881,4.738,11.198,10.816
		C111.366,154.934,111.284,156.806,111.284,158.674z M105.655,158.539c0-1.74,0.136-3.494-0.029-5.219
		c-0.31-3.239-2.62-5.385-5.586-5.406c-2.975-0.021-5.351,2.101-5.646,5.331c-0.203,2.221-0.111,4.473-0.084,6.71
		c0.069,5.732-0.755,4.904,4.913,4.945C105.721,164.947,105.721,164.913,105.655,158.539z"/>
	<path fill="#C9B8DC" d="M105.655,158.539c0.066,6.373,0.066,6.408-6.433,6.361c-5.668-0.041-4.843,0.787-4.913-4.945
		c-0.027-2.237-0.119-4.489,0.084-6.71c0.296-3.23,2.672-5.352,5.646-5.331c2.966,0.021,5.276,2.167,5.586,5.406
		C105.791,155.045,105.655,156.799,105.655,158.539z"/>
</g>
</svg>
