<?xml version="1.0" encoding="utf-8"?>
<!-- Generator: Adobe Illustrator 17.0.0, SVG Export Plug-In . SVG Version: 6.00 Build 0)  -->
<!DOCTYPE svg PUBLIC "-//W3C//DTD SVG 1.1//EN" "http://www.w3.org/Graphics/SVG/1.1/DTD/svg11.dtd">
<svg version="1.1" id="Layer_1" xmlns="http://www.w3.org/2000/svg" xmlns:xlink="http://www.w3.org/1999/xlink" x="0px" y="0px"
	 width="200px" height="200px" viewBox="0 0 200 200" enable-background="new 0 0 200 200" xml:space="preserve">
<g>
	<path fill="#0B0906" d="M14.052,121.321c-2.14,0.658-3.399-0.281-4.25-2.204c-1.278-2.889-2.064-5.859-2.062-9.042
		c0.012-32.655,0.037-65.311-0.04-97.966c-0.008-3.291,1.191-4.416,4.443-4.413c58.588,0.06,117.175,0.061,175.763-0.001
		c3.299-0.003,4.397,1.22,4.394,4.463c-0.061,58.588-0.062,117.175,0.001,175.763c0.004,3.329-1.276,4.38-4.488,4.371
		c-28.693-0.075-57.387-0.087-86.08,0.011c-3.566,0.012-4.548-1.451-4.532-4.745c0.088-17.648-0.031-35.297,0.114-52.944
		c0.023-2.776-0.761-3.323-3.387-3.309c-21.009,0.111-42.019,0.056-63.029,0.066c-3.632,0.002-7.156-0.418-10.547-1.874
		c-2.237-0.96-3.22-2.361-2.478-4.768c1.472-1.208,2.933-1.121,4.641-0.328c2.786,1.294,5.726,1.969,9.237,1.063
		c-4.039-4.344-6.264-9.122-6.512-14.707c-0.117-2.625-0.142-5.254-0.208-7.881c0.062-1.314,0.177-2.627,0.178-3.941
		c0.011-25.802,0.008-51.603,0.008-77.405c0-8.378-0.003-8.236-8.332-8.413c-2.99-0.064-3.77,0.736-3.757,3.743
		c0.122,27.601,0.069,55.203,0.081,82.805c0,1.071,0.14,2.142,0.215,3.213c-0.294,4.979-0.751,9.975,1.635,14.655
		C15.855,119.094,15.113,120.252,14.052,121.321z M97.09,14.238c0.029-0.519-0.101-1.007-0.697-1.012
		c-4.442-0.034-8.883-0.029-13.325-0.051c-1.655-0.008-1.51,1.147-1.51,2.243c0.002,23.773,0,47.546,0.009,71.32
		c0,0.782-0.243,1.808,1.138,1.705c4.071,0.048,8.143,0.049,12.211,0.167c1.579,0.046,2.359-0.247,2.351-2.118
		C97.165,62.408,97.137,38.323,97.09,14.238z M173.499,13.486c-1.204,0.916-0.56,2.206-0.567,3.296
		c-0.057,10.061-0.078,20.123,0,30.183c0.018,2.267-0.346,4.045-2.839,4.66c-2.218-0.763-2.582-2.457-2.568-4.574
		c0.066-10.206,0.051-20.414-0.002-30.62c-0.006-1.077,0.641-2.447-0.864-3.18c-3.362-1.637-6.55,0.291-6.551,3.981
		c-0.002,55.237-0.001,110.475,0,165.712c0,0.84,0.007,1.681,0.029,2.521c0.022,0.852,0.502,1.182,1.318,1.394
		c4.41,1.141,6.1-0.101,6.1-4.581c0.001-40.107,0.004-80.214-0.01-120.321c-0.001-2.199-0.236-4.436,2.501-5.313
		c3.12,0.611,2.864,2.993,2.863,5.321c-0.015,40.292-0.019,80.584,0.029,120.876c0.001,1.202-0.706,2.615,0.563,3.658
		c3.085,0.624,6.227-0.039,9.299,0.341c3.379,0.418,4.076-0.913,4.071-4.117c-0.098-55.155-0.07-110.31-0.071-165.465
		c0-0.719-0.052-1.442,0.001-2.157c0.101-1.354-0.426-1.975-1.84-1.911C181.143,13.367,177.306,12.854,173.499,13.486z
		 M154.738,100.061c0-0.84,0-1.68,0-2.52c0-27.004-0.039-54.009,0.061-81.013c0.01-2.623-0.515-3.572-3.31-3.41
		c-4.426,0.257-8.884,0.211-13.316,0.014c-2.584-0.115-3.489,0.489-3.476,3.314c0.118,25.684,0.082,51.368,0.041,77.052
		c-0.003,1.756,0.449,3.17,1.394,4.664c4.97,7.858,4.937,15.812,0.012,23.695c-0.775,1.24-1.414,2.373-1.41,3.94
		c0.051,19.443,0.077,38.887-0.023,58.329c-0.012,2.404,0.921,2.769,2.963,2.71c4.197-0.121,8.415-0.255,12.596,0.033
		c3.434,0.237,4.604-0.52,4.575-4.356C154.643,155.03,154.738,127.545,154.738,100.061z M43.918,125.886
		c24.803,0,49.15,0.026,73.497-0.013c9.741-0.016,16.903-6.76,16.957-15.799c0.055-9.204-7.12-15.932-17.124-15.944
		c-23.514-0.027-47.028-0.015-70.543,0.02c-0.843,0.001-1.888-0.519-2.586,0.484C52.643,105.056,52.662,114.057,43.918,125.886z
		 M63.343,50.973c0-11.637-0.042-23.274,0.039-34.91c0.014-2.029-0.248-3.03-2.671-2.929c-4.91,0.203-9.836,0.128-14.753,0.03
		c-1.819-0.036-2.494,0.449-2.489,2.396c0.06,23.513,0.066,47.027-0.009,70.54c-0.007,2.158,0.771,2.575,2.703,2.527
		c4.676-0.118,9.362-0.178,14.033,0.02c2.476,0.105,3.244-0.541,3.211-3.124C63.26,74.008,63.343,62.49,63.343,50.973z
		 M116.592,51.096c0-8.993,0.064-17.987-0.032-26.979c-0.038-3.562,1.581-8.439-0.653-10.322c-2.131-1.796-6.854-0.403-10.422-0.646
		c-2.275-0.155-2.771,0.661-2.764,2.83c0.077,23.262,0.073,46.524,0.005,69.786c-0.006,2.09,0.354,3.061,2.715,2.874
		c2.741-0.217,5.525-0.216,8.266-0.001c2.432,0.191,2.956-0.724,2.935-3.009C116.531,74.119,116.591,62.607,116.592,51.096z
		 M102.768,158.704c0,5.873-0.027,11.747,0.01,17.62c0.021,3.336-1.124,7.763,0.558,9.721c1.95,2.27,6.52,0.39,9.92,0.778
		c2.603,0.297,3.445-0.461,3.411-3.263c-0.166-13.902-0.061-27.808-0.086-41.712c-0.006-3.338,1.133-7.77-0.549-9.725
		c-1.943-2.259-6.516-0.389-9.915-0.773c-2.597-0.293-3.501,0.446-3.424,3.263C102.909,142.638,102.768,150.673,102.768,158.704z
		 M129.419,91.042c0-0.926,0-1.833,0-2.741c0-23.854-0.049-47.709,0.065-71.562c0.014-2.857-0.801-3.613-3.608-3.619
		c-2.866-0.007-3.87,0.589-3.849,3.718c0.148,21.696,0.078,43.393,0.077,65.089c0,6.714-0.001,6.716,6.28,9.105
		C128.585,91.109,128.839,91.042,129.419,91.042z M38.025,50.712c0-11.404-0.101-22.81,0.072-34.212
		c0.042-2.804-0.843-3.527-3.458-3.332c-2.196,0.164-4.015-0.348-3.987,3.182c0.18,23.047,0.181,46.097,0.001,69.144
		c-0.028,3.576,1.864,2.95,4.016,3.142c2.674,0.239,3.462-0.607,3.424-3.353C37.931,73.762,38.025,62.236,38.025,50.712z
		 M76.164,51.023c0-11.521-0.103-23.043,0.073-34.561c0.044-2.871-0.98-3.421-3.517-3.299c-2.295,0.11-3.953-0.159-3.928,3.252
		c0.171,23.04,0.156,46.083,0.011,69.123c-0.02,3.149,1.465,3.116,3.696,3.082c2.15-0.033,3.805,0.192,3.746-3.036
		C76.036,74.067,76.164,62.544,76.164,51.023z M129.418,157.616c0-8.761,0.021-17.521-0.036-26.282
		c-0.005-0.801,0.693-2.077-0.738-2.394c-2.27-0.503-6.534,2.999-6.535,5.296c-0.006,16.561,0.074,33.123-0.072,49.683
		c-0.027,2.999,1.473,2.947,3.541,2.859c1.983-0.085,4.003,0.533,3.915-2.883C129.268,175.141,129.418,166.377,129.418,157.616z
		 M30.749,103.747c0.022,0,0.044,0,0.066,0c0,2.401-0.094,4.807,0.02,7.202c0.211,4.418,2.092,8.071,5.394,10.996
		c0.819,0.726,1.633,1.512,2.772,0.44c0.865-0.814,1.953-1.453,1.169-2.962c-3.1-5.968-2.046-12.43-2.135-18.747
		c-0.059-4.196-0.987-5.286-5.169-6.178c-1.598-0.341-2.196,0.014-2.14,1.687C30.811,98.702,30.749,101.225,30.749,103.747z
		 M43.783,104.718c-0.128,3.032-0.553,6.099,0.381,9.639C45.491,110.748,44.947,107.729,43.783,104.718z"/>
	<path fill="#FADC7B" d="M25.03,102.877c0.067,2.627,0.092,5.256,0.208,7.881c0.248,5.585,2.472,10.362,6.512,14.707
		c-3.512,0.906-6.451,0.231-9.237-1.063c-1.707-0.793-3.169-0.88-4.641,0.328c-1.274-1.135-2.548-2.272-3.822-3.409
		c1.062-1.07,1.804-2.228,1.009-3.787c-2.387-4.68-1.929-9.677-1.635-14.655C17.293,102.878,21.162,102.878,25.03,102.877z"/>
	<path fill="#FADC7B" d="M154.738,100.061c0,27.485-0.095,54.97,0.109,82.453c0.029,3.837-1.142,4.593-4.575,4.356
		c-4.181-0.288-8.399-0.154-12.596-0.033c-2.043,0.059-2.976-0.307-2.963-2.71c0.099-19.443,0.074-38.886,0.023-58.329
		c-0.004-1.567,0.635-2.7,1.41-3.94c4.924-7.883,4.958-15.837-0.012-23.695c-0.945-1.494-1.397-2.908-1.394-4.664
		c0.042-25.684,0.078-51.368-0.041-77.052c-0.013-2.825,0.891-3.429,3.476-3.314c4.432,0.197,8.89,0.242,13.316-0.014
		c2.795-0.162,3.32,0.787,3.31,3.41c-0.1,27.004-0.061,54.009-0.061,81.013C154.738,98.38,154.738,99.22,154.738,100.061z"/>
	<path fill="#CECCE5" d="M43.918,125.886c8.744-11.829,8.724-20.83,0.201-31.252c0.698-1.003,1.743-0.483,2.586-0.484
		c23.514-0.035,47.028-0.047,70.543-0.02c10.004,0.012,17.178,6.74,17.124,15.944c-0.054,9.039-7.216,15.783-16.957,15.799
		C93.068,125.912,68.721,125.886,43.918,125.886z"/>
	<path fill="#FADC7B" d="M170.093,51.626c2.493-0.616,2.856-2.393,2.839-4.66c-0.078-10.061-0.057-20.122,0-30.183
		c0.006-1.09-0.638-2.381,0.567-3.296c2.807,1.568,5.849,0.645,8.761,0.67c2.576,0.022,3.556,0.618,3.553,3.414
		c-0.075,54.949-0.075,109.898,0,164.847c0.004,2.793-0.972,3.395-3.55,3.416c-2.912,0.024-5.954-0.897-8.761,0.668
		c-1.27-1.043-0.562-2.457-0.563-3.658c-0.047-40.292-0.043-80.584-0.029-120.876c0.001-2.328,0.257-4.71-2.864-5.321
		C170.06,54.972,170.077,53.299,170.093,51.626z"/>
	<path fill="#FEDF7C" d="M63.343,50.973c0,11.517-0.083,23.035,0.064,34.55c0.033,2.583-0.736,3.229-3.211,3.124
		c-4.67-0.199-9.357-0.138-14.033-0.02c-1.932,0.049-2.709-0.369-2.703-2.527c0.075-23.513,0.069-47.027,0.009-70.54
		c-0.005-1.947,0.67-2.433,2.489-2.396c4.917,0.099,9.843,0.174,14.753-0.03c2.423-0.1,2.685,0.9,2.671,2.929
		C63.301,27.699,63.343,39.336,63.343,50.973z"/>
	<path fill="#D8606B" d="M170.093,51.626c-0.017,1.673-0.033,3.346-0.049,5.019c-2.736,0.877-2.501,3.114-2.5,5.313
		c0.014,40.107,0.011,80.214,0.01,120.321c0,4.48-1.69,5.722-6.1,4.581c-0.817-0.211-1.296-0.542-1.318-1.394
		c-0.022-0.84-0.029-1.681-0.029-2.521c-0.001-55.237-0.002-110.475,0-165.712c0-3.691,3.189-5.618,6.551-3.981
		c1.506,0.733,0.859,2.103,0.864,3.18c0.053,10.207,0.069,20.414,0.002,30.62C167.511,49.17,167.875,50.863,170.093,51.626z"/>
	<path fill="#FEDF7C" d="M97.09,14.238c0.047,24.085,0.074,48.17,0.177,72.255c0.008,1.871-0.772,2.164-2.351,2.118
		c-4.069-0.118-8.141-0.119-12.211-0.167c-0.001-6.483-0.002-12.966-0.002-19.449c0-17.048,0.059-34.096-0.058-51.143
		c-0.019-2.822,0.749-3.859,3.644-3.67C89.876,14.414,93.489,14.237,97.09,14.238z"/>
	<path fill="#FEDF7C" d="M25.03,102.877c-3.869,0.001-7.737,0.001-11.606,0.002c-0.075-1.071-0.215-2.142-0.215-3.213
		c-0.012-27.602,0.041-55.204-0.081-82.805c-0.013-3.008,0.767-3.807,3.757-3.743c8.329,0.178,8.332,0.035,8.332,8.413
		c0,25.802,0.003,51.603-0.008,77.405C25.208,100.249,25.092,101.563,25.03,102.877z"/>
	<path fill="#FEDF7C" d="M116.591,51.096c0,11.511-0.06,23.023,0.05,34.533c0.022,2.286-0.502,3.201-2.935,3.009
		c-2.741-0.216-5.525-0.217-8.266,0.001c-2.36,0.187-2.721-0.783-2.715-2.874c0.067-23.262,0.072-46.524-0.005-69.786
		c-0.007-2.169,0.489-2.985,2.764-2.83c3.568,0.243,8.291-1.15,10.422,0.646c2.235,1.883,0.616,6.759,0.653,10.322
		C116.655,33.109,116.592,42.103,116.591,51.096z"/>
	<path fill="#FEDF7C" d="M102.768,158.704c0-8.031,0.141-16.066-0.076-24.091c-0.076-2.817,0.827-3.556,3.424-3.263
		c3.399,0.383,7.972-1.486,9.915,0.773c1.682,1.956,0.544,6.388,0.549,9.725c0.024,13.904-0.08,27.809,0.086,41.712
		c0.033,2.802-0.808,3.56-3.411,3.263c-3.4-0.388-7.971,1.491-9.92-0.778c-1.682-1.958-0.537-6.385-0.558-9.721
		C102.741,170.451,102.768,164.577,102.768,158.704z"/>
	<path fill="#D8606B" d="M129.419,91.042c-0.58,0-0.834,0.066-1.034-0.01c-6.281-2.389-6.28-2.391-6.28-9.105
		c0-21.697,0.07-43.394-0.077-65.089c-0.021-3.13,0.982-3.725,3.849-3.718c2.806,0.006,3.622,0.762,3.608,3.619
		c-0.114,23.854-0.065,47.708-0.065,71.562C129.419,89.209,129.419,90.116,129.419,91.042z"/>
	<path fill="#D8606B" d="M38.025,50.712c0,11.524-0.093,23.05,0.068,34.572c0.038,2.746-0.749,3.592-3.424,3.353
		c-2.152-0.192-4.044,0.433-4.016-3.142c0.18-23.047,0.18-46.097-0.001-69.144c-0.028-3.53,1.791-3.019,3.987-3.182
		c2.614-0.195,3.5,0.529,3.458,3.332C37.924,27.902,38.025,39.308,38.025,50.712z"/>
	<path fill="#D8606B" d="M76.164,51.023c0,11.521-0.128,23.044,0.081,34.561c0.059,3.229-1.596,3.004-3.746,3.036
		c-2.231,0.034-3.716,0.067-3.696-3.082c0.145-23.041,0.159-46.083-0.011-69.123c-0.025-3.411,1.633-3.142,3.928-3.252
		c2.537-0.122,3.561,0.428,3.517,3.299C76.061,27.98,76.164,39.502,76.164,51.023z"/>
	<path fill="#D8606B" d="M129.418,157.616c0,8.761-0.15,17.525,0.075,26.28c0.088,3.416-1.932,2.799-3.915,2.883
		c-2.068,0.088-3.568,0.14-3.541-2.859c0.146-16.56,0.067-33.122,0.072-49.683c0.001-2.297,4.264-5.799,6.535-5.296
		c1.431,0.317,0.732,1.593,0.738,2.394C129.439,140.095,129.418,148.856,129.418,157.616z"/>
	<path fill="#D8606B" d="M30.749,103.747c0-2.521,0.062-5.044-0.022-7.562c-0.056-1.673,0.542-2.028,2.14-1.687
		c4.182,0.892,5.11,1.983,5.169,6.178c0.089,6.317-0.965,12.778,2.135,18.747c0.784,1.509-0.304,2.148-1.169,2.962
		c-1.138,1.072-1.953,0.285-2.772-0.44c-3.302-2.925-5.183-6.578-5.394-10.996c-0.115-2.396-0.02-4.801-0.02-7.202
		C30.793,103.747,30.771,103.747,30.749,103.747z"/>
	<path fill="#FEDF7C" d="M173.5,186.501c2.807-1.565,5.85-0.644,8.761-0.668c2.579-0.021,3.554-0.624,3.55-3.416
		c-0.075-54.949-0.075-109.898,0-164.847c0.004-2.796-0.977-3.392-3.553-3.414c-2.912-0.025-5.954,0.898-8.761-0.67
		c3.808-0.633,7.644-0.12,11.462-0.295c1.413-0.065,1.941,0.557,1.84,1.911c-0.053,0.715-0.001,1.438-0.001,2.157
		c0,55.155-0.027,110.31,0.071,165.465c0.006,3.203-0.692,4.534-4.071,4.117C179.728,186.462,176.585,187.125,173.5,186.501z"/>
	<path fill="#FADC7B" d="M97.09,14.238c-3.602-0.001-7.215,0.176-10.801-0.057c-2.895-0.188-3.663,0.849-3.644,3.67
		c0.118,17.047,0.058,34.095,0.058,51.143c0,6.483,0.001,12.966,0.002,19.449c-1.381,0.103-1.138-0.923-1.138-1.705
		c-0.01-23.773-0.007-47.546-0.009-71.32c0-1.096-0.144-2.251,1.51-2.243c4.442,0.022,8.884,0.016,13.325,0.051
		C96.99,13.231,97.12,13.719,97.09,14.238z"/>
	<path fill="#FADC7B" d="M43.783,104.718c1.164,3.011,1.708,6.03,0.381,9.639C43.23,110.817,43.655,107.75,43.783,104.718z"/>
</g>
</svg>
